<svg width="80" height="80" viewBox="0 0 80 81" fill="none" xmlns="http://www.w3.org/2000/svg">
<path d="M0 40C0 17.9086 17.9086 0 40 0H80V80H40C17.9086 80 0 62.0914 0 40Z" fill="#F5F2F2"/>
<path d="M25 39.25C24.5858 39.25 24.25 39.5858 24.25 40C24.25 40.4142 24.5858 40.75 25 40.75V39.25ZM55.5303 40.5303C55.8232 40.2374 55.8232 39.7626 55.5303 39.4697L50.7574 34.6967C50.4645 34.4038 49.9896 34.4038 49.6967 34.6967C49.4038 34.9896 49.4038 35.4645 49.6967 35.7574L53.9393 40L49.6967 44.2426C49.4038 44.5355 49.4038 45.0104 49.6967 45.3033C49.9896 45.5962 50.4645 45.5962 50.7574 45.3033L55.5303 40.5303ZM25 40.75L55 40.75V39.25L25 39.25V40.75Z" fill="#3D3331"/>
</svg>
