<svg width="32" height="12" viewBox="0 0 32 12" fill="none" xmlns="http://www.w3.org/2000/svg">
<path d="M1 6.75C0.585786 6.75 0.25 6.41421 0.25 6C0.25 5.58579 0.585786 5.25 1 5.25L1 6.75ZM31.5303 5.46967C31.8232 5.76256 31.8232 6.23744 31.5303 6.53033L26.7574 11.3033C26.4645 11.5962 25.9896 11.5962 25.6967 11.3033C25.4038 11.0104 25.4038 10.5355 25.6967 10.2426L29.9393 6L25.6967 1.75736C25.4038 1.46447 25.4038 0.989593 25.6967 0.696699C25.9896 0.403806 26.4645 0.403806 26.7574 0.696699L31.5303 5.46967ZM1 5.25L31 5.25V6.75L1 6.75L1 5.25Z" fill="#3D3331"/>
</svg>
