<svg width="80" height="80" viewBox="0 0 80 81" fill="none" xmlns="http://www.w3.org/2000/svg">
<path d="M80 40C80 17.9086 62.0914 0 40 0H0V80H40C62.0914 80 80 62.0914 80 40V40Z" fill="#F5F2F2"/>
<path d="M55 39.25C55.4142 39.25 55.75 39.5858 55.75 40C55.75 40.4142 55.4142 40.75 55 40.75V39.25ZM24.4697 40.5303C24.1768 40.2374 24.1768 39.7626 24.4697 39.4697L29.2426 34.6967C29.5355 34.4038 30.0104 34.4038 30.3033 34.6967C30.5962 34.9896 30.5962 35.4645 30.3033 35.7574L26.0607 40L30.3033 44.2426C30.5962 44.5355 30.5962 45.0104 30.3033 45.3033C30.0104 45.5962 29.5355 45.5962 29.2426 45.3033L24.4697 40.5303ZM55 40.75L25 40.75V39.25L55 39.25V40.75Z" fill="#3D3331"/>
</svg>
