<svg width="82" height="12" viewBox="0 0 82 11" fill="none" xmlns="http://www.w3.org/2000/svg">
<path d="M1 5.25C0.585786 5.25 0.25 5.58579 0.25 6C0.25 6.41421 0.585786 6.75 1 6.75V5.25ZM81.5303 6.53033C81.8232 6.23744 81.8232 5.76256 81.5303 5.46967L76.7574 0.696699C76.4645 0.403806 75.9896 0.403806 75.6967 0.696699C75.4038 0.989593 75.4038 1.46447 75.6967 1.75736L79.9393 6L75.6967 10.2426C75.4038 10.5355 75.4038 11.0104 75.6967 11.3033C75.9896 11.5962 76.4645 11.5962 76.7574 11.3033L81.5303 6.53033ZM1 6.75H81V5.25H1V6.75Z" fill="#3D3331"/>
</svg>
