<svg width="85" height="88" viewBox="0 0 84 88" fill="none" xmlns="http://www.w3.org/2000/svg">
<path d="M29.8535 3.44214C32.142 9.4077 34.0239 15.527 35.7456 21.6933C37.4673 27.8596 38.9681 33.9869 40.3088 40.1612C41.6495 46.3354 42.9037 52.5696 43.9242 58.8377C44.9447 65.1058 45.8051 71.4209 46.1979 77.8038C43.8358 71.8252 42.0276 65.7189 40.293 59.6255C38.5713 53.4592 37.0705 47.3319 35.7298 41.1577C34.3891 34.9834 33.2085 28.7622 32.2009 22.4212C31.1068 16.1401 30.2464 9.82508 29.8535 3.44214Z" fill="#FFC42C"/>
<path d="M3.8315 54.9998C9.48097 52.2378 15.2134 49.8663 20.981 47.7264C26.7614 45.5137 32.6504 43.5456 38.5874 41.7362C44.5244 39.9269 50.4486 38.1905 56.4815 36.6987C62.5143 35.2069 68.5951 33.8739 74.7588 32.9314C69.183 35.7063 63.3769 38.0649 57.5965 40.2776C51.8161 42.4904 45.9271 44.4585 39.99 46.2678C34.053 48.0772 28.1289 49.8136 22.096 51.3054C16.1497 52.7372 10.056 54.1431 3.8315 54.9998Z" fill="#FFC42C"/>
<path d="M52.0502 15.3234C50.385 20.8925 48.438 26.3367 46.4175 31.7679C44.3233 37.1862 42.1684 42.5186 39.8054 47.7391C37.5032 53.0456 34.993 58.2401 32.4091 63.4217C29.7516 68.5903 27.0334 73.6731 23.9598 78.618C25.4778 73.023 27.4247 67.5787 29.4452 62.1475C31.5394 56.7292 33.6943 51.3968 36.0573 46.1763C38.4331 40.8829 40.8698 35.6753 43.4536 30.4937C46.1847 25.3381 48.8422 20.1695 52.0502 15.3234Z" fill="#FFC42C"/>
<path d="M12.1465 30.2349C17.9048 32.4528 23.4387 35.0822 28.8862 37.7715C34.3208 40.5336 39.6561 43.4286 44.892 46.4564C50.1279 49.4842 55.3382 52.6578 60.4362 56.0371C65.5342 59.4163 70.5458 62.8555 75.2465 66.7661C69.4881 64.5481 63.9413 61.9917 58.5067 59.2295C53.0721 56.4673 47.7369 53.5723 42.5009 50.5445C37.265 47.5168 32.0548 44.3432 26.9568 40.9639C21.9323 37.5976 16.9337 34.0855 12.1465 30.2349Z" fill="#FFC42C"/>
</svg>
