<svg width="25" height="21" viewBox="0 0 25 21" fill="none" xmlns="http://www.w3.org/2000/svg">
<path d="M23.8163 4.86129L2.80631 0.0130366C2.66866 -0.0180739 2.52499 0.00689127 2.40574 0.0837076C2.28667 0.160524 2.20254 0.282471 2.17155 0.42285L1.74243 2.36821C1.7152 2.3828 1.68646 2.39356 1.66036 2.41065C1.40326 2.57696 1.22504 2.83544 1.15801 3.13884L0.878 4.40729C0.796871 4.77562 0.860535 5.15357 1.05754 5.47273L0.1086 9.77061C0.10691 9.7783 0.105407 9.78598 0.104093 9.79366C0.101651 9.80249 0.0993973 9.8119 0.0973318 9.82208C0.0935758 9.84032 0.0918859 9.8507 0.0924494 9.84954V9.85031C0.0924494 9.8505 0.0922616 9.85089 0.0922616 9.85108C-0.515092 12.7121 1.90586 17.339 6.47829 19.6669C6.47848 19.6669 6.47848 19.6669 6.47886 19.667C7.38236 20.1272 8.32606 20.4723 9.28288 20.6931C10.1665 20.8969 11.0843 21 12.0154 21C12.0988 21 12.1825 20.9992 12.2661 20.9975C17.3555 20.8953 21.467 17.7956 22.1314 14.9549C22.1316 14.9542 22.1322 14.9532 22.1326 14.9523C22.1363 14.9394 22.1425 14.9156 22.1451 14.9025C22.1468 14.8948 22.1483 14.8872 22.1495 14.8799C22.1513 14.8728 22.1532 14.8653 22.1549 14.8578L23.074 10.6924C23.1018 10.6776 23.1299 10.664 23.1566 10.6469C23.4141 10.4809 23.5923 10.2223 23.6594 9.91902L23.9394 8.65058C24.0231 8.27091 23.948 7.89181 23.7595 7.58631L24.2177 5.51018C24.2821 5.2177 24.1026 4.92716 23.8165 4.86109L23.8163 4.86129ZM2.15487 5.03777C2.07149 5.01876 2.00032 4.9673 1.95487 4.89317C1.90904 4.81942 1.89421 4.73186 1.91317 4.6464L2.19318 3.37796C2.19882 3.35145 2.21497 3.33667 2.22717 3.3286C2.23957 3.32054 2.25891 3.31151 2.28539 3.31842L6.54316 4.30069C6.62654 4.3197 6.69772 4.37117 6.74317 4.4453C6.78899 4.51942 6.80383 4.607 6.78486 4.69226L6.55838 5.71813C6.51988 5.89404 6.34973 6.00639 6.17546 5.96529L2.15487 5.03777ZM1.07219 10.4683C1.5843 10.4398 2.09795 10.4836 2.60406 10.6004C3.35093 10.7726 4.02852 11.0924 4.6152 11.5218C4.62346 11.5279 4.63116 11.5345 4.63924 11.5404C4.77596 11.6418 4.90798 11.7486 5.03456 11.8615C5.04207 11.8684 5.04958 11.8753 5.0571 11.8822C6.127 12.8486 6.81079 14.2146 6.92983 15.6931C6.93095 15.7066 6.93114 15.7204 6.93189 15.7338C6.94316 15.8888 6.94692 16.0451 6.94598 16.2022C6.94541 16.2477 6.94429 16.2934 6.94297 16.3388C6.93865 16.4707 6.92889 16.603 6.91574 16.7357C6.91067 16.7851 6.9071 16.834 6.90091 16.8832C6.87856 17.0585 6.85057 17.2344 6.81151 17.4104C6.77658 17.5692 6.73264 17.7255 6.68437 17.8807C6.6701 17.9264 6.65451 17.9713 6.63911 18.0164C6.59986 18.1321 6.55723 18.2465 6.51066 18.3594C6.49958 18.3861 6.48887 18.4132 6.4776 18.4395C2.91055 16.415 0.865129 12.8124 1.07234 10.4683L1.07219 10.4683ZM7.43178 18.9257C7.48041 18.8145 7.52567 18.7016 7.5685 18.5877C7.5777 18.5635 7.5854 18.5389 7.59441 18.5147C7.63498 18.4028 7.67254 18.2898 7.70747 18.1758C7.71874 18.1385 7.73001 18.1011 7.7409 18.0638C7.78015 17.9267 7.81677 17.789 7.84757 17.6498C7.88288 17.4898 7.9103 17.3298 7.93396 17.1699C7.93959 17.1313 7.9456 17.093 7.95067 17.0544C7.97058 16.9031 7.98654 16.7518 7.99612 16.601C7.99913 16.558 7.99969 16.5152 8.00175 16.4722C8.00682 16.3621 8.00927 16.2523 8.00908 16.1428C8.00908 16.0827 8.00964 16.0228 8.00833 15.9627C8.00476 15.8402 7.99819 15.7182 7.98804 15.597C7.9811 15.5073 7.97114 15.4181 7.96025 15.3289C7.95593 15.2921 7.95049 15.2558 7.94579 15.2191C7.73301 13.6411 6.98031 12.1816 5.79998 11.1054C5.77275 11.0804 5.7459 11.0553 5.71848 11.0307C5.6565 10.9761 5.59416 10.9222 5.52993 10.8696C5.43058 10.7877 5.32935 10.7084 5.22513 10.6322C5.19114 10.6074 5.15602 10.584 5.12147 10.5598C5.00954 10.4811 4.89479 10.406 4.77742 10.3339C4.76371 10.3255 4.75113 10.3157 4.73704 10.3074C4.73441 10.3057 4.7316 10.3053 4.72897 10.3036C4.15503 9.95947 3.52085 9.69792 2.83821 9.54026C2.32422 9.42196 1.80379 9.37146 1.2836 9.37856L2.00398 6.11427L5.94233 7.02338C6.04412 7.047 6.14609 7.05814 6.24656 7.05814C6.87795 7.05814 7.44978 6.61184 7.59439 5.95602L7.82088 4.93015C7.9884 4.17004 7.52021 3.41186 6.7767 3.24038L2.83835 2.33186L3.09038 1.19036L23.0643 5.80067L22.8123 6.94217L18.874 6.03306C18.1317 5.86291 17.39 6.34051 17.2217 7.10042L16.9956 8.1263C16.9143 8.49444 16.9781 8.87297 17.1751 9.19194C17.3721 9.51111 17.6792 9.73233 18.039 9.81552L21.9776 10.7242L21.2581 13.9842C20.7963 13.7531 20.311 13.5728 19.804 13.4559C19.1226 13.2986 18.4415 13.2563 17.7797 13.3147C17.7754 13.3149 17.7714 13.3141 17.7671 13.3147C17.7465 13.3166 17.7265 13.3208 17.7061 13.3228C17.5784 13.3354 17.4516 13.3521 17.3256 13.3723C17.2785 13.3798 17.2311 13.3863 17.1842 13.395C17.0625 13.4172 16.9419 13.4434 16.8221 13.4726C16.7368 13.4929 16.6525 13.5156 16.5686 13.5392C16.5436 13.5463 16.5188 13.5544 16.494 13.5619C14.9651 14.0128 13.6637 15.005 12.8045 16.3453C12.7859 16.3739 12.7673 16.4025 12.7493 16.4315C12.7014 16.5085 12.6543 16.5863 12.6094 16.6656C12.5499 16.7703 12.4928 16.8765 12.4387 16.985C12.4118 17.0389 12.387 17.0941 12.3615 17.1488C12.3157 17.2467 12.2721 17.3462 12.2306 17.4472C12.2143 17.4874 12.1966 17.5271 12.1808 17.5678C12.1264 17.708 12.0774 17.8511 12.0319 17.9965C12.0203 18.0337 12.0094 18.0712 11.9983 18.1084C11.9525 18.2632 11.9102 18.4195 11.8749 18.5795C11.8443 18.7185 11.8195 18.8589 11.7973 18.9997C11.7913 19.0379 11.7861 19.0759 11.7806 19.1141C11.7639 19.233 11.7504 19.3523 11.7401 19.4717C11.738 19.4965 11.735 19.5211 11.7331 19.5458C11.7239 19.6672 11.7171 19.7886 11.7143 19.9103C10.9654 19.8911 10.2277 19.7984 9.51559 19.634C8.80944 19.4709 8.11045 19.2334 7.43156 18.9257L7.43178 18.9257ZM22.6615 8.02046C22.8335 8.06002 22.9421 8.23574 22.9032 8.41165L22.6232 9.68009C22.614 9.72253 22.5725 9.74884 22.5314 9.73962L18.2732 8.75696C18.1898 8.73795 18.119 8.68648 18.0732 8.61235C18.0278 8.53861 18.0129 8.45104 18.0317 8.36558L18.2578 7.33971C18.2965 7.1638 18.4691 7.05203 18.6407 7.09255L22.6615 8.02046ZM12.7808 19.8888C12.7815 19.8594 12.7832 19.8302 12.7845 19.8006C12.7902 19.6798 12.7996 19.5592 12.8125 19.4388C12.8176 19.3912 12.8223 19.3438 12.8287 19.2965C12.8503 19.1364 12.876 18.9766 12.9111 18.8185C12.9464 18.6589 12.9887 18.5024 13.036 18.3492C13.0484 18.3087 13.0644 18.2699 13.0775 18.2299C13.1154 18.1162 13.1545 18.0027 13.199 17.8929C13.2139 17.856 13.2311 17.8207 13.2463 17.7844C13.2948 17.6713 13.3449 17.5591 13.4002 17.4504C13.4133 17.4245 13.4276 17.3991 13.4413 17.3736C13.5042 17.2542 13.5697 17.1366 13.6402 17.0229C13.6477 17.0108 13.6556 16.9989 13.6631 16.9872C14.6789 15.3791 16.4436 14.3753 18.3442 14.3753C18.7489 14.3753 19.16 14.421 19.5707 14.5157C20.0701 14.6311 20.5469 14.8135 20.9927 15.0599C20.2004 17.2645 16.8485 19.6201 12.7807 19.8888L12.7808 19.8888Z" fill="#3D3331"/>
</svg>
