<svg width="280" height="459" viewBox="0 0 280 459" fill="none" xmlns="http://www.w3.org/2000/svg">
<path d="M190.778 139.618L190.788 139.779C189.626 137.327 187.559 134.61 182.684 134.037L182.57 134.101C192.546 157.954 181.924 206.619 150.064 248.455C133.671 269.995 104.741 292.496 82.3297 310.532C82.7761 313.422 82.8992 314.37 83.0935 317.295C84.0462 332.398 80.9325 347.447 77.8227 362.267L91.4857 412.479C103.968 414.92 119.625 407.97 128.244 398.477C136.864 388.983 141.808 376.746 145.87 364.567C153.442 341.876 158.593 318.38 161.179 294.64L162.657 293.998C190.888 279.634 224.13 240.274 224.851 190.144C225.073 175.281 218.017 160.573 208.719 156.722C206.959 152.892 204.407 149.766 200.56 147.723C199.039 144.418 196.23 141.247 190.775 139.668L190.778 139.618Z" fill="#123A8F" stroke="white" stroke-width="0.46" stroke-miterlimit="10"/>
<path d="M48.7921 30.8641C42.5182 26.9543 35.9794 23.4591 29.3453 20.2183C33.1771 43.1503 29.0807 67.4085 17.9512 87.9115C9.30617 103.839 -3.7508 118.481 -5.203 136.501C-6.39955 151.264 0.773203 165.678 10.9445 176.278C21.1351 186.889 41.9886 193.755 50.0147 210.442L51.5928 210.968C55.0369 222.375 59.6808 232.283 64.6005 242.428C65.5001 244.263 66.3906 246.249 67.2945 248.345L87.2157 306.195C108.316 289.133 133.364 269.785 149.743 248.266C186.398 200.126 194.951 142.943 176.327 124.929C176.265 117.308 173.719 110.419 165.47 103.768L165.341 104.08C163.728 97.9877 160.318 92.9985 154.384 89.9298L154.372 89.9491C152.307 83.8795 148.099 78.0416 140.315 73.3104L140.312 73.8508C138.682 67.6971 134.599 62.2672 124.609 59.9762L124.602 60.256C121.508 54.495 116.992 50.1301 110.528 48.381L110.522 49.1514C106.699 42.5559 101.657 36.7781 95.1412 32.3934L95.1576 32.4544C88.6885 27.632 81.3473 24.6792 73.5144 23.919C65.0453 23.1007 56.2804 25.2074 49.0379 29.7678L48.7921 30.8641Z" fill="#A1CBD3"/>
<path d="M48.7921 30.8641C42.5182 26.9543 35.9794 23.4591 29.3453 20.2183C33.1771 43.1503 29.0807 67.4085 17.9512 87.9115C9.30617 103.839 -3.7508 118.481 -5.203 136.501C-6.39955 151.264 0.773203 165.678 10.9445 176.278C21.1351 186.889 41.9886 193.755 50.0147 210.442L51.5928 210.968C55.0369 222.375 59.6808 232.283 64.6005 242.428C65.5001 244.263 66.3906 246.249 67.2945 248.345L87.2157 306.195C108.316 289.133 133.364 269.785 149.743 248.266C186.398 200.126 194.951 142.943 176.327 124.929C176.265 117.308 173.719 110.419 165.47 103.768L165.341 104.08C163.728 97.9877 160.318 92.9985 154.384 89.9298L154.372 89.9491C152.307 83.8795 148.099 78.0416 140.315 73.3104L140.312 73.8508C138.682 67.6971 134.599 62.2672 124.609 59.9762L124.602 60.256C121.508 54.495 116.992 50.1301 110.528 48.381L110.522 49.1514C106.699 42.5559 101.657 36.7781 95.1412 32.3934L95.1576 32.4544C88.6885 27.632 81.3473 24.6792 73.5144 23.919C65.0453 23.1007 56.2804 25.2074 49.0379 29.7678L48.7921 30.8641Z" fill="#A1CBD3"/>
<path d="M2.24106 195.998C-11.3443 202.129 -21.5606 214.258 -28.2811 227.608C-33.2864 237.538 -36.8441 248.665 -39.6418 259.457C-50.4072 262.085 -86.9193 269.413 -101.895 264.732C-99.6789 309.407 -80.1625 335.031 -73.2381 345.586C-61.8084 363.027 -46.1554 377.569 -26.7897 385.227C-7.42402 392.885 13.4782 395.6 34.1426 398.281L33.4153 396.906L33.7439 397.096C34.2566 397.547 34.7278 398.026 35.2406 398.477C40.9435 405.565 48.7687 411.61 57.7817 412.691C66.9442 413.781 76.5112 411.132 83.8692 405.478C88.3663 402.014 92.1778 397.148 92.7764 391.508C93.4273 385.332 90.2314 379.615 86.7536 374.431C86.7112 370.976 84.7715 364.153 86.27 359.678C94.6517 334.647 95.6824 327.142 93.7835 318.64C92.8203 314.368 90.4448 307.81 86.8112 307.051C86.8112 307.051 75.0891 263.848 64.4055 241.806C60.5883 233.95 56.6077 225.484 53.3923 216.763L52.6052 214.553L44.2225 201.479L44.0518 200.658C32.886 192.14 15.7929 189.924 2.20759 196.056L2.24106 195.998Z" fill="#123A8F"/>
<path d="M2.24132 195.992C-11.3446 202.124 -21.5613 214.254 -28.2821 227.604C-33.2877 237.534 -36.5471 248.189 -39.3643 258.971C-46.0811 284.243 -50.6595 301.876 -52.5305 311.554C-37.5057 287.29 -13.405 288.706 2.33523 298.809C11.78 304.861 16.7495 315.009 18.977 321.869C24.9252 340.194 1.07129 363.637 34.1442 398.284L33.4169 396.909L33.7454 397.099C34.2583 397.55 34.7294 398.029 35.2422 398.48C28.2711 383.537 22.948 368.954 26.4525 353.719C31.8781 329.97 40.1421 306.573 39.9325 290.584C41.5038 267.085 20.9434 217.044 43.838 201.25C36.5705 194.238 15.7937 189.918 2.20784 196.05L2.24132 195.992Z" fill="#123A8F" stroke="white" stroke-width="0.28" stroke-linecap="round" stroke-linejoin="round"/>
<path d="M43.4278 201.476C40.5028 198.238 37.1635 195.405 33.604 192.909C30.0445 190.413 26.2566 188.224 22.558 185.88C18.8706 183.517 15.2419 181.007 12.0864 177.945C8.91968 174.902 6.08397 171.508 3.5926 167.876C-1.30985 160.604 -4.85647 152.234 -5.63562 143.398C-6.53371 134.545 -4.10169 125.682 -0.298375 117.792C3.50794 109.852 8.46264 102.602 13.0085 95.1669C15.3008 91.4605 17.4577 87.676 19.3717 83.7768C21.2469 79.8553 22.8984 75.8302 24.3343 71.7321C29.9509 55.2922 31.6016 37.4633 28.7732 20.2966C28.7221 19.9832 28.9281 19.7153 29.2218 19.6528C29.3326 19.6394 29.4516 19.6566 29.5594 19.6931C38.5329 24.1053 47.33 28.9573 55.5334 34.7047C63.7369 40.4521 71.3659 47.106 77.7083 54.8738C80.8962 58.7288 83.806 62.8873 86.0665 67.3673C88.3464 71.8584 89.9465 76.6791 90.7987 81.6352C91.6813 86.583 91.8383 91.6274 91.5581 96.6257C91.2475 101.632 90.3807 106.575 89.3563 111.479C89.331 111.567 89.267 111.633 89.1593 111.597C89.0708 111.572 89.0158 111.488 89.0411 111.4C90.0045 106.512 90.8103 101.586 91.06 96.5958C91.2985 91.6251 91.0694 86.6164 90.1421 81.7459C88.382 71.9306 83.4208 62.9743 77.0055 55.4223C70.6683 47.7348 63.0942 41.1643 54.9152 35.5085C46.7474 29.8333 37.9778 25.0229 29.0206 20.6718L29.8068 20.0683C32.7146 37.4099 31.1902 55.4667 25.4427 72.0889C23.9845 76.2257 22.2801 80.2977 20.3826 84.2579C18.427 88.1847 16.2284 91.9967 13.9057 95.7112C9.30998 103.143 4.3471 110.363 0.557934 118.184C-3.22823 125.955 -5.63709 134.599 -4.79615 143.238C-4.08533 151.879 -0.632345 160.145 4.16531 167.329C6.60987 170.909 9.40693 174.28 12.4852 177.298C15.5716 180.346 19.1281 182.892 22.7657 185.252C26.4227 187.623 30.1882 189.851 33.7336 192.416C37.2901 194.962 40.6152 197.864 43.5179 201.142C43.584 201.206 43.5781 201.305 43.5141 201.372C43.4501 201.438 43.3505 201.432 43.2844 201.368L43.4278 201.476Z" fill="white"/>
<path d="M34.6992 398.472C38.2414 402.918 42.5026 406.877 47.4863 409.629C49.9629 411.008 52.6516 412.021 55.4363 412.598C58.221 413.175 61.0967 413.238 63.9263 413.067C69.5998 412.657 75.1631 410.919 80.0481 407.989C82.485 406.533 84.8067 404.831 86.5414 402.583C88.3036 400.376 89.6273 397.813 90.47 395.101C91.3128 392.389 91.6746 389.528 91.3025 386.733C90.9417 383.918 89.8715 381.262 88.5016 378.767C87.1318 376.273 85.4815 373.952 83.8536 371.592L78.9892 364.523C72.5386 355.068 66.0768 345.631 60.0121 335.909C58.5203 333.447 56.995 331.043 55.7531 328.416C54.6442 325.737 53.8291 322.996 53.0972 320.199C51.6417 314.637 50.7847 308.93 50.3789 303.2C50.201 300.336 50.1338 297.46 50.3268 294.578C50.5422 291.659 51.1887 288.885 51.5779 286.065C52.3178 280.404 52.64 274.708 52.6937 268.986C52.7399 246.077 47.9653 223.529 43.2286 201.183L43.3824 201.453C37.9542 196.613 30.8056 193.952 23.5758 193.308C16.3266 192.653 8.92204 193.92 2.28471 196.895C-4.37195 199.859 -10.291 204.359 -15.2893 209.675C-20.2987 215.009 -24.4148 221.119 -27.7549 227.625C-34.4494 240.706 -38.0716 255.073 -41.5689 269.357C-45.0194 283.694 -49.0007 297.879 -51.9368 312.307L-53.1091 312.016C-51.9797 308.36 -49.6625 305.236 -46.9768 302.635C-44.2718 300.044 -41.1647 297.919 -37.863 296.215C-31.2546 292.888 -23.8326 290.83 -16.3365 291.37C-1.41311 292.926 11.8316 303.29 17.7816 316.92C19.2745 320.362 20.0104 324.09 20.107 327.809C20.2228 331.54 19.7603 335.246 19.1432 338.862C17.909 346.095 16.0079 353.278 16.2212 360.548C16.534 367.824 18.9599 374.876 22.5265 381.246C26.0017 387.64 29.9504 393.973 35.3786 398.813L34.7427 399.245C31.834 391.243 29.164 383.095 27.4472 374.724C26.6193 370.531 26.0241 366.291 25.8111 362.014C25.6783 357.732 25.9775 353.416 26.7993 349.221C27.6018 345.015 28.8771 340.927 30.191 336.862C31.4938 332.817 32.7579 328.748 33.9031 324.663C36.1852 316.462 37.9946 308.142 39.0019 299.695C40.0285 291.258 40.1808 282.729 39.461 274.238C38.7717 265.738 36.9716 257.422 35.0912 249.112C34.1912 244.954 33.3744 240.741 32.9703 236.483C32.5662 232.224 32.6245 227.924 33.1891 223.683C33.7425 219.462 34.7056 215.246 36.2738 211.276C37.8307 207.326 40.1014 203.478 43.5759 200.894C43.6592 200.839 43.7476 200.864 43.8138 200.928C43.8799 200.992 43.8434 201.1 43.7795 201.166C40.3883 203.696 38.1206 207.493 36.6053 211.416C35.029 215.356 34.1075 219.544 33.5653 223.746C32.3476 232.201 33.6651 240.728 35.5068 249.017C37.3984 257.308 39.2453 265.677 39.9539 274.187C40.693 282.69 40.5682 291.26 39.5579 299.758C38.5588 308.236 36.7658 316.617 34.503 324.829C33.366 328.945 32.1019 333.013 30.8184 337.07C29.535 341.127 28.2709 345.195 27.4714 349.351C26.6719 353.507 26.3675 357.743 26.5226 361.987C26.7386 366.214 27.3256 370.423 28.1759 374.578C29.8957 382.899 32.5687 390.997 35.4885 398.979C35.5762 399.185 35.4727 399.409 35.2675 399.497C35.1344 399.549 34.9768 399.509 34.872 399.423C29.3116 394.455 25.3354 388.08 21.8022 381.653C18.2081 375.241 15.6916 368.033 15.3491 360.586C15.1284 353.105 17.0214 345.892 18.2333 338.697C19.5225 331.548 19.867 323.981 16.8886 317.306C11.0863 304.046 -1.96295 293.924 -16.4024 292.467C-23.5996 291.946 -30.8499 293.973 -37.2948 297.24C-40.5131 298.889 -43.5175 300.97 -46.117 303.467C-48.6859 305.955 -50.8752 308.947 -51.9286 312.337C-52.0269 312.642 -52.3682 312.831 -52.6722 312.733C-52.9762 312.635 -53.1382 312.335 -53.0897 312.027C-50.17 297.538 -46.2772 283.328 -42.7687 269.025C-39.2521 254.752 -35.574 240.288 -28.771 227.063C-25.3669 220.491 -21.1645 214.277 -16.0718 208.887C-10.9791 203.497 -4.9351 198.915 1.88514 195.891C8.69422 192.886 16.2706 191.589 23.6885 192.264C31.087 192.928 38.429 195.7 44.028 200.691C44.1246 200.747 44.1684 200.849 44.1818 200.96C48.8575 223.322 53.5875 245.947 53.5048 268.964C53.44 274.706 53.0955 280.441 52.3333 286.141C51.9328 288.979 51.3027 291.814 51.0851 294.604C50.8951 297.435 50.9541 300.282 51.1321 303.145C51.5103 308.833 52.3591 314.509 53.7872 320.03C54.4916 322.785 55.3149 325.557 56.3799 328.133C57.5862 330.688 59.0892 333.131 60.5728 335.562C66.5988 345.262 73.0383 354.737 79.489 364.193L84.3422 371.281C85.9508 373.629 87.6092 375.981 89.0065 378.517C90.3957 381.023 91.4904 383.771 91.8565 386.666C92.2337 389.541 91.8659 392.502 91.0008 395.253C90.1358 398.004 88.7786 400.625 86.9636 402.878C85.1761 405.173 82.7822 406.911 80.3341 408.386C75.4075 411.344 69.7528 413.106 64.0213 413.483C61.1419 413.651 58.258 413.558 55.4235 412.978C52.6001 412.378 49.8921 411.355 47.3769 409.952C42.3464 407.148 38.077 403.159 34.5073 398.67C34.4412 398.606 34.4583 398.487 34.5305 398.452C34.5944 398.385 34.7133 398.402 34.749 398.475L34.6992 398.472Z" fill="white"/>
<path d="M33.7567 398.766C16.3015 396.598 -1.30614 394.47 -18.1712 389.135C-22.3806 387.811 -26.5506 386.33 -30.6029 384.556C-34.6441 382.762 -38.5261 380.647 -42.263 378.281C-49.7368 373.549 -56.4525 367.681 -62.429 361.157C-65.4229 357.905 -68.1944 354.446 -70.7881 350.857C-73.3707 347.249 -75.7592 343.572 -78.228 339.901C-83.1047 332.542 -87.4177 324.787 -90.8986 316.661C-97.9519 300.433 -101.656 282.866 -102.566 265.235L-102.584 264.864L-102.23 264.965C-97.1881 266.409 -91.8549 266.498 -86.59 266.394C-81.3139 266.27 -76.0525 265.725 -70.835 265.077C-60.3582 263.754 -49.9562 261.845 -39.6656 259.46C-49.9236 261.967 -60.3122 263.986 -70.7868 265.44C-76.0185 266.157 -81.2881 266.672 -86.5865 266.834C-91.8625 266.958 -97.2374 266.896 -102.379 265.447L-102.043 265.177C-101.068 282.741 -97.3088 300.212 -90.2302 316.351C-86.7574 324.446 -82.3774 332.085 -77.5617 339.461C-75.1123 343.121 -72.7267 346.847 -70.1716 350.413C-67.6165 353.98 -64.8644 357.428 -61.9204 360.677C-56.0018 367.168 -49.3663 373.041 -41.9617 377.759C-38.2553 380.133 -34.3926 382.236 -30.3931 384.058C-26.3824 385.86 -22.2318 387.33 -18.0528 388.662C-1.25688 393.983 16.2942 396.387 33.7374 398.755L33.7567 398.766Z" fill="white"/>
<path d="M-101.985 265.578C-91.9686 278.409 -79.729 289.171 -67.4417 299.806C-55.1626 310.411 -42.7765 321.232 -32.8973 334.345C-27.9923 340.895 -23.7291 347.976 -20.4502 355.469C-18.7346 359.195 -17.3796 363.099 -16.0795 366.92C-14.801 370.6 -12.2109 373.748 -9.29504 376.465C-3.38302 381.894 3.77554 385.876 11.0413 389.404C18.3376 392.925 25.9077 395.881 33.6206 398.455C33.7284 398.492 33.7916 398.605 33.7439 398.733C33.7075 398.841 33.5937 398.904 33.4859 398.867C25.7112 396.489 18.0295 393.727 10.583 390.378C3.2116 386.943 -4.0912 383.032 -10.2686 377.527C-13.3115 374.763 -16.1142 371.492 -17.5405 367.443C-18.8792 363.6 -20.2209 359.806 -21.9202 356.141C-25.1857 348.759 -29.4275 341.819 -34.2693 335.384C-43.9248 322.375 -56.2365 311.648 -68.3847 300.861C-74.4685 295.462 -80.5299 290.024 -86.3021 284.263C-92.0631 278.483 -97.4737 272.364 -102.34 265.837C-102.414 265.742 -102.386 265.604 -102.292 265.529C-102.197 265.455 -102.059 265.483 -101.985 265.578Z" fill="white"/>
<path d="M89.959 308.49C103.226 295.541 118.905 285.56 133.526 274.374C148.114 263.246 162.303 250.933 171.736 235.071C176.574 227.262 180.593 218.954 183.918 210.374C187.244 201.794 189.895 192.953 191.677 183.92C193.448 174.907 194.393 165.673 193.803 156.508C193.509 151.926 192.732 147.374 191.254 143.011C190.525 140.835 189.768 138.617 188.27 136.926C186.794 135.195 184.569 134.271 182.337 133.987C182.237 133.981 182.182 133.897 182.188 133.798C182.194 133.698 182.277 133.643 182.377 133.649C184.671 133.917 187.025 134.839 188.587 136.644C190.201 138.403 190.974 140.682 191.734 142.849C193.311 147.219 194.165 151.815 194.557 156.453C195.29 165.727 194.331 175.03 192.626 184.108C190.879 193.213 188.283 202.137 184.993 210.789C181.685 219.43 177.71 227.841 172.854 235.769C168.009 243.677 162.015 250.896 155.35 257.313C148.713 263.772 141.494 269.586 134.11 275.15C126.726 280.713 119.15 285.985 111.714 291.415C104.239 296.823 96.8858 302.379 90.1849 308.724C90.1209 308.79 90.0213 308.784 89.9551 308.72C89.889 308.656 89.895 308.556 89.959 308.49Z" fill="white"/>
<path d="M86.6028 374.289C88.7669 370.225 91.5434 366.617 94.2345 362.934C96.9449 359.263 99.8375 355.722 102.882 352.321C108.981 345.499 115.758 339.379 122.458 333.213C129.225 327.112 135.867 320.913 142.159 314.383C148.481 307.845 154.415 300.953 160.053 293.814C160.098 293.736 160.209 293.723 160.275 293.787C160.352 293.831 160.366 293.942 160.302 294.009C154.939 301.385 149.165 308.447 142.925 315.11C136.704 321.785 130.021 328.011 123.301 334.165C116.535 340.266 109.819 346.37 103.64 353.017C100.56 356.346 97.6318 359.814 94.8359 363.411C92.0511 366.988 89.1281 370.536 86.8927 374.457C86.8927 374.457 86.7566 374.559 86.6793 374.514C86.602 374.469 86.5775 374.378 86.6222 374.3L86.6028 374.289Z" fill="white"/>
<path d="M92.2334 412.585C98.427 413.687 104.784 412.407 110.498 410.006C116.223 407.587 121.493 404.079 125.877 399.697C134.641 390.802 139.824 379.09 143.87 367.34C147.968 355.542 151.392 343.484 154.213 331.31C157.015 319.125 159.225 306.804 160.802 294.375C159.662 306.85 157.737 319.258 155.082 331.502C152.426 343.747 149.01 355.835 144.948 367.705C140.791 379.468 135.557 391.358 126.491 400.284C121.928 404.665 116.569 408.148 110.72 410.47C104.874 412.742 98.418 413.837 92.2557 412.546L92.2334 412.585Z" fill="white"/>
<path d="M45.5988 204.95C43.9074 201.315 42.6458 197.516 41.6393 193.631C40.6826 189.75 40.0612 185.779 39.6004 181.797C38.8202 173.813 38.843 165.776 39.4716 157.806C40.5825 141.806 44.5095 126.196 47.3905 110.523C50.3681 94.9057 52.5503 78.8805 50.4411 63.0582C49.4139 55.1888 47.3623 47.398 43.943 40.236C42.2182 36.659 40.2159 33.2056 37.7861 30.0468C35.3451 26.9074 32.5567 24.0574 29.4679 21.5498C29.4099 21.5163 29.3965 21.4054 29.4493 21.3585C29.4828 21.3005 29.5936 21.2871 29.6404 21.3399C32.7903 23.8312 35.6507 26.6455 38.1721 29.7797C40.674 32.9028 42.7648 36.3815 44.5699 39.9533C48.0746 47.1905 50.2036 55.026 51.2664 62.9676C53.4774 78.9261 51.4274 95.0794 48.458 110.727C45.4663 126.414 41.4538 141.949 40.2879 157.865C39.6206 165.813 39.5816 173.788 40.2845 181.728C40.6873 185.676 41.2395 189.633 42.1464 193.512C43.0837 197.382 44.2844 201.197 45.9066 204.818C45.9423 204.891 45.8976 204.968 45.8559 204.995C45.7838 205.031 45.7065 204.986 45.6902 204.925L45.5988 204.95Z" fill="white"/>
<path d="M-13.5697 383.519C-18.416 379.816 -22.9558 375.67 -27.0062 371.033C-31.0485 366.426 -34.5932 361.359 -37.5275 355.948C-40.4007 350.521 -42.6523 344.731 -44.1032 338.758C-45.554 332.786 -46.2153 326.651 -46.157 320.519C-46.1621 320.438 -46.0677 320.364 -45.9874 320.359C-45.9071 320.354 -45.8328 320.448 -45.8165 320.509C-45.2462 332.654 -42.1899 344.689 -36.4009 355.335C-33.5826 360.679 -30.104 365.682 -26.2142 370.33C-22.3243 374.977 -18.0039 379.28 -13.383 383.24C-13.3057 383.285 -13.3035 383.415 -13.3563 383.462C-13.4009 383.54 -13.5005 383.534 -13.5778 383.489L-13.5697 383.519Z" fill="white"/>
<path d="M-2.20124 388.284C-6.77424 385.357 -11.0348 381.889 -14.8171 377.948C-18.6106 374.028 -21.9258 369.635 -24.7637 364.951C-27.5294 360.231 -29.8177 355.219 -31.4548 350.016C-33.1111 344.802 -34.1162 339.397 -34.4596 333.962C-34.4647 333.881 -34.3896 333.796 -34.3093 333.79C-34.229 333.785 -34.1629 333.849 -34.1384 333.941C-33.421 339.309 -32.1885 344.587 -30.4458 349.696C-28.6921 354.786 -26.4587 359.714 -23.6565 364.326C-20.9457 368.963 -17.6661 373.283 -14.0362 377.265C-10.3952 381.226 -6.35402 384.852 -1.99823 388.066C-1.92093 388.111 -1.90757 388.221 -1.97153 388.288C-2.01617 388.365 -2.12695 388.378 -2.19308 388.314L-2.20124 388.284Z" fill="white"/>
<path d="M-27.6193 293.688C-26.2682 292.998 -24.7264 292.961 -23.2819 293.047C-21.8293 293.164 -20.3969 293.451 -18.9898 293.825C-16.1755 294.575 -13.4818 295.667 -10.8692 296.945C-5.68864 299.578 -0.860032 302.91 3.27016 307.051C7.38401 311.132 10.687 316.394 11.6875 322.21C12.8931 327.937 13.0712 333.793 12.9536 339.581C12.7861 345.367 12.3695 351.137 12.144 356.889C11.9186 362.64 11.9421 368.407 12.9932 374.045C13.8725 379.713 16.6611 384.885 20.5058 389.119C24.3006 393.351 29.0645 396.929 34.635 398.394C34.7235 398.42 34.7897 398.484 34.7532 398.592C34.7279 398.68 34.6446 398.735 34.5561 398.71C28.8576 397.377 23.8997 393.867 19.9249 389.635C15.9502 385.403 13.0353 380.003 12.0735 374.21C10.9482 368.478 10.8696 362.627 11.0564 356.853C11.2433 351.079 11.61 345.306 11.7358 339.548C11.8505 333.81 11.7771 328.04 10.6235 322.446C9.68324 316.795 6.61428 311.796 2.61936 307.733C-1.35323 303.631 -6.10154 300.293 -11.1713 297.647C-13.7118 296.334 -16.3415 295.175 -19.0918 294.36C-20.4573 293.957 -21.8563 293.613 -23.2672 293.468C-24.6782 293.324 -26.1398 293.356 -27.4046 293.941C-27.4046 293.941 -27.5845 293.94 -27.6202 293.868C-27.6558 293.796 -27.6193 293.688 -27.5472 293.652L-27.6193 293.688Z" fill="white"/>
<path d="M-46.9274 303.584C-41.8271 302.558 -36.5154 302.507 -31.3632 303.446C-26.2028 304.416 -21.2711 306.364 -16.7492 308.977C-12.2081 311.602 -8.07682 314.892 -4.53238 318.798C-0.923984 322.638 1.55326 327.501 3.09149 332.517C4.6074 337.573 5.22296 342.805 5.48987 348.015C5.80658 353.229 5.56423 358.429 5.99472 363.58C6.40587 368.719 7.04375 373.912 8.06159 378.937C9.11291 383.905 11.3626 388.894 15.5668 391.969C15.6441 392.013 15.6574 392.124 15.5935 392.191C15.5488 392.268 15.438 392.281 15.3719 392.217C10.9736 389.211 8.48909 384.138 7.27203 379.1C6.16057 373.969 5.50852 368.845 5.0119 363.631C4.51528 358.416 4.70783 353.213 4.33831 348.046C4.0186 342.882 3.33607 337.767 1.84166 332.853C-0.764211 322.808 -8.48424 315.018 -17.2566 309.767C-26.0482 304.506 -36.6795 302.076 -46.9037 303.855C-46.9952 303.88 -47.0806 303.805 -47.097 303.744C-47.1215 303.652 -47.0463 303.566 -46.9854 303.55L-46.9274 303.584Z" fill="white"/>
<path d="M-53.0745 313.706C-48.7437 312.675 -44.2583 311.733 -39.7601 312.243C-35.2835 312.612 -30.8191 313.85 -26.8852 316.098C-18.8783 320.442 -12.9527 327.814 -8.82047 335.748C-6.78225 339.764 -5.16861 344.025 -4.21446 348.446C-3.25732 352.817 -2.47192 357.218 -1.68651 361.619C-0.112708 370.371 1.77927 379.152 5.78957 387.12C5.82522 387.192 5.78874 387.3 5.71661 387.336C5.64448 387.371 5.53672 387.335 5.50106 387.263C3.3684 383.321 1.6685 379.166 0.387201 374.865C-0.894106 370.564 -1.85125 366.193 -2.71694 361.797C-3.61312 357.41 -4.37923 353.02 -5.36985 348.707C-6.32183 344.416 -7.92209 340.266 -9.95514 336.331C-13.9439 328.505 -19.7128 321.353 -27.3903 317.019C-34.995 312.469 -44.3974 311.885 -52.9929 314.011C-53.0843 314.036 -53.1616 313.991 -53.1861 313.9C-53.2106 313.808 -53.166 313.731 -53.0745 313.706Z" fill="white"/>
<path d="M1.52341 385.223C-4.56363 381.705 -8.34044 375.343 -10.7025 368.895C-13.0779 362.337 -13.7522 355.421 -15.283 348.783C-16.0429 345.455 -16.8748 342.162 -18.3224 339.132C-19.7894 336.092 -21.7419 333.312 -24.0975 330.919C-28.7976 326.113 -35.4521 323.221 -42.3034 323.441C-42.3837 323.446 -42.4692 323.371 -42.4744 323.291C-42.4796 323.21 -42.4044 323.125 -42.3241 323.119C-38.8991 322.854 -35.3666 323.297 -32.0924 324.544C-28.8376 325.78 -25.835 327.722 -23.3218 330.155C-20.8198 332.607 -18.7737 335.492 -17.2324 338.627C-15.7023 341.782 -14.796 345.169 -14.0585 348.536C-12.614 355.279 -11.9062 362.137 -9.74336 368.573C-8.66753 371.8 -7.20358 374.891 -5.36484 377.733C-3.52611 380.576 -1.20182 383.158 1.67963 384.952C1.75693 384.997 1.78144 385.088 1.73681 385.166C1.69217 385.243 1.60071 385.267 1.52341 385.223Z" fill="white"/>
<path d="M-42.723 299.528C-39.8739 287.886 -37.6554 276.086 -34.6762 264.443C-33.1963 258.615 -31.4399 252.844 -29.2522 247.219C-27.0065 241.628 -24.3601 236.191 -21.2112 231.044C-18.0817 225.886 -14.4883 220.996 -10.2965 216.633C-8.24337 214.413 -5.94498 212.439 -3.59159 210.548C-1.17204 208.721 1.37681 207.072 4.06013 205.681C9.46242 202.972 15.4718 201.311 21.5317 201.304C24.5602 201.325 27.59 201.657 30.4902 202.482C33.3905 203.306 36.2616 204.45 38.6252 206.383C38.7025 206.428 38.7159 206.539 38.6519 206.605C38.6073 206.683 38.4772 206.685 38.4303 206.632C36.08 204.809 33.2334 203.758 30.3688 203.005C27.493 202.272 24.4989 202.012 21.5559 202.066C15.6201 202.17 9.76321 203.791 4.51036 206.509C1.88803 207.884 -0.591686 209.547 -2.95842 211.327C-5.25083 213.202 -7.48826 215.16 -9.5109 217.371C-13.6 221.69 -17.102 226.555 -20.1594 231.678C-23.1782 236.822 -25.9182 242.154 -28.169 247.665C-30.3812 253.198 -32.1845 258.916 -33.7224 264.71C-35.2603 270.504 -36.5907 276.34 -37.9517 282.185C-39.3513 288.007 -40.8119 293.846 -42.3996 299.637C-42.4249 299.726 -42.5082 299.781 -42.5967 299.755C-42.6851 299.73 -42.7401 299.647 -42.7148 299.558L-42.723 299.528Z" fill="white"/>
<path d="M-32.0126 294.312C-28.2938 267.357 -24.9729 249.356 -5.94924 226.963C8.68527 209.721 28.5957 209.024 35.3857 214.676" stroke="white" stroke-width="0.37" stroke-miterlimit="10"/>
<path d="M-1.7877 242.445C-0.297911 239.281 1.53458 236.238 3.96016 233.641C6.34709 231.021 9.3516 228.939 12.671 227.607C16.0068 226.336 19.6077 225.811 23.1199 225.932C26.6513 226.063 30.1082 226.771 33.4475 227.772C33.5248 227.817 33.5798 227.9 33.5656 227.97C33.521 228.047 33.4682 228.094 33.3685 228.088C29.9585 227.433 26.5171 226.966 23.1068 226.982C19.6964 226.997 16.2673 227.492 13.1308 228.776C9.96977 229.967 7.1318 231.939 4.72636 234.368C2.30159 236.785 0.293027 239.597 -1.48664 242.593C-1.53129 242.671 -1.62275 242.695 -1.70005 242.651C-1.77736 242.606 -1.80184 242.514 -1.7572 242.437L-1.7877 242.445Z" fill="white"/>
<path d="M7.45289 303.961C8.9191 300.526 10.4931 297.126 12.3875 293.887C14.2626 290.636 16.516 287.577 19.208 284.876C21.955 282.258 25.1843 280.099 28.7806 278.823C32.3463 277.556 36.3288 277.174 39.9226 278.27C36.2267 277.708 32.4976 278.365 29.1445 279.756C25.7802 281.166 22.687 283.223 20.1118 285.811C17.4511 288.324 15.2616 291.316 13.2461 294.409C11.2305 297.501 9.40526 300.755 7.48336 303.953L7.45289 303.961Z" fill="white"/>
<path d="M14.3486 311.302C15.8309 309.759 17.531 308.42 19.4509 307.414C21.3709 306.408 23.4773 305.794 25.6594 305.584C27.8191 305.414 30.0047 305.645 32.0779 306.25C34.1623 306.835 36.1067 307.752 37.9425 308.813C38.0005 308.847 38.0168 308.908 37.9833 308.966C37.961 309.005 37.8889 309.04 37.8502 309.018C34.0134 307.317 29.8812 306.038 25.7467 306.46C21.599 306.772 17.759 308.784 14.5277 311.483C14.4942 311.541 14.4057 311.515 14.3782 311.474C14.3396 311.451 14.3344 311.371 14.3872 311.324L14.3486 311.302Z" fill="white"/>
<path d="M19.3187 326.715C19.9818 325.163 20.8991 323.707 22.0647 322.445C23.2302 321.184 24.6522 320.148 26.225 319.432C27.8252 318.757 29.5651 318.421 31.281 318.484C33.0081 318.527 34.6726 318.947 36.2366 319.542C36.2946 319.575 36.3221 319.617 36.3079 319.686C36.2856 319.725 36.2328 319.772 36.1748 319.738C32.9507 318.984 29.5412 318.82 26.5592 320.192C23.564 321.454 21.244 323.958 19.4956 326.766C19.4621 326.824 19.4012 326.84 19.3432 326.806C19.3045 326.784 19.2882 326.723 19.2912 326.673L19.3187 326.715Z" fill="white"/>
<path d="M17.702 342.915C18.6174 340.657 20.7645 339.034 23.0792 338.282C25.4103 337.591 28.103 337.703 30.1314 339.056C27.8537 338.359 25.5036 338.368 23.3413 339.079C21.1434 339.718 19.2135 341.053 17.7132 342.895L17.702 342.915Z" fill="white"/>
<path d="M16.4049 355.661C17.4665 354.134 19.2422 353.199 21.0572 352.777C22.8966 352.447 24.9053 352.628 26.4535 353.652C24.6642 353.314 22.9097 353.229 21.2278 353.598C19.5103 353.896 17.9458 354.643 16.4161 355.642L16.4049 355.661Z" fill="white"/>
<path d="M41.2596 191.296C34.2887 187.835 27.8735 183.275 22.2067 177.911C16.5815 172.518 11.6771 166.278 8.17978 159.251C4.7099 152.266 2.78915 144.293 3.73301 136.402C4.56609 128.524 7.62791 121.16 11.1253 114.202C12.8739 110.724 14.7304 107.282 16.5839 103.889C18.4374 100.497 20.1667 97.007 22.012 93.5842C25.664 86.7161 29.4319 79.9151 32.009 72.6322C33.3265 69.0075 34.4009 65.2682 35.2872 61.4975C36.1736 57.7268 36.8525 53.9137 36.9642 50.0565C37.0647 46.2187 36.6173 42.3479 35.3772 38.6899C34.1677 35.0238 32.3454 31.5711 30.2092 28.3498C30.1542 28.2665 30.1795 28.1779 30.2628 28.1229C30.3461 28.0678 30.4345 28.0931 30.4895 28.1765C32.7171 31.3732 34.6198 34.8207 35.9178 38.5122C37.2464 42.1955 37.8179 46.1637 37.7724 50.0849C37.7157 54.0255 37.0226 57.9079 36.1749 61.7009C35.2967 65.5021 34.2609 69.2638 32.9597 72.9495C30.4153 80.3545 26.6526 87.2359 23.0698 94.1181C21.2743 97.5439 19.5643 101.045 17.7078 104.487C15.8818 107.921 13.9978 111.322 12.241 114.77C8.73848 121.647 5.68561 128.861 4.8147 136.537C3.836 144.176 5.66913 151.943 9.02305 158.861C12.3851 165.81 17.2346 171.967 22.7073 177.4C28.2217 182.806 34.52 187.478 41.4047 191.044C41.482 191.089 41.5065 191.18 41.4812 191.269C41.4366 191.346 41.3451 191.371 41.2567 191.346L41.2596 191.296Z" fill="white"/>
<path d="M39.9938 183.263C33.3321 179.98 27.9396 174.542 23.8404 168.38C19.7412 162.218 16.8914 155.23 15.3688 147.952C14.638 144.304 14.2314 140.586 14.4449 136.865C14.6279 133.152 15.2785 129.478 16.1752 125.868C17.9879 118.659 20.8399 111.793 23.9015 105.1C29.8395 91.6323 38.0738 79.0531 40.6673 64.5039C42.1863 57.3578 42.1649 49.889 40.3813 42.795C38.6862 35.7263 35.1017 28.9847 29.5656 24.108C29.4883 24.0633 29.5054 23.9442 29.55 23.8668C29.5947 23.7894 29.7136 23.8066 29.7716 23.8401C35.4632 28.626 39.2551 35.41 41.1354 42.5599C42.9933 49.7484 43.0748 57.381 41.5884 64.6493C40.2515 71.9265 37.7474 78.9935 34.5669 85.6696L24.9927 105.576C21.8843 112.216 18.9967 119.01 17.1818 126.088C16.2799 129.618 15.613 133.232 15.3944 136.872C15.1564 140.501 15.5466 144.159 16.2418 147.734C17.6707 154.907 20.5183 161.764 24.4264 167.945C28.3569 174.086 33.5776 179.555 40.1144 182.92C40.1918 182.964 40.2162 183.056 40.1909 183.145C40.1463 183.222 40.0548 183.247 39.9663 183.221L39.9938 183.263Z" fill="white"/>
<path d="M39.293 170.268C34.7284 167.191 30.6325 163.302 27.8115 158.498C25.0097 153.705 23.676 148.109 23.5988 142.569C23.5022 137.017 24.6124 131.518 26.0511 126.209C27.5203 120.892 29.3627 115.687 31.2825 110.526L37.0884 95.0985C38.9777 89.9464 40.5435 84.6848 42.1978 79.4486C43.8714 74.2235 45.3488 68.9365 46.2924 63.5475C47.2746 58.1809 47.7067 52.6511 47.0034 47.2133C46.9983 47.1329 47.0318 47.0748 47.1121 47.0697C47.1924 47.0645 47.2504 47.098 47.2555 47.1784C48.0971 52.6444 47.7921 58.2219 46.9147 63.6749C46.0179 69.1168 44.5376 74.4536 42.9219 79.7122C41.3062 84.9708 39.7984 90.2659 37.9671 95.4515C36.1552 100.648 34.0891 105.75 32.15 110.899C30.1916 116.037 28.3522 121.192 26.8362 126.456C25.37 131.724 24.2353 137.132 24.288 142.58C24.3214 148.018 25.6447 153.453 28.2777 158.226C30.9412 162.99 34.904 166.932 39.3853 170.063C39.4433 170.097 39.4678 170.188 39.4343 170.246C39.4008 170.305 39.3093 170.329 39.2514 170.296L39.293 170.268Z" fill="white"/>
<path d="M57.8465 331.332C58.7735 335.041 59.1518 338.898 59.1814 342.733C59.2059 344.657 59.1002 346.582 58.9143 348.513C58.7588 350.435 58.274 352.348 58.0636 354.187C57.8257 355.985 57.9935 358.017 59.4615 359.046C60.8796 360.072 62.9578 359.596 64.3716 358.53C65.885 357.469 66.4887 355.574 66.9371 353.769C67.4077 351.925 67.6821 350.02 67.8651 348.139C67.8204 350.048 67.6954 351.963 67.3407 353.873C66.9504 355.712 66.4261 357.782 64.7594 359.064C63.2452 360.304 60.848 360.931 59.0129 359.69C58.1299 359.076 57.5586 358.101 57.3389 357.097C57.1 356.082 57.1405 355.073 57.2279 354.117C57.486 352.151 57.9842 350.349 58.1478 348.457C58.3805 346.579 58.475 344.673 58.539 342.775C58.6172 338.976 58.4768 335.154 57.8547 331.363L57.8465 331.332Z" fill="white"/>
<path d="M72.1722 353.984C72.0037 356.956 71.7437 359.954 70.7232 362.795C69.6752 365.595 67.5017 368.157 64.5438 369.131C61.594 370.135 58.297 369.597 55.6606 368.048C52.9743 366.495 51.0707 363.899 49.8987 361.106C47.5636 355.37 48.3618 349.072 49.5285 343.296C50.1342 340.369 50.928 337.474 51.8763 334.668C52.8552 331.854 53.9998 329.11 55.1749 326.358C53.0901 331.938 51.2015 337.581 50.1813 343.415C49.1253 349.178 48.4052 355.341 50.6891 360.763C51.7786 363.431 53.5805 365.891 56.0512 367.37C58.5025 368.839 61.5921 369.334 64.3418 368.498C67.1027 367.643 69.2419 365.319 70.3337 362.622C71.4865 359.908 71.8766 356.909 72.1834 353.964L72.1722 353.984Z" fill="white"/>
<path d="M75.504 359.289C75.9721 363.481 74.3971 367.731 71.7609 371.006C69.1164 374.251 65.3237 376.806 61.0529 377.331C56.8067 377.947 52.4111 376.722 48.932 374.221C45.4142 371.698 43.2487 367.634 42.5093 363.466C41.7728 359.247 42.2296 354.971 42.957 350.85C43.7454 346.713 44.8073 342.683 45.7919 338.608C47.7804 330.469 49.8269 322.364 51.9232 314.262C50.1421 322.443 48.3223 330.602 46.4334 338.747C45.5484 342.828 44.4449 346.885 43.7287 350.987C43.0236 355.068 42.6114 359.268 43.3487 363.306C44.0362 367.341 46.0754 371.177 49.3888 373.608C52.6828 376.028 56.8821 377.191 60.9506 376.704C65.0466 376.259 68.7583 373.889 71.416 370.755C74.1124 367.644 75.8308 363.503 75.4928 359.308L75.504 359.289Z" fill="white"/>
<path d="M79.7504 364.659C79.6039 370.095 77.4069 375.379 73.9554 379.576C72.2104 381.664 70.1011 383.489 67.7118 384.817C65.3224 386.145 62.598 386.893 59.8404 387.028C54.3334 387.328 48.8452 385.317 44.6483 381.782C40.3376 378.31 37.7905 372.942 37.1869 367.511C36.5253 362.046 37.2309 356.623 37.9112 351.288C38.6525 345.938 39.6012 340.629 40.7878 335.355C41.9744 330.081 43.3766 324.88 44.975 319.741C46.6232 314.604 48.4677 309.53 50.5359 304.559C50.5694 304.501 50.6415 304.465 50.7107 304.479C50.7686 304.513 50.8043 304.585 50.7901 304.654C46.9466 314.714 43.8962 325.051 41.587 335.533C40.442 340.78 39.5431 346.091 38.8547 351.395C38.216 356.702 37.5825 362.089 38.2754 367.366C38.83 372.614 41.1959 377.671 45.3021 381.051C49.2864 384.463 54.5754 386.462 59.8497 386.207C65.1648 386.106 70.0998 383.179 73.4924 379.128C76.9431 375.111 79.25 369.994 79.5125 364.625C79.5074 364.544 79.5907 364.489 79.6405 364.492C79.7208 364.487 79.7758 364.57 79.7728 364.62L79.7504 364.659Z" fill="white"/>
<path d="M83.5486 370.542C83.326 378.076 78.8956 385.088 72.7698 389.365C69.7287 391.555 66.1899 393.044 62.513 393.834C58.8116 394.533 55.0057 394.475 51.308 393.783C47.6213 393.071 44.0265 391.664 40.9918 389.42C37.9154 387.204 35.4878 384.175 33.8119 380.781C30.5353 373.908 30.1334 366.116 30.8369 358.731C31.1225 354.975 32.1188 351.371 32.8772 347.733L35.2796 336.866C36.8849 329.615 38.5095 322.375 40.253 315.152C41.9966 307.929 43.8673 300.754 45.9454 293.622C48.0621 286.511 50.3863 279.444 52.9342 272.479C52.9676 272.421 53.0398 272.386 53.1089 272.4C53.1669 272.433 53.2025 272.506 53.1884 272.575C48.3468 286.599 44.4672 300.92 41.041 315.349C39.3473 322.575 37.7532 329.807 36.1977 337.061L33.8645 347.942C33.1173 351.561 32.1707 355.168 31.8911 358.824C31.1438 366.107 31.516 373.727 34.647 380.361C36.2404 383.63 38.544 386.561 41.485 388.699C44.4037 390.876 47.8797 392.266 51.4474 392.96C55.0344 393.666 58.7599 393.729 62.3586 393.074C65.9217 392.347 69.3967 390.924 72.3737 388.8C78.4073 384.728 82.8837 377.949 83.2497 370.524C83.2445 370.444 83.3278 370.389 83.3969 370.403C83.4772 370.397 83.5322 370.481 83.5293 370.531L83.5486 370.542Z" fill="white"/>
<path d="M87.1061 376.062C86.5437 382.265 83.8565 388.219 79.8599 393.004C75.8633 397.79 70.4486 401.549 64.3271 403.093C58.1892 404.577 51.6516 403.894 45.8804 401.436C40.1286 398.989 35.1047 394.744 32.0291 389.354C35.3739 394.59 40.4656 398.539 46.1461 400.841C51.8184 403.114 58.2067 403.787 64.1259 402.28C70.0616 400.835 75.3483 397.208 79.3746 392.595C83.3815 387.971 86.256 382.227 87.1255 376.074L87.1061 376.062Z" fill="white"/>
<path d="M38.8737 269.145C38.6748 264.798 39.6002 260.379 41.5672 256.433C42.5837 254.491 43.8851 252.637 45.5335 251.165C47.1819 249.692 49.2161 248.622 51.3608 248.21C51.4217 248.194 51.4797 248.228 51.4961 248.289C51.5124 248.35 51.4789 248.408 51.4291 248.405C47.3009 249.709 44.2017 253.027 42.3351 256.799C41.3521 258.682 40.6508 260.702 40.1264 262.773C39.602 264.844 39.2546 266.965 39.1146 269.129C39.1116 269.179 39.0588 269.226 38.9978 269.243C38.948 269.24 38.9012 269.187 38.9042 269.137L38.8737 269.145Z" fill="white"/>
<path d="M36.5564 255.342C35.9151 250.869 37.0578 246.162 39.5281 242.326C42.0371 238.513 45.8737 235.569 50.2368 234.349C50.2978 234.333 50.3558 234.367 50.3721 234.428C50.3884 234.489 50.3549 234.547 50.3051 234.544C46.214 236.23 42.6131 239.078 40.2514 242.77C37.8318 246.429 36.6654 250.864 36.7892 255.296C36.7862 255.346 36.7334 255.393 36.6724 255.409C36.6226 255.406 36.5758 255.353 36.5676 255.323L36.5564 255.342Z" fill="white"/>
<path d="M33.501 238.171C33.988 236.388 34.4059 234.591 34.9926 232.814C35.5986 231.049 36.3541 229.292 37.4961 227.759C38.6686 226.218 40.238 225.061 41.9277 224.231C43.6174 223.401 45.4802 222.852 47.3518 222.824C47.4016 222.827 47.4484 222.88 47.4647 222.941C47.4617 222.991 47.4089 223.038 47.3784 223.046C45.5722 223.318 43.8417 223.995 42.2791 224.873C40.7053 225.769 39.2304 226.852 38.194 228.292C37.0803 229.686 36.3584 231.385 35.6669 233.075L33.7054 238.263C33.7054 238.263 33.6303 238.349 33.5612 238.335C33.5225 238.312 33.4757 238.259 33.4898 238.19L33.501 238.171Z" fill="white"/>
<path d="M33.0164 225.97C33.6774 222.456 35.2069 219.134 37.1861 216.149C38.2336 214.69 39.389 213.268 40.8446 212.174C42.2697 211.088 44.1364 210.31 45.9565 210.639C46.0145 210.672 46.0532 210.695 46.039 210.764C46.0167 210.803 45.9832 210.861 45.9141 210.847C44.1593 210.761 42.5774 211.627 41.2824 212.711C39.9762 213.814 38.8543 215.178 37.8789 216.601C36.8729 218.033 36.0217 219.553 35.2477 221.118C34.4737 222.684 33.7771 224.294 33.2157 225.982C33.1822 226.04 33.1406 226.068 33.0714 226.053C33.0328 226.031 32.9748 225.998 32.9889 225.928L33.0164 225.97Z" fill="white"/>
<path d="M62.5682 341.975C63.0928 337.402 63.8248 332.871 64.1502 328.286C64.3571 326.006 64.6249 323.71 64.8014 321.438L65.234 314.567C65.6743 305.404 65.647 296.204 64.9357 287.072C64.3046 277.935 62.9732 268.806 60.6358 259.947C58.2678 251.097 55.0076 242.453 50.0965 234.661C50.0608 234.588 50.075 234.519 50.1278 234.472C50.1806 234.425 50.2691 234.451 50.3159 234.504C52.906 238.323 55.0492 242.425 56.9262 246.632C58.6894 250.902 60.2281 255.248 61.4091 259.723C63.8543 268.619 65.2935 277.784 66.0019 286.966C66.6381 296.183 66.5546 305.397 66.0422 314.596C65.5491 323.805 64.3006 332.94 62.8559 342.012C62.8417 342.081 62.7778 342.147 62.6893 342.122C62.6202 342.108 62.554 342.044 62.5682 341.975Z" fill="white"/>
<path d="M48.1787 222.303C55.0919 231.717 60.6197 242.058 65.4514 252.668C70.2416 263.306 74.2301 274.306 77.0876 285.658C79.815 297.013 81.4033 308.689 81.101 320.383C80.9193 326.237 80.2395 332.062 78.9873 337.763C77.6853 343.461 75.7916 349.023 73.2653 354.296C73.2318 354.354 73.1597 354.39 73.0712 354.365C73.0132 354.331 72.9776 354.259 73.011 354.201C77.7983 343.577 80.0046 331.978 80.301 320.385C80.5089 308.766 78.8343 297.194 76.0511 285.936C73.3095 274.651 69.4206 263.657 64.7301 253.026C62.3793 247.719 59.8039 242.49 57.0315 237.379C54.259 232.268 51.3423 227.228 47.9674 222.491C47.9206 222.438 47.9459 222.35 47.9987 222.303C48.0515 222.256 48.14 222.281 48.1868 222.334L48.1787 222.303Z" fill="white"/>
<path d="M79.6542 365.269C82.1848 360.927 83.9668 356.228 85.4031 351.46C86.82 346.679 87.933 341.801 88.6697 336.86C89.4755 331.933 89.955 326.947 89.914 321.969L89.7787 318.227C89.6127 316.996 89.5381 315.74 89.3111 314.525C88.8683 312.076 88.215 309.634 86.7601 307.555C89.8142 311.642 90.4239 316.975 90.656 321.934C90.8435 326.97 90.361 332.006 89.6213 336.997C88.7932 341.963 87.6773 346.891 86.1109 351.662C84.5444 356.433 82.494 361.105 79.6654 365.25L79.6542 365.269Z" fill="white"/>
<path d="M58.5136 333.184C59.0116 328.389 59.4404 323.58 59.6699 318.759C59.8883 313.957 59.9075 309.144 59.4753 304.353C58.8021 294.753 56.1429 285.424 52.7044 276.419C52.6687 276.347 52.7134 276.27 52.8048 276.245C52.8769 276.209 52.9542 276.254 52.9706 276.315C54.9657 280.719 56.7139 285.238 58.0019 289.93C59.301 294.603 60.1317 299.417 60.5608 304.258C61.3084 313.952 60.4336 323.69 58.8125 333.202C58.7983 333.271 58.7344 333.337 58.6459 333.312C58.5768 333.298 58.53 333.245 58.5248 333.165L58.5136 333.184Z" fill="white"/>
<path d="M95.3038 32.3537C98.5545 44.3208 99.9374 56.7563 99.6734 69.1432C99.3789 81.5382 97.1134 93.9551 92.3136 105.449C89.929 111.192 86.9006 116.666 83.2679 121.714C79.627 126.731 75.68 131.519 71.7634 136.299C63.9332 145.81 56.0605 155.528 51.4162 166.931C49.0955 172.608 47.8721 178.661 47.7639 184.791C47.6364 190.909 48.4777 197.046 49.8789 203.016C52.6895 214.987 57.623 226.404 62.8927 237.551C68.4673 248.617 72.7241 260.314 76.6903 272.023C80.6035 283.78 84.1621 295.615 87.4545 307.555L87.1238 307.235C88.7995 307.635 89.9536 308.896 90.8282 310.15C91.7221 311.414 92.358 312.814 92.9135 314.219C94.0134 317.047 94.7252 320.013 95.0741 323.027C95.8492 329.1 94.6065 335.141 93.0605 340.905C92.2861 343.811 91.3845 346.67 90.4442 349.507C89.5812 352.388 88.3065 355.134 87.8309 358.059C86.777 363.952 87.3366 369.951 87.0656 375.961C87.0596 376.061 86.9763 376.116 86.896 376.121C86.7964 376.115 86.7414 376.032 86.7363 375.952L86.7474 375.932C86.9737 370 86.348 363.936 87.3662 357.971C87.8366 354.966 89.0728 352.197 89.9052 349.324C90.8068 346.465 91.6586 343.603 92.4026 340.705C93.8683 334.947 94.9861 328.988 94.2213 323.076C93.8582 320.131 93.1628 317.227 92.0873 314.489C91.54 313.115 90.9204 311.777 90.0815 310.595C89.2619 309.425 88.2066 308.351 86.9041 308.062C86.7465 308.023 86.6142 307.895 86.5734 307.742C83.2587 295.841 79.6391 284.022 75.7035 272.304C71.7069 260.603 67.4329 249.025 61.836 237.998C56.5165 226.848 51.5057 215.386 48.6238 203.271C47.2174 197.221 46.3628 190.973 46.5379 184.727C46.6633 178.478 47.9484 172.229 50.3442 166.467C55.1113 154.85 63.106 145.099 70.9748 135.611C74.9107 130.842 78.8548 126.104 82.5038 121.117C86.1223 116.139 89.1173 110.723 91.5071 105.061C96.3283 93.7078 98.5381 81.3877 99.0065 69.0932C99.3864 56.7734 98.153 44.3467 95.0212 32.3969C94.9967 32.3053 95.0414 32.2279 95.1329 32.2033C95.2243 32.1788 95.3209 32.2346 95.3454 32.3262L95.3038 32.3537Z" fill="white"/>
<path d="M67.0891 248.488C65.5251 238.734 66.3874 228.705 68.8391 219.182C71.302 209.64 75.2496 200.517 80.1716 191.983C84.9889 183.362 91.1999 175.677 96.417 167.391C101.75 159.172 106.476 150.576 110.141 141.496C113.814 132.447 116.346 122.918 118.38 113.36C120.264 103.793 120.536 93.9393 119.326 84.2867C118.196 74.6289 115.69 65.0788 111.756 56.1737C109.794 51.7115 107.483 47.4085 104.735 43.3697C102.049 39.3145 98.9415 35.4542 95.0348 32.5771C94.9381 32.5213 94.9166 32.3798 94.9724 32.2831C95.0282 32.1863 95.1695 32.1648 95.2661 32.2206C99.3893 34.9906 102.722 38.7742 105.602 42.761C108.449 46.8058 110.868 51.1452 112.907 55.6521C117.027 64.6384 119.718 74.2697 120.988 84.0861C122.087 93.9322 121.664 103.957 119.613 113.634C117.496 123.248 114.972 132.806 111.224 141.941C107.495 151.087 102.705 159.749 97.3112 167.985C92.0219 176.307 85.7367 183.898 80.9254 192.418C75.9788 200.861 71.9874 209.881 69.4695 219.34C66.9628 228.78 66.0151 238.733 67.4936 248.412C67.5069 248.523 67.4399 248.639 67.318 248.672C67.2072 248.685 67.0912 248.618 67.0586 248.496L67.0891 248.488Z" fill="white"/>
<path d="M62.6248 238.581C60.6604 229.834 60.2255 220.759 61.1521 211.825C61.6901 207.362 62.5574 202.91 64.2403 198.696C65.9701 194.535 67.8931 190.486 70.0786 186.563C74.4108 178.694 79.7369 171.426 84.9217 164.179C90.1258 156.943 95.0156 149.448 99.0326 141.501C106.859 125.563 111.137 107.781 111.245 89.9884C111.362 72.2267 106.694 54.2281 96.6125 39.4484C96.5575 39.365 96.5828 39.2765 96.6661 39.2214C96.7494 39.1663 96.8379 39.1916 96.8929 39.275C102.042 46.6113 105.991 54.7765 108.543 63.3985C111.034 72.0368 112.194 81.0158 112.234 90.0176C112.265 98.9889 111.194 107.994 109.169 116.732C107.114 125.478 104.229 134.054 100.168 142.079C96.0674 150.082 91.0974 157.582 85.8323 164.834C80.5783 172.067 75.2664 179.266 70.929 187.055C68.7465 190.928 66.8042 194.966 65.0693 199.046C63.4228 203.152 62.5391 207.543 61.9543 211.953C60.865 220.767 61.1311 229.822 62.9572 238.541C62.9817 238.633 62.9259 238.729 62.8456 238.735C62.7541 238.759 62.6687 238.684 62.6523 238.623L62.6248 238.581Z" fill="white"/>
<path d="M108.435 174.742C110.906 169.565 113.152 164.284 115.214 158.922C117.315 153.582 119.199 148.17 120.888 142.695C124.246 131.735 126.75 120.514 128.34 109.178C130.108 97.8922 130.723 86.3272 128.911 75.0371C127.968 69.4349 126.393 63.8548 123.426 58.992C120.569 54.1158 116.069 50.1221 110.523 48.5682C110.446 48.5235 110.38 48.4595 110.405 48.3709C110.45 48.2935 110.514 48.2273 110.602 48.2526C116.246 49.6823 121.036 53.6634 124.1 58.582C127.203 63.523 128.841 69.2169 129.85 74.8832C131.824 86.2932 131.292 97.9833 129.618 109.375C127.914 120.774 125.288 132.028 121.82 143.002C120.07 148.492 118.135 153.902 115.985 159.239C113.777 164.542 111.372 169.783 108.775 174.912C108.73 174.99 108.638 175.014 108.55 174.989C108.473 174.944 108.448 174.853 108.474 174.764L108.435 174.742Z" fill="white"/>
<path d="M74.0899 266.787C72.7969 263.175 72.2082 259.326 72.1176 255.507C72.0077 251.676 72.3989 247.825 73.0058 244.048C74.3689 236.502 76.7498 229.157 80.1692 222.335C80.2027 222.276 80.2748 222.241 80.3522 222.285C80.4101 222.319 80.4458 222.391 80.4123 222.449C78.9706 225.976 77.7252 229.566 76.6485 233.175C75.58 236.815 74.6497 240.483 74.0459 244.21C73.3729 247.924 73.0152 251.716 72.9898 255.469C72.9837 259.232 73.3264 263.017 74.3561 266.682C74.3724 266.743 74.3278 266.821 74.2556 266.857C74.1947 266.873 74.1174 266.828 74.101 266.767L74.0899 266.787Z" fill="white"/>
<path d="M123.923 168.211C131.102 149.732 136.297 130.494 139.013 110.907C139.697 106.013 140.292 101.093 140.669 96.151C141.085 91.2309 141.293 86.2682 140.966 81.3837C140.579 76.5155 139.863 71.4575 136.888 67.5452C134.016 63.5891 129.334 61.2962 124.584 60.1503C124.495 60.125 124.44 60.0416 124.466 59.9531C124.491 59.8645 124.574 59.8094 124.663 59.8348C129.491 60.8451 134.37 63.0197 137.527 67.063C139.107 69.0597 140.153 71.4449 140.818 73.8672C141.44 76.317 141.811 78.8017 142.032 81.2775C142.483 86.2596 142.222 91.2691 141.865 96.2227C141.507 101.176 140.97 106.129 140.294 111.054C138.874 120.889 136.866 130.668 134.163 140.226C131.498 149.806 128.144 159.195 124.227 168.309C124.183 168.387 124.099 168.442 124.022 168.397C123.945 168.352 123.909 168.28 123.934 168.192L123.923 168.211Z" fill="white"/>
<path d="M77.02 275.86C76.6208 270.521 77.2157 265.111 78.3801 259.875C79.6441 254.645 81.4471 249.598 83.6895 244.727C83.723 244.669 83.7951 244.633 83.8836 244.659C83.9416 244.692 83.9772 244.764 83.9437 244.822C82.3288 249.901 80.5675 254.921 79.4172 260.087C78.1674 265.248 77.5316 270.505 77.2721 275.825C77.2772 275.906 77.194 275.961 77.1248 275.947C77.0557 275.933 77.0088 275.88 76.9925 275.819L77.02 275.86Z" fill="white"/>
<path d="M139.509 166.2C142.335 158.262 144.896 150.247 147.211 142.168C149.507 134.077 151.556 125.921 153.23 117.703C154.087 113.581 154.983 109.48 155.362 105.338C155.771 101.189 155.583 97.0032 154.696 92.956C153.009 84.7565 147.332 77.8893 140.26 73.441C140.183 73.3964 140.158 73.3048 140.214 73.208C140.259 73.1306 140.35 73.1061 140.428 73.1508C144.058 75.3005 147.437 77.9757 150.118 81.2797C152.799 84.5838 154.752 88.5249 155.721 92.6972C156.752 96.8532 156.901 101.197 156.546 105.43C156.181 109.682 155.312 113.824 154.474 117.958C152.709 126.201 150.687 134.398 148.223 142.469C145.778 150.55 142.971 158.5 139.813 166.299C139.768 166.376 139.685 166.431 139.607 166.387C139.53 166.342 139.494 166.27 139.52 166.181L139.509 166.2Z" fill="white"/>
<path d="M82.5659 292.509C82.0653 289.356 81.9388 286.135 82.1417 282.924C82.3446 279.712 82.8656 276.53 83.5719 273.429C84.339 270.312 85.2831 267.245 86.4622 264.263C87.6219 261.269 89.0054 258.379 90.5517 255.609C90.5852 255.55 90.6766 255.526 90.7346 255.559C90.7926 255.593 90.8282 255.665 90.7947 255.723C89.5191 258.65 88.343 261.583 87.2941 264.563C86.2645 267.554 85.3234 270.571 84.6172 273.672C83.853 276.74 83.346 279.853 83.0272 282.997C82.7277 286.152 82.6275 289.319 82.8373 292.485C82.8425 292.566 82.7785 292.632 82.7094 292.618C82.6291 292.623 82.5822 292.57 82.5659 292.509Z" fill="white"/>
<path d="M86.2797 305.564C86.6988 295.588 89.9293 285.921 94.2362 276.98C98.604 268.022 104.016 259.667 109.308 251.295C119.932 234.574 129.546 217.191 138.041 199.291C142.336 190.368 146.331 181.298 150.102 172.124C153.804 162.936 157.409 153.692 160.405 144.251C163.361 134.838 165.794 125.124 166.116 115.272C166.241 110.364 165.771 105.371 163.925 100.795C162.183 96.1759 158.651 92.3802 154.321 90.0582C154.243 90.0135 154.219 89.922 154.244 89.8334C154.289 89.756 154.38 89.7314 154.469 89.7567C158.902 92.0348 162.591 95.8701 164.45 100.556C166.411 105.199 166.955 110.287 166.927 115.251C166.666 125.266 164.26 135.022 161.34 144.508C158.39 154.001 154.812 163.287 151.169 172.508C147.456 181.716 143.508 190.839 139.24 199.803C130.615 217.706 120.913 235.063 110.17 251.767C104.839 260.117 99.3995 268.43 94.9878 277.285C90.5598 286.079 87.2275 295.61 86.6425 305.516C86.6366 305.615 86.5532 305.67 86.4729 305.676C86.3733 305.67 86.3183 305.586 86.3131 305.506L86.2797 305.564Z" fill="white"/>
<path d="M86.6396 306.134L103.904 283.574C109.655 276.06 115.359 268.494 120.774 260.76C126.246 253.06 131.277 245.052 136.164 236.936C141.04 228.84 145.657 220.567 149.923 212.144C158.482 195.339 165.791 177.707 169.682 159.21C171.587 149.965 172.574 140.523 172.03 131.101C171.555 121.692 169.438 112.315 165.299 103.808C165.264 103.736 165.3 103.628 165.372 103.592C165.445 103.556 165.552 103.593 165.588 103.665C169.868 112.151 172.173 121.559 172.814 131.038C173.413 140.544 172.469 150.088 170.611 159.386C166.792 178.028 159.565 195.784 151.05 212.692C146.723 221.132 142.037 229.39 137.111 237.484C132.166 245.566 127.085 253.57 121.533 261.276C110.574 276.746 98.622 291.436 86.8797 306.299C86.8351 306.376 86.7242 306.389 86.6581 306.325C86.5808 306.281 86.5675 306.17 86.6314 306.103L86.6396 306.134Z" fill="white"/>
<path d="M38.3318 30.5686C55.434 36.4794 69.6578 50.1956 76.31 67.1212C77.9685 71.3048 79.76 75.4363 81.3545 79.6861C82.9103 83.9136 84.2437 88.3479 84.3362 92.9681C84.4591 97.5801 83.1427 102.186 80.9046 106.156C78.6747 110.156 75.8323 113.699 72.9624 117.201C67.2145 124.173 60.9732 130.706 55.9373 138.142C50.7662 145.499 47.8176 154.141 45.7239 162.864C43.6994 171.602 42.6867 180.64 43.3684 189.6C44.0642 198.491 46.7496 207.551 52.7504 214.347C52.7972 214.4 52.8023 214.48 52.7384 214.546C52.6856 214.593 52.6053 214.599 52.5391 214.534C46.4276 207.751 43.5764 198.621 42.7951 189.656C41.9781 180.618 42.9857 171.499 44.9939 162.7C47.0601 153.935 50.0065 145.163 55.2059 137.667C60.2589 130.112 66.5033 123.53 72.1902 116.574C75.0184 113.1 77.8415 109.546 79.9658 105.639C82.079 101.752 83.4302 97.3983 83.3064 92.9664C83.2436 88.5182 81.9846 84.1784 80.4674 79.9732C78.9309 75.7569 77.1505 71.6061 75.5337 67.395C69.0189 50.6778 55.1327 37.0019 38.2284 30.7926C38.1704 30.7591 38.1348 30.6869 38.1489 30.6177C38.1824 30.5596 38.2545 30.5239 38.3237 30.538L38.3318 30.5686Z" fill="white"/>
<path d="M40.2151 152.225C43.5792 145.99 46.8549 139.729 50.0726 133.436C51.6815 130.289 53.213 127.097 54.6947 123.903C56.1765 120.708 57.5504 117.477 58.5125 114.111C60.4255 107.399 61.1029 100.282 61.1014 93.3147C60.998 89.8749 59.809 86.5301 57.8733 83.6311C55.9682 80.7239 53.5438 78.1359 51.0556 75.6142C50.9894 75.5502 50.9954 75.4504 51.0594 75.3841C51.1234 75.3179 51.223 75.3239 51.2891 75.3879C53.8749 77.7854 56.4993 80.2052 58.5814 83.163C60.6553 86.0904 62.0539 89.6079 62.2449 93.2531C62.2761 100.392 61.795 107.571 59.7012 114.463C57.5688 121.332 54.2017 127.617 50.926 133.877C47.6198 140.146 44.0817 146.28 40.505 152.392C40.4603 152.47 40.3689 152.494 40.2916 152.449C40.2143 152.405 40.1898 152.313 40.2344 152.236L40.2151 152.225Z" fill="white"/>
<path d="M57.1451 226.052C55.3602 219.808 54.058 213.353 54.0102 206.823C53.9624 200.293 55.288 193.706 58.0834 187.787C60.8787 181.868 64.5439 176.452 68.1673 171.063C71.8294 165.697 75.6157 160.428 79.1232 154.972C82.5504 149.522 85.597 143.748 88.5328 137.988C91.3913 132.183 94.1339 126.311 96.2794 120.223C98.4443 114.146 100.023 107.834 100.509 101.406C100.984 94.9978 100.328 88.4514 98.002 82.3855C97.9775 82.294 98.0028 82.2054 98.0943 82.1808C98.1664 82.1451 98.2742 82.1816 98.2987 82.2732C100.838 88.2818 101.868 94.9407 101.376 101.468C100.953 108.01 99.4175 114.425 97.327 120.596C95.2059 126.776 92.5763 132.765 89.5795 138.541C86.5523 144.326 83.4313 150.005 79.9401 155.522C76.4021 160.986 72.5772 166.232 68.8958 171.587C65.2448 176.934 61.5909 182.331 58.8015 188.15C56.062 193.972 54.6071 200.382 54.5887 206.848C54.5398 213.322 55.7536 219.751 57.4389 225.989C57.4634 226.081 57.4187 226.158 57.3272 226.183C57.2358 226.207 57.1584 226.163 57.1339 226.071L57.1451 226.052Z" fill="white"/>
<path d="M48.7353 201.585C47.4325 194.639 48.9964 187.415 51.8107 181.016C54.6198 174.537 58.7738 168.81 62.872 163.179C67.0475 157.593 71.2891 152.072 74.5257 145.969C77.7399 139.905 80.1045 133.169 79.9728 126.203C79.9676 126.123 80.0621 126.049 80.1231 126.032C80.2034 126.027 80.2889 126.102 80.294 126.183C80.7908 133.23 78.641 140.219 75.4758 146.466C72.3076 152.763 68.0019 158.351 63.9149 163.963C59.7506 169.529 55.6717 175.171 52.7943 181.456C49.9198 187.69 48.1523 194.642 49.087 201.556C49.0922 201.636 49.0364 201.733 48.9561 201.738C48.8758 201.743 48.7984 201.698 48.7739 201.607L48.7353 201.585Z" fill="white"/>
<path d="M86.5818 374.332C87.9802 364.535 92.6974 355.418 98.9169 347.762C102.104 343.979 105.721 340.522 109.903 337.83C114.054 335.146 118.838 333.241 123.78 333.027C123.861 333.021 123.946 333.097 123.951 333.177C123.957 333.257 123.881 333.343 123.801 333.348C118.957 333.928 114.462 336.001 110.469 338.725C106.495 341.46 102.953 344.831 99.8876 348.581C96.7646 352.298 94.1187 356.394 91.8899 360.705C89.6805 365.027 87.9156 369.607 86.8889 374.38C86.8636 374.469 86.7996 374.535 86.6918 374.498C86.6033 374.473 86.5372 374.409 86.5625 374.321L86.5818 374.332Z" fill="white"/>
<path d="M89.2176 352.964C91.6366 346.982 95.1083 341.455 99.3411 336.573C103.554 331.681 108.518 327.454 113.781 323.735C119.109 320.081 124.757 316.946 130.635 314.305C136.494 311.654 142.563 309.485 148.739 307.713C148.831 307.689 148.908 307.733 148.932 307.825C148.957 307.917 148.912 307.994 148.821 308.019C142.765 310.118 136.822 312.514 131.068 315.252C125.303 318.01 119.728 321.109 114.498 324.769C109.253 328.369 104.373 332.54 100.11 337.25C95.8479 341.959 92.189 347.276 89.4912 353.07C89.4466 353.148 89.3439 353.191 89.2666 353.147C89.1893 353.102 89.1537 353.03 89.179 352.941L89.2176 352.964Z" fill="white"/>
<path d="M91.4981 343.159C94.698 336.493 98.5692 330.139 103.158 324.328C107.727 318.506 113.044 313.219 118.952 308.738C124.888 304.299 131.438 300.628 138.42 298.084C145.402 295.539 152.755 294.139 160.123 293.83C160.203 293.825 160.289 293.9 160.294 293.98C160.299 294.061 160.224 294.146 160.144 294.151C152.824 294.823 145.597 296.452 138.781 299.066C131.954 301.7 125.518 305.308 119.712 309.745C113.859 314.129 108.617 319.33 103.969 324.977C99.3282 330.655 95.2585 336.817 91.7798 343.296C91.7351 343.373 91.6437 343.398 91.5664 343.353C91.4891 343.308 91.4646 343.217 91.5092 343.139L91.4981 343.159Z" fill="white"/>
<path d="M94.7048 326.431C97.9681 319.21 102.72 312.668 108.451 307.156C114.181 301.643 120.823 297.097 127.906 293.528C135.025 290.031 142.575 287.351 150.333 285.694C154.212 284.866 158.154 284.331 162.111 284.038C166.075 283.956 170.083 283.976 173.951 284.999C174.04 285.024 174.095 285.107 174.069 285.196C174.044 285.284 173.972 285.32 173.872 285.314C166.142 283.839 158.173 285.013 150.561 286.729C142.935 288.513 135.488 291.15 128.477 294.683C121.441 298.125 114.913 302.608 109.164 307.929C103.435 313.261 98.559 319.525 94.9865 326.568C94.9419 326.646 94.8504 326.67 94.7619 326.645C94.6846 326.6 94.6601 326.509 94.6855 326.42L94.7048 326.431Z" fill="white"/>
<path d="M91.2759 311.16C94.5193 307.771 97.8869 304.479 101.508 301.463C105.118 298.466 108.954 295.703 112.935 293.179C120.906 288.161 129.462 284.229 137.526 279.497C145.645 274.849 153.013 269.044 159.894 262.699C166.755 256.344 173.176 249.501 178.717 241.995C189.304 226.723 197.351 209.286 200.615 190.892C201.342 186.28 201.862 181.627 202.002 176.96C202.123 172.282 201.964 167.597 201.584 162.94C201.354 160.613 201.154 158.279 200.824 155.947C200.514 153.625 200.264 151.288 199.637 149.068C199.022 146.829 197.968 144.723 196.359 143.045C194.728 141.406 192.657 140.26 190.429 139.566C190.351 139.521 190.296 139.438 190.31 139.369C190.355 139.291 190.438 139.236 190.507 139.25C192.777 139.917 194.918 141.077 196.638 142.741C198.316 144.434 199.444 146.634 200.087 148.915C200.749 151.207 201.029 153.536 201.389 155.86C201.75 158.184 201.999 160.522 202.279 162.851C203.247 172.209 203.027 181.706 201.537 191.037C199.958 200.343 197.154 209.404 193.404 218.049L190.449 224.469L187.192 230.741L183.665 236.856C182.443 238.885 181.144 240.869 179.74 242.767C174.086 250.336 167.585 257.184 160.643 263.545C153.712 269.887 146.222 275.724 138.015 280.348C129.882 285.065 121.31 288.936 113.364 293.865C109.377 296.309 105.547 298.972 101.891 301.916C98.2534 304.871 94.8308 308.08 91.5517 311.397C91.507 311.474 91.3881 311.457 91.3219 311.393C91.2446 311.349 91.2617 311.229 91.3257 311.163L91.2759 311.16Z" fill="white"/>
<path d="M136.08 290.399C142.518 286.921 148.633 282.843 154.505 278.47C160.378 274.097 166.093 269.505 171.489 264.573C176.904 259.652 182.097 254.448 186.533 248.677C190.903 242.843 194.614 236.499 197.827 229.944C204.263 216.866 208.823 202.704 210.049 188.112C210.667 180.831 210.357 173.504 209.424 166.231C208.992 162.601 208.441 158.954 207.094 155.57C205.789 152.158 203.291 149.295 200.054 147.579C199.977 147.535 199.953 147.443 199.978 147.354C200.023 147.277 200.114 147.253 200.203 147.278C203.5 148.977 206.122 151.938 207.485 155.383C208.898 158.831 209.488 162.501 209.939 166.142C210.36 169.791 210.842 173.423 211.049 177.13C211.268 180.817 211.176 184.505 210.916 188.174C209.822 202.894 205.399 217.264 198.955 230.492C195.65 237.071 191.847 243.44 187.374 249.319C182.824 255.152 177.563 260.342 172.098 265.26C166.613 270.167 160.895 274.809 154.929 279.076C148.952 283.363 142.744 287.335 136.231 290.718C136.159 290.754 136.051 290.718 136.015 290.645C135.979 290.573 136.016 290.465 136.088 290.429L136.08 290.399Z" fill="white"/>
<path d="M66.9863 44.2519C70.9487 43.8591 75.0105 44.1427 78.8942 45.2264C82.7891 46.2908 86.4473 48.3017 89.4405 51.0635C95.3242 56.6308 98.9248 64.5934 98.8634 72.6065C97.9584 64.7055 94.4 57.2059 88.6506 51.8968C85.8536 49.1969 82.3501 47.2753 78.6441 46.0622C74.9187 44.8378 70.9492 44.3495 66.9863 44.2519Z" fill="white"/>
<path d="M58.057 36.9985C60.856 35.0045 64.1529 33.7109 67.5602 33.0745C70.9786 32.4188 74.4823 32.5089 77.9018 32.8341C81.3347 33.2703 84.7354 34.0748 87.9405 35.308C91.1648 36.5524 94.2188 38.1368 97.1084 39.9616C90.891 37.1165 84.5032 34.6114 77.7749 33.9475C74.4194 33.5561 71.0154 33.472 67.6892 33.923C64.3436 34.3629 61.073 35.3878 58.0377 36.9873L58.057 36.9985Z" fill="white"/>
<path d="M96.8064 33.698C93.3469 31.2085 89.6478 29.0449 85.733 27.4788C81.8181 25.9128 77.7046 24.8253 73.4963 24.4828C65.0999 23.6288 56.552 25.6283 49.085 29.7744C56.0825 24.7894 64.9828 22.5808 73.6038 23.3582C77.9057 23.8065 82.1382 24.9111 86.0797 26.6989C90.002 28.4756 93.6585 30.8468 96.8145 33.7285L96.8064 33.698Z" fill="white"/>
<path d="M-1.18874 296.927C-5.51821 292.103 -7.87369 285.375 -7.18763 278.78C-6.85984 275.486 -5.72688 272.271 -4.02832 269.46C-2.34909 266.638 -0.244668 264.061 2.27292 261.93C4.79051 259.799 7.76808 258.165 10.9966 257.348C14.217 256.5 17.6021 256.573 20.8017 257.236C27.2732 258.525 32.9176 262.097 37.9709 266.023C38.0482 266.068 38.0615 266.179 38.0057 266.276C37.9611 266.353 37.8503 266.366 37.773 266.322C32.5665 262.616 26.8513 259.39 20.6199 258.266C17.525 257.69 14.3109 257.767 11.3039 258.558C8.29695 259.348 5.49411 260.902 3.13195 262.942C0.750456 264.972 -1.22084 267.496 -2.85243 270.191C-4.50336 272.875 -5.59084 275.832 -5.94829 278.954C-6.70185 285.175 -4.80206 291.665 -0.927698 296.743C-0.872716 296.826 -0.87871 296.926 -0.962005 296.981C-1.0453 297.036 -1.14489 297.03 -1.19988 296.947L-1.18874 296.927Z" fill="white"/>
<path d="M-3.82567 270.141C-4.07223 267.754 -3.45269 265.429 -2.75883 263.198C-2.01516 260.971 -1.00608 258.819 0.254205 256.813C2.7911 252.861 6.466 249.438 10.958 247.725C15.4449 245.932 20.4848 246.085 24.9487 247.503C29.4044 248.892 33.7273 251.493 36.214 255.536C36.269 255.62 36.2325 255.728 36.1604 255.763C36.0771 255.819 35.9693 255.782 35.9336 255.71C33.2379 251.985 29.0048 249.719 24.6784 248.508C20.3184 247.356 15.5997 247.183 11.4646 248.947C7.3049 250.619 3.7617 253.68 1.27544 257.454C-0.0256741 259.308 -1.07852 261.357 -1.90466 263.46C-2.71148 265.573 -3.43583 267.812 -3.45166 270.073C-3.45166 270.073 -3.52162 270.239 -3.60192 270.245C-3.68222 270.25 -3.75653 270.155 -3.77286 270.094L-3.82567 270.141Z" fill="white"/>
<path d="M-6.96789 283.68C-9.64443 281.797 -11.5057 278.993 -12.9097 276.066C-14.2608 273.092 -15.0796 269.91 -15.3332 266.641C-15.8709 260.112 -13.767 253.382 -9.66069 248.272C-7.65586 245.69 -5.05495 243.504 -2.09744 242.039C0.860065 240.575 4.16299 239.852 7.4403 239.889C13.9421 240.009 20.5381 242.556 24.823 247.458C24.8892 247.522 24.872 247.641 24.8081 247.707C24.7441 247.774 24.6251 247.757 24.559 247.693C22.3994 245.361 19.5971 243.741 16.6429 242.653C13.6998 241.546 10.5469 240.936 7.44356 241C4.32085 241.053 1.22834 241.768 -1.53509 243.164C-4.27919 244.571 -6.71352 246.647 -8.60156 249.117C-10.5089 251.575 -12.0551 254.345 -13.0043 257.331C-13.9729 260.306 -14.3222 263.458 -14.1704 266.591C-14.0185 269.723 -13.3158 272.838 -12.111 275.753C-10.9145 278.638 -9.25546 281.48 -6.77301 283.431C-6.6957 283.476 -6.68235 283.587 -6.727 283.664C-6.77164 283.741 -6.88243 283.755 -6.95973 283.71L-6.96789 283.68Z" fill="white"/>
<path d="M115.214 242.657C110.504 236.168 108.923 227.875 109.227 219.974C109.515 212.013 111.73 204.107 115.637 197.154C119.495 190.198 124.399 183.795 130.356 178.516C133.333 175.902 136.613 173.566 140.17 171.777C143.744 170.049 147.664 168.883 151.661 168.922C151.741 168.917 151.796 169.001 151.793 169.051C151.798 169.131 151.715 169.186 151.665 169.183C147.739 169.288 143.913 170.56 140.475 172.366C136.998 174.149 133.817 176.491 130.89 179.109C125.083 184.396 120.301 190.767 116.576 197.671C112.659 204.463 110.406 212.167 110.024 220.022C109.829 223.935 110.102 227.885 110.962 231.711C111.772 235.534 113.209 239.254 115.423 242.52C115.469 242.573 115.444 242.661 115.391 242.708C115.339 242.755 115.25 242.73 115.203 242.677L115.214 242.657Z" fill="white"/>
<path d="M108.006 254.98C104.332 251.386 101.351 247.082 99.2435 242.381C97.1473 237.661 95.8913 232.6 95.3998 227.465C94.4167 217.195 96.347 206.7 100.739 197.343C105.426 188.055 113.285 180.728 122.154 175.584C131.03 170.47 141.414 167.389 151.685 168.526C151.754 168.54 151.82 168.604 151.806 168.673C151.792 168.743 151.728 168.809 151.659 168.795C146.575 168.36 141.448 168.983 136.548 170.331C131.639 171.648 126.926 173.698 122.552 176.278C113.833 181.431 106.165 188.74 101.68 197.81C97.3038 206.918 95.3023 217.269 96.1835 227.402C97.0678 237.486 101.059 247.455 108.187 254.8C108.245 254.834 108.239 254.933 108.186 254.98C108.152 255.038 108.053 255.032 108.006 254.98Z" fill="white"/>
<path d="M100.841 265.082C95.4969 261.658 90.9448 257.04 87.506 251.699C84.0479 246.346 81.7418 240.291 80.6188 234.017C78.4032 221.462 80.8193 208.203 86.9879 197.061C93.1758 185.93 102.973 176.807 114.62 171.67C120.434 169.096 126.678 167.518 132.984 166.905C139.307 166.354 145.696 166.847 151.866 168.348C151.924 168.382 152.001 168.427 151.975 168.515C151.942 168.573 151.897 168.651 151.82 168.606C139.517 165.856 126.422 167.293 114.965 172.411C103.517 177.561 93.9451 186.607 87.9461 197.588C81.7925 208.481 79.3303 221.507 81.436 233.896C83.5253 246.224 90.5482 257.817 101.024 264.852C101.082 264.886 101.107 264.977 101.073 265.035C101.04 265.094 100.949 265.118 100.891 265.085L100.841 265.082Z" fill="white"/>
<path d="M114.612 242.492C113.871 236.851 114.027 231.084 115.044 225.479C116.061 219.874 117.949 214.411 120.574 209.323C123.258 204.268 126.668 199.607 130.709 195.595C134.741 191.552 139.386 188.147 144.442 185.547C144.514 185.511 144.602 185.537 144.619 185.598C144.654 185.67 144.64 185.739 144.568 185.775C139.688 188.605 135.245 192.153 131.343 196.194C127.459 200.245 124.094 204.829 121.524 209.82C118.897 214.778 117.045 220.133 115.924 225.652C114.813 231.151 114.441 236.845 114.884 242.468C114.889 242.548 114.825 242.614 114.756 242.6C114.675 242.605 114.629 242.553 114.612 242.492Z" fill="white"/>
<path d="M114.978 243.194C114.752 239.297 115.108 235.374 115.978 231.542C116.848 227.71 118.249 224.029 120.059 220.534C121.897 217.08 124.143 213.811 126.805 210.938C129.449 208.053 132.481 205.522 135.812 203.499C135.884 203.464 135.953 203.478 135.989 203.55C136.025 203.622 136.01 203.691 135.958 203.738C132.802 205.992 129.964 208.635 127.459 211.548C124.954 214.461 122.763 217.633 120.998 221.051C119.175 224.435 117.807 228.057 116.824 231.773C115.86 235.499 115.3 239.329 115.227 243.209C115.232 243.29 115.149 243.345 115.099 243.342C115.019 243.347 114.983 243.275 114.967 243.214L114.978 243.194Z" fill="white"/>
<path d="M87.1793 306.213C94.2101 300.368 101.288 294.576 108.244 288.636C115.209 282.727 122.099 276.723 128.67 270.38C135.183 264.004 141.547 257.438 147.147 250.276C152.786 243.136 157.881 235.553 162.454 227.668C171.648 211.952 178.76 194.93 182.678 177.145C184.612 168.252 185.72 159.138 185.246 150.04C185.029 145.502 184.352 140.956 182.993 136.61C181.653 132.275 179.493 128.111 176.239 124.863C179.58 128.006 181.881 132.149 183.381 136.473C184.889 140.829 185.705 145.402 186.08 149.98C186.738 159.159 185.763 168.401 183.973 177.403C180.269 195.441 173.079 212.599 163.923 228.517C159.258 236.426 154.091 244.045 148.35 251.229C142.628 258.424 136.23 265.047 129.543 271.324C122.837 277.589 115.842 283.506 108.756 289.267C101.613 294.996 94.3781 300.568 87.1599 306.202L87.1793 306.213Z" fill="white"/>
<path d="M162.322 293.771C168.436 290.544 174.115 286.551 179.412 282.103C184.717 277.686 189.592 272.763 194.076 267.536C203.007 257.01 210.215 245.05 215.5 232.313C218.103 225.922 220.179 219.33 221.674 212.582C223.169 205.834 223.973 198.945 224.306 192.068C224.75 185.177 223.65 178.194 221.127 171.756C219.859 168.547 218.204 165.474 216.099 162.735C213.971 160.035 211.316 157.623 208.083 156.348C211.327 157.604 213.993 159.996 216.152 162.688C218.287 165.419 219.973 168.483 221.26 171.704C223.833 178.145 224.952 185.139 224.616 192.067C224.323 205.934 221.307 219.698 216.174 232.574C211.068 245.491 203.603 257.407 194.572 267.927C185.505 278.374 174.783 287.582 162.372 293.775L162.322 293.771Z" fill="white"/>
<path d="M161.602 284.429C164.334 283.401 166.838 281.83 169.191 280.119C171.543 278.408 173.797 276.511 175.927 274.516C180.244 270.561 184.204 266.243 187.887 261.689C195.235 252.569 201.476 242.553 206.422 231.967C211.475 221.419 215.169 210.188 216.925 198.611C217.812 192.828 218.204 186.965 217.965 181.124C217.787 175.267 217.046 169.446 215.741 163.712C215.716 163.62 215.772 163.524 215.852 163.518C215.944 163.494 216.021 163.539 216.046 163.63C219.011 175.02 219.649 187.051 217.857 198.737C216.184 210.439 212.58 221.826 207.56 232.496C202.47 243.153 196.098 253.172 188.621 262.294C184.868 266.834 180.848 271.167 176.442 275.098C174.235 277.048 171.923 278.911 169.493 280.577C167.063 282.243 164.501 283.782 161.703 284.745C161.612 284.77 161.534 284.725 161.51 284.633C161.485 284.542 161.53 284.464 161.622 284.44L161.602 284.429Z" fill="white"/>
<path d="M39.6464 158.166C37.8057 155.683 36.2032 152.564 35.1405 149.447C34.0697 146.3 33.4785 142.991 33.2888 139.656C32.8597 132.983 34.1801 126.315 36.3762 120.05C37.4645 116.912 38.857 113.872 40.2933 110.935C41.7214 107.968 43.0803 104.986 44.4311 101.974C45.7901 98.9923 47.1215 95.9689 48.3341 92.9284C49.4968 89.8849 50.8617 86.8035 51.3523 83.6295L51.3746 83.5908C51.3746 83.5908 51.4639 83.436 51.533 83.4502C51.6022 83.4644 51.6683 83.5284 51.6735 83.6088C51.5605 85.3238 51.0661 86.8958 50.6297 88.5014C50.174 90.0957 49.6603 91.6566 49.0968 93.2144C47.9698 96.3302 46.7268 99.3789 45.4451 102.405C44.133 105.44 42.7822 108.452 41.3846 111.411C39.9839 114.421 38.6086 117.341 37.5233 120.429C35.3057 126.553 34.0553 133.055 34.2748 139.555C34.5219 146.096 36.3007 152.44 39.9483 158.134C39.9951 158.187 39.9698 158.276 39.9088 158.292C39.856 158.339 39.7868 158.325 39.7512 158.253L39.6219 158.075L39.6464 158.166Z" fill="white"/>
<path d="M110.768 410.215C108.439 408.714 106.965 406.443 105.436 404.269C104.724 403.135 104.043 401.993 103.464 400.808C102.825 399.638 102.288 398.425 101.773 397.173C99.7194 392.245 98.4949 386.996 98.0042 381.681C97.5136 376.367 97.9285 370.956 99.1091 365.782C100.124 360.537 102.339 355.625 104.671 350.91C104.716 350.833 104.808 350.808 104.896 350.833C104.973 350.878 104.998 350.97 104.984 351.039C102.971 355.913 101.047 360.813 100.177 365.986C99.5644 368.522 99.4362 371.157 99.1503 373.752L99.0855 377.662C99.0574 378.962 99.2591 380.265 99.3113 381.559C99.7195 386.749 100.931 391.887 102.807 396.764C103.264 397.983 103.751 399.193 104.341 400.36C104.859 401.562 105.521 402.693 106.152 403.832C107.479 406.043 108.889 408.38 110.947 409.905L110.985 409.927C110.985 409.927 111.076 410.083 111.012 410.149C110.967 410.227 110.857 410.24 110.81 410.187L110.768 410.215Z" fill="white"/>
<path d="M127.299 399.511C124.806 398.07 122.578 396.214 120.508 394.218C119.522 393.158 118.502 392.156 117.633 390.983C116.7 389.876 115.872 388.675 115.105 387.458C111.958 382.594 109.924 377.007 109.2 371.248C108.507 365.481 109.109 359.611 110.624 354.036C112.011 348.414 114.769 343.274 117.577 338.317C117.621 338.24 117.713 338.216 117.79 338.26C117.867 338.305 117.892 338.396 117.847 338.474L115.986 342.326C115.349 343.609 114.723 344.873 114.271 346.237L112.753 350.21C112.332 351.566 111.999 352.948 111.627 354.307C110.287 359.802 109.686 365.491 110.43 371.082C111.063 376.685 113.048 382.089 115.969 386.899C118.889 391.709 122.739 396.024 127.455 399.24C127.533 399.284 127.546 399.395 127.501 399.473C127.457 399.55 127.346 399.563 127.288 399.53L127.299 399.511Z" fill="white"/>
<path d="M147.568 363.565C144.516 360.769 142.119 357.242 140.417 353.446C138.696 349.639 137.682 345.545 137.181 341.41C136.759 337.271 136.873 333.054 137.558 328.961C138.225 324.857 139.444 320.866 141.073 317.06C141.117 316.982 141.201 316.927 141.278 316.972C141.355 317.016 141.391 317.089 141.366 317.177C140.072 321.074 139.132 325.071 138.61 329.104C138.087 333.137 137.972 337.224 138.449 341.266C138.857 345.295 139.857 349.279 141.382 353.024C142.938 356.761 145.014 360.309 147.782 363.327C147.848 363.391 147.842 363.491 147.778 363.557C147.714 363.624 147.615 363.618 147.549 363.554L147.568 363.565Z" fill="white"/>
<path d="M153.018 336.292C152.449 334.957 151.707 333.651 151.11 332.274C150.513 330.896 149.977 329.503 149.574 328.057C148.737 325.174 148.38 322.13 148.441 319.12C148.551 316.114 149.022 313.109 149.923 310.25C150.32 308.802 150.913 307.417 151.457 306.028C152.039 304.661 152.767 303.353 153.437 302.012C153.482 301.935 153.574 301.91 153.662 301.936C153.739 301.98 153.775 302.053 153.75 302.141C152.693 304.911 151.648 307.661 150.988 310.504C150.258 313.333 149.774 316.227 149.75 319.129C149.626 322.024 149.962 324.927 150.621 327.76C151.239 330.62 152.417 333.313 153.357 336.152C153.381 336.244 153.337 336.321 153.245 336.346C153.154 336.37 153.076 336.326 153.052 336.234L153.018 336.292Z" fill="white"/>
<path d="M138.335 383.413C135.903 382.627 134.185 380.602 132.732 378.653C131.305 376.615 130.146 374.424 129.152 372.172C127.174 367.649 125.903 362.838 125.034 358.001C124.226 353.148 123.883 348.203 124.168 343.285C124.453 338.367 125.428 333.461 127.281 328.908C127.326 328.83 127.409 328.775 127.486 328.82C127.564 328.865 127.599 328.937 127.574 329.025C126.086 333.661 125.386 338.493 125.225 343.329C125.084 348.175 125.433 353.02 126.286 357.796C127.059 362.577 128.347 367.269 130.125 371.78C131.02 374.026 132.079 376.211 133.368 378.221C134.649 380.199 136.195 382.254 138.422 383.128C138.422 383.128 138.554 383.256 138.529 383.345C138.484 383.422 138.412 383.458 138.324 383.433L138.335 383.413Z" fill="white"/>
</svg>
