<svg width="375" height="402" viewBox="0 0 375 402" fill="none" xmlns="http://www.w3.org/2000/svg">
<path d="M306.809 502.593L306.575 502.594C310.23 501.113 314.346 498.34 315.586 491.303L315.503 491.132C280.054 503.607 210.329 484.037 152.294 434.179C122.411 408.526 92.1872 364.57 67.8944 330.465C63.6636 330.869 62.2771 330.967 58.0168 331.001C36.0213 331.104 14.4447 325.301 -6.79852 319.522L-80.8051 335.117C-85.3931 353.052 -76.6219 376.397 -63.5687 389.73C-50.5155 403.064 -33.1738 411.289 -15.8409 418.226C16.4495 431.158 50.1123 440.639 84.3443 446.413L85.1521 448.616C103.628 490.866 157.955 542.521 230.636 547.825C252.184 549.41 274.119 540.404 280.487 527.217C286.191 524.984 290.941 521.54 294.228 516.123C299.151 514.192 303.989 510.378 306.737 502.584L306.809 502.593Z" fill="#A0B0D2" stroke="white" stroke-width="0.46" stroke-miterlimit="10"/>
<path d="M476.611 305.364C482.811 296.576 488.432 287.367 493.692 277.999C460.089 281.622 425.227 273.607 396.404 255.687C374.013 241.767 353.859 221.542 327.827 217.901C306.502 214.908 284.982 224.111 268.745 237.997C252.491 251.911 240.777 281.642 215.886 291.893L214.991 294.143C198.147 298.181 183.378 304.09 168.242 310.381C165.503 311.532 162.547 312.658 159.428 313.794L73.7997 337.842C96.7926 369.965 122.772 408.019 152.629 433.658C219.422 491.031 301.695 508.32 329.4 482.776C340.466 483.332 350.678 480.217 361.022 468.79L360.579 468.576C369.556 466.748 377.083 462.215 382.034 453.848L382.007 453.831C390.989 451.344 399.815 445.722 407.334 434.807L406.55 434.758C415.617 432.911 423.84 427.436 428.003 413.108L427.597 413.074C436.218 409.066 442.931 402.871 446.012 393.623L444.894 393.548C454.787 388.551 463.595 381.712 470.505 372.613L470.415 372.631C477.956 363.637 482.857 353.216 484.617 341.893C486.515 329.651 484.193 316.731 478.181 305.815L476.611 305.364Z" fill="#123A8F"/>
<path d="M476.611 305.364C482.811 296.576 488.432 287.367 493.692 277.999C460.089 281.622 425.227 273.607 396.404 255.687C374.013 241.767 353.859 221.542 327.827 217.901C306.502 214.908 284.982 224.111 268.745 237.997C252.491 251.911 240.777 281.642 215.886 291.893L214.991 294.143C198.147 298.181 183.378 304.09 168.242 310.381C165.503 311.532 162.547 312.658 159.428 313.794L73.7997 337.842C96.7926 369.965 122.772 408.019 152.629 433.658C219.422 491.031 301.695 508.32 329.4 482.776C340.466 483.332 350.678 480.217 361.022 468.79L360.579 468.576C369.556 466.748 377.083 462.215 382.034 453.848L382.007 453.831C390.989 451.344 399.815 445.722 407.334 434.807L406.55 434.758C415.617 432.911 423.84 427.436 428.003 413.108L427.597 413.074C436.218 409.066 442.931 402.871 446.012 393.623L444.894 393.548C454.787 388.551 463.595 381.712 470.505 372.613L470.415 372.631C477.956 363.637 482.857 353.216 484.617 341.893C486.515 329.651 484.193 316.731 478.181 305.815L476.611 305.364Z" fill="#123A8F"/>
<path d="M240.909 223.731C233.149 203.461 216.402 187.578 197.59 176.674C183.598 168.555 167.746 162.438 152.317 157.454C149.406 141.58 141.832 87.877 149.883 66.5036C84.8564 65.9311 46.0297 92.1278 30.1298 101.298C3.85704 116.433 -18.5613 137.955 -31.2998 165.458C-44.0382 192.961 -49.7319 223.118 -55.3559 252.932L-53.2995 251.991L-53.6026 252.453C-54.3004 253.16 -55.0346 253.804 -55.7324 254.511C-66.4987 262.2 -75.9281 273.063 -78.2531 286.074C-80.6037 299.302 -77.5611 313.435 -69.9715 324.612C-65.3214 331.444 -58.5783 337.398 -50.4435 338.748C-41.5332 340.218 -32.9677 336.058 -25.1531 331.442C-20.1339 331.674 -10.0688 329.433 -3.70038 331.992C31.9267 346.303 42.7334 348.438 55.232 346.4C61.5127 345.362 71.2309 342.466 72.6365 337.247C72.6365 337.247 136.324 323.875 169.21 310.215C180.932 305.333 193.554 300.265 206.481 296.331L209.754 295.374L229.433 284.298L230.639 284.119C243.937 268.61 248.588 243.949 240.828 223.678L240.909 223.731Z" fill="#A0B0D2"/>
<path d="M240.903 223.729C233.143 203.459 216.397 187.577 197.585 176.674C183.594 168.554 168.404 162.912 152.993 157.901C116.879 145.991 91.6723 137.838 77.7846 134.297C111.738 158.198 107.662 193.112 91.6798 215.135C82.1048 228.351 66.9608 234.714 56.8179 237.369C29.7252 244.46 -2.29758 207.793 -55.3518 252.929L-53.2955 251.988L-53.5986 252.45C-54.2963 253.157 -55.0305 253.801 -55.7283 254.508C-33.4581 245.643 -11.8473 239.144 9.96896 245.532C43.9792 255.435 77.2428 269.435 100.464 270.488C134.436 274.767 208.783 249.129 229.784 283.751C240.571 273.782 248.581 243.946 240.822 223.676L240.903 223.729Z" fill="#A0B0D2" stroke="white" stroke-width="0.28" stroke-linecap="round" stroke-linejoin="round"/>
<path d="M229.473 283.046C234.418 279.069 238.81 274.455 242.73 269.493C246.651 264.531 250.145 259.21 253.857 254.033C257.596 248.873 261.543 243.812 266.251 239.485C270.933 235.14 276.095 231.306 281.576 227.993C292.539 221.484 304.985 217.04 317.872 216.657C330.795 216.103 343.454 220.391 354.585 226.59C365.788 232.797 375.895 240.615 386.304 247.854C391.49 251.501 396.802 254.958 402.3 258.071C407.834 261.13 413.536 263.872 419.363 266.307C442.75 275.868 468.486 279.781 493.636 277.127C494.095 277.08 494.466 277.402 494.532 277.834C494.543 277.996 494.508 278.168 494.446 278.321C487.29 290.991 479.511 303.367 470.482 314.803C461.454 326.24 451.158 336.765 439.353 345.325C433.491 349.631 427.212 353.508 420.521 356.414C413.813 359.346 406.682 361.263 399.419 362.081C392.164 362.944 384.83 362.744 377.6 361.912C370.361 361.035 363.26 359.356 356.23 357.45C356.103 357.406 356.013 357.307 356.075 357.154C356.119 357.027 356.244 356.954 356.371 356.999C363.382 358.814 370.465 360.404 377.685 361.19C384.879 361.959 392.167 362.051 399.313 361.117C413.705 359.392 427.118 352.941 438.616 344.256C450.304 335.697 460.474 325.245 469.368 313.836C478.289 302.445 486.005 290.106 493.071 277.455L493.88 278.649C468.47 281.404 442.393 277.654 418.752 267.888C412.871 265.417 407.105 262.594 401.517 259.499C395.982 256.323 390.634 252.804 385.438 249.112C375.038 241.801 364.977 233.973 353.945 227.801C342.985 221.638 330.642 217.402 318.034 217.891C305.434 218.191 293.15 222.508 282.321 228.872C276.92 232.122 271.794 235.901 267.156 240.12C262.474 244.347 258.482 249.301 254.751 254.388C251.003 259.503 247.454 264.787 243.434 269.723C239.442 274.677 234.951 279.264 229.952 283.205C229.853 283.296 229.709 283.279 229.618 283.18C229.528 283.081 229.545 282.937 229.643 282.846L229.473 283.046Z" fill="white"/>
<path d="M-55.6871 253.729C-62.4376 258.5 -68.5411 264.359 -72.9521 271.37C-75.1623 274.854 -76.8566 278.676 -77.9282 282.675C-78.9998 286.675 -79.3315 290.85 -79.3212 294.978C-79.2014 303.261 -77.145 311.496 -73.3022 318.846C-71.3943 322.512 -69.1181 326.032 -66.0007 328.745C-62.9461 331.494 -59.3371 333.636 -55.4716 335.092C-51.6061 336.547 -47.484 337.316 -43.3964 337.012C-39.2815 336.727 -35.336 335.397 -31.6008 333.617C-27.8655 331.837 -24.3584 329.635 -20.797 327.469L-10.1305 320.998C4.13381 312.423 18.371 303.831 32.9907 295.84C36.6886 293.88 40.3052 291.867 44.222 290.284C48.2031 288.9 52.2503 287.948 56.3704 287.121C64.5657 285.478 72.9202 284.716 81.2701 284.613C85.4408 284.598 89.6216 284.744 93.787 285.269C98.0068 285.83 101.978 287.006 106.038 287.811C114.192 289.368 122.432 290.32 130.732 290.884C163.978 292.896 197.103 287.87 229.931 282.881L229.527 283.082C237.006 275.602 241.468 265.435 243.008 254.98C244.567 244.497 243.348 233.625 239.587 223.723C235.844 213.794 229.81 204.807 222.514 197.09C215.191 189.354 206.67 182.852 197.508 177.444C179.083 166.601 158.536 160.115 138.098 153.818C117.58 147.584 97.3263 140.592 76.6327 135.098L77.1526 133.419C82.3638 135.371 86.7036 139.005 90.2541 143.13C93.7868 147.283 96.6117 151.98 98.8075 156.925C103.082 166.814 105.445 177.779 104.033 188.63C100.524 210.193 84.372 228.567 64.0917 236.06C58.9699 237.938 53.498 238.691 48.0919 238.516C42.6679 238.367 37.3282 237.38 32.1312 236.176C21.7372 233.767 11.4717 230.394 0.902874 230.086C-9.68295 229.923 -20.1215 232.851 -29.6655 237.495C-39.2374 242.004 -48.7594 247.207 -56.239 254.687L-56.8131 253.726C-44.9556 250.177 -32.9064 246.987 -20.6133 245.203C-14.4575 244.355 -8.25427 243.85 -2.0292 243.903C4.19669 244.074 10.4359 244.875 16.455 246.426C22.492 247.95 28.3175 250.151 34.1072 252.406C39.8698 254.644 45.6681 256.827 51.5012 258.839C63.2125 262.853 75.1353 266.19 87.3114 268.371C99.4697 270.58 111.836 271.526 124.22 271.201C136.613 270.92 148.833 269.009 161.052 266.982C167.163 266.026 173.346 265.197 179.56 264.971C185.774 264.745 192.011 265.195 198.117 266.376C204.197 267.539 210.235 269.297 215.866 271.914C221.469 274.513 226.862 278.14 230.322 283.411C230.394 283.536 230.35 283.663 230.252 283.754C230.153 283.844 230 283.782 229.909 283.683C226.523 278.539 221.201 274.92 215.635 272.384C210.049 269.758 204.047 268.062 197.995 266.917C185.826 264.429 173.339 265.62 161.156 267.594C148.964 269.64 136.663 271.614 124.252 271.921C111.85 272.274 99.4209 271.365 87.1727 269.174C74.9516 267.002 62.9389 263.684 51.2098 259.697C45.3317 257.694 39.5335 255.511 33.753 253.301C27.9726 251.091 22.1743 248.907 16.2094 247.392C10.2446 245.877 4.1225 245.075 -2.04909 244.94C-8.20203 244.895 -14.3603 245.391 -20.4619 246.274C-32.6828 248.068 -44.6599 251.266 -56.4903 254.833C-56.7958 254.943 -57.1123 254.773 -57.2225 254.468C-57.2869 254.27 -57.2164 254.044 -57.0822 253.899C-49.4057 246.237 -39.8207 240.998 -30.1953 236.408C-20.5886 231.727 -9.91673 228.681 0.921134 228.815C11.7963 229.13 22.1068 232.494 32.4465 234.867C42.7149 237.348 53.6679 238.492 63.6052 234.729C83.3372 227.42 99.1216 209.309 102.447 188.441C103.808 178.023 101.473 167.31 97.2721 157.664C95.1492 152.845 92.3796 148.301 88.9741 144.31C85.578 140.364 81.4195 136.927 76.5877 135.108C76.1541 134.939 75.9074 134.427 76.0756 133.993C76.2438 133.559 76.6927 133.35 77.1348 133.446C97.9184 138.921 118.216 145.787 138.681 152.102C159.101 158.426 179.784 165.001 198.408 176.014C207.661 181.521 216.327 188.158 223.723 196.019C231.118 203.88 237.262 213.056 241.079 223.228C244.869 233.382 246.117 244.506 244.515 255.232C242.93 265.931 238.291 276.369 230.578 284.085C230.489 284.221 230.336 284.276 230.174 284.286C197.328 289.184 164.094 294.139 130.695 292.065C122.368 291.483 114.073 290.495 105.865 288.903C101.779 288.08 97.717 286.923 93.6865 286.37C89.5932 285.853 85.4574 285.697 81.2867 285.713C72.9995 285.779 64.69 286.531 56.5576 288.139C52.5003 288.929 48.4081 289.89 44.5797 291.22C40.7707 292.756 37.0999 294.734 33.4469 296.684C18.8629 304.621 4.57135 313.178 -9.69299 321.752L-20.3865 328.206C-23.9301 330.345 -27.4823 332.556 -31.2803 334.372C-35.0334 336.179 -39.1138 337.537 -43.3457 337.823C-47.5505 338.128 -51.8168 337.341 -55.7366 335.85C-59.6564 334.359 -63.3468 332.164 -66.4651 329.334C-69.6461 326.54 -71.9681 322.912 -73.9031 319.228C-77.7824 311.815 -79.8667 303.445 -79.9331 295.081C-79.9348 290.881 -79.5582 286.696 -78.4781 282.625C-77.3708 278.571 -75.6586 274.721 -73.4128 271.184C-68.9212 264.109 -62.7726 258.241 -55.9593 253.433C-55.8609 253.342 -55.6895 253.377 -55.6437 253.485C-55.5529 253.584 -55.5879 253.755 -55.6956 253.801L-55.6871 253.729Z" fill="white"/>
<path d="M-56.0083 252.348C-51.3974 227.154 -46.8331 201.736 -37.6742 177.669C-35.4001 171.661 -32.9004 165.724 -29.9849 159.983C-27.0423 154.26 -23.6474 148.796 -19.8996 143.564C-12.4041 133.1 -3.32378 123.834 6.64711 115.699C11.619 111.623 16.8724 107.887 22.2989 104.421C27.7526 100.972 33.2893 97.812 38.8252 94.5345C49.9156 88.0693 61.5343 82.4574 73.6211 78.0866C97.7666 69.21 123.577 65.3172 149.244 65.4905L149.784 65.4963L149.608 66.0022C147.09 73.21 146.512 80.9563 146.222 88.6198C145.96 96.3011 146.31 103.997 146.812 111.638C147.855 126.982 149.752 142.267 152.351 157.431C149.572 142.304 147.513 127.029 146.281 111.677C145.679 104.01 145.374 96.3045 145.582 88.5875C145.845 80.9061 146.386 73.097 148.921 65.7448L149.285 66.2564C123.709 66.1817 98.0343 70.1638 74.0153 79.0848C61.9735 83.4463 50.5177 89.1654 39.4086 95.5405C33.8905 98.791 28.2817 101.943 22.8909 105.355C17.5001 108.767 12.2644 112.475 7.30105 116.479C-2.61635 124.533 -11.6974 133.682 -19.1666 144.046C-22.9237 149.233 -26.3008 154.671 -29.2799 160.331C-32.2318 166.009 -34.7137 171.919 -36.9971 177.881C-46.1297 201.849 -51.0911 227.162 -55.9905 252.321L-56.0083 252.348Z" fill="white"/>
<path d="M148.717 66.303C129.251 79.7766 112.6 96.6591 96.1306 113.622C79.7059 130.575 62.9579 147.665 43.0933 160.916C33.1742 167.492 22.5366 173.089 11.3845 177.22C5.83175 179.398 0.0500867 181.037 -5.60598 182.602C-11.055 184.149 -15.8419 187.648 -20.0307 191.657C-28.4075 199.792 -34.7891 209.862 -40.5206 220.127C-46.2429 230.437 -51.1693 241.193 -55.5534 252.189C-55.6154 252.342 -55.786 252.424 -55.9667 252.344C-56.1203 252.282 -56.2026 252.111 -56.1406 251.958C-52.0365 240.855 -47.3816 229.921 -41.8952 219.378C-36.2909 208.951 -30.0009 198.665 -21.4915 190.151C-17.2228 185.961 -12.2398 182.164 -6.24248 180.434C-0.550752 178.814 5.06882 177.185 10.5316 175.026C21.5216 170.905 31.9521 165.326 41.7006 158.833C61.3961 145.899 78.0008 128.908 94.6791 112.161C103.027 103.774 111.43 95.422 120.276 87.5186C129.151 79.633 138.488 72.2855 148.371 65.7642C148.515 65.6642 148.713 65.717 148.813 65.8607C148.913 66.0043 148.861 66.203 148.717 66.303Z" fill="white"/>
<path d="M70.227 341.709C87.9041 362.089 101.073 385.723 116.078 407.922C131.002 430.067 147.679 451.733 169.904 466.788C180.829 474.483 192.547 481.029 204.718 486.59C216.889 492.151 229.495 496.754 242.453 500.112C255.383 503.451 268.702 505.608 282.05 505.529C288.724 505.49 295.393 504.748 301.848 502.97C305.067 502.095 308.348 501.184 310.929 499.15C313.563 497.151 315.091 493.997 315.69 490.776C315.707 490.632 315.833 490.559 315.977 490.576C316.121 490.593 316.194 490.719 316.177 490.864C315.596 494.174 314.061 497.518 311.31 499.634C308.623 501.831 305.252 502.761 302.043 503.681C295.57 505.603 288.83 506.454 282.066 506.629C268.548 506.906 255.13 504.723 242.102 501.475C229.036 498.163 216.305 493.633 204.026 488.117C191.765 482.575 179.894 476.084 168.798 468.354C157.729 460.642 147.757 451.318 139.004 441.087C130.188 430.892 122.357 419.907 114.903 408.704C107.45 397.5 100.435 386.042 93.1792 374.775C85.9588 363.453 78.5143 352.294 69.8688 342.017C69.7781 341.919 69.7952 341.774 69.8936 341.684C69.9921 341.593 70.1363 341.61 70.227 341.709Z" fill="white"/>
<path d="M-24.9723 331.282C-19.2558 334.772 -14.254 339.114 -9.13586 343.337C-4.03557 347.588 0.859334 352.092 5.53944 356.805C14.9268 366.249 23.2396 376.618 31.6237 386.879C39.9094 397.23 48.3471 407.409 57.2948 417.108C66.2519 426.852 75.7546 436.06 85.642 444.861C85.7506 444.932 85.7607 445.095 85.6622 445.185C85.5909 445.294 85.4289 445.304 85.3381 445.205C75.0841 436.785 65.3215 427.794 56.176 418.16C47.0128 408.553 38.5387 398.311 30.1724 388.023C21.8867 377.672 13.5925 367.392 4.46569 357.848C-0.106646 353.09 -4.89372 348.539 -9.87771 344.171C-14.8346 339.82 -19.7387 335.271 -25.2397 331.689C-25.2397 331.689 -25.3763 331.483 -25.305 331.374C-25.2337 331.266 -25.0987 331.238 -24.9902 331.309L-24.9723 331.282Z" fill="white"/>
<path d="M-81.0232 336.237C-83.1419 345.144 -81.8168 354.491 -78.8131 362.999C-75.7822 371.524 -71.134 379.482 -65.1429 386.224C-52.9716 399.715 -36.4118 408.242 -19.7011 415.119C-2.9269 422.077 14.2821 428.077 31.7104 433.21C49.1565 438.317 66.849 442.574 84.7514 445.921C66.7453 443.206 48.9024 439.355 31.3586 434.456C13.8149 429.558 -3.4391 423.567 -20.3211 416.655C-37.0419 409.616 -53.8545 401 -66.0468 387.067C-72.0217 380.064 -76.6257 371.98 -79.5046 363.282C-82.3114 354.593 -83.3582 345.118 -80.9689 336.272L-81.0232 336.237Z" fill="white"/>
<path d="M224.25 285.907C229.667 283.757 235.286 282.246 241.008 281.113C246.721 280.051 252.536 279.485 258.353 279.154C270.006 278.697 281.667 279.413 293.181 281.004C316.307 283.977 338.632 291.011 361.136 296.529C383.55 302.184 406.624 306.717 429.762 304.994C441.269 304.169 452.747 301.848 463.428 297.486C468.763 295.283 473.943 292.665 478.731 289.401C483.491 286.12 487.861 282.308 491.759 278.031C491.813 277.95 491.975 277.94 492.038 278.021C492.12 278.074 492.13 278.236 492.049 278.3C488.17 282.667 483.846 286.586 479.086 289.985C474.344 293.357 469.12 296.101 463.785 298.421C452.988 302.902 441.439 305.331 429.825 306.202C406.48 308.061 383.209 303.709 360.75 298.064C338.236 292.383 316.027 285.231 293.027 282.185C281.549 280.54 269.977 279.806 258.396 280.154C252.632 280.404 246.843 280.871 241.139 281.86C235.444 282.894 229.806 284.315 224.415 286.366C224.307 286.411 224.199 286.34 224.162 286.277C224.116 286.169 224.188 286.061 224.278 286.042L224.25 285.907Z" fill="white"/>
<path d="M-14.1101 141.692C-6.32054 132.083 3.02742 123.771 13.2582 116.779C23.5161 109.805 34.7748 104.268 46.5039 100.323C58.16 96.2519 70.0078 92.5406 82.1063 89.9275C88.1692 88.6299 94.2515 87.5395 100.428 87.0163C106.568 86.5475 112.928 86.456 118.939 88.1963C119.066 88.2406 119.157 88.3392 119.095 88.4928C119.05 88.6193 118.925 88.6921 118.798 88.6478C112.86 87.1504 106.61 87.4307 100.534 88.0974C94.4403 88.7913 88.3944 89.9446 82.4045 91.368C70.4611 94.2776 58.6754 97.8353 47.0922 102.032C35.4445 106.03 24.3369 111.279 14.141 118.099C3.89932 124.811 -5.58592 132.799 -13.7928 141.978C-13.8641 142.087 -14.0262 142.097 -14.1169 141.998C-14.2255 141.927 -14.2356 141.765 -14.1372 141.674L-14.1101 141.692Z" fill="white"/>
<path d="M-17.335 153.764C-9.85924 145.698 -1.35022 138.545 7.8237 132.452C17.0154 126.332 26.8992 121.289 37.1501 117.227C47.4467 113.272 58.1553 110.288 69.0528 108.557C79.9502 106.825 91.0363 106.345 102.042 107.29C102.186 107.307 102.259 107.433 102.26 107.55C102.261 107.667 102.118 107.767 102 107.768C91.0521 107.328 80.0677 108.185 69.3246 110.097C58.5816 112.008 48.0078 114.963 37.8198 118.989C27.6309 122.898 17.8549 127.895 8.63442 133.763C-0.558932 139.649 -9.24179 146.416 -17.0263 154.123C-17.0977 154.232 -17.2691 154.197 -17.3776 154.125C-17.4862 154.054 -17.4692 153.909 -17.3979 153.801L-17.335 153.764Z" fill="white"/>
<path d="M-22.3784 167.361C-15.3188 160.343 -7.63319 153.97 0.661422 148.387C8.92888 142.786 17.7425 138.011 26.9224 134.099C36.1388 130.25 45.7214 127.264 55.5641 125.421C65.3796 123.561 75.401 122.808 85.3404 123.245C85.4575 123.244 85.5575 123.388 85.5583 123.505C85.5591 123.622 85.4157 123.722 85.3257 123.741C75.3988 123.817 65.542 124.912 55.8808 126.952C46.2197 128.992 36.7448 131.932 27.682 135.843C18.5463 139.629 9.84047 144.358 1.54425 149.707C-6.7698 155.083 -14.6199 161.114 -22.0154 167.756C-22.1138 167.847 -22.2582 167.829 -22.3489 167.731C-22.4575 167.659 -22.4226 167.488 -22.3242 167.397L-22.3784 167.361Z" fill="white"/>
<path d="M-29.9004 184.85C-24.118 178.119 -17.7198 171.87 -10.6497 166.376C-3.62455 160.89 4.02745 156.167 12.1271 152.36C20.2454 148.644 28.8385 145.862 37.6289 144.26C46.4193 142.658 55.3798 142.217 64.2754 142.823C64.3925 142.822 64.4926 142.966 64.4934 143.083C64.4942 143.2 64.3508 143.3 64.2608 143.319C46.5846 143.117 28.8611 146.538 12.9224 154.05C4.92974 157.694 -2.62372 162.326 -9.69542 167.587C-16.7671 172.847 -23.3749 178.763 -29.511 185.145C-29.5824 185.254 -29.7716 185.246 -29.8352 185.165C-29.9438 185.094 -29.9267 184.949 -29.8554 184.841L-29.9004 184.85Z" fill="white"/>
<path d="M-37.7736 200.979C-33.1419 194.579 -27.7502 188.679 -21.7137 183.515C-15.7044 178.332 -9.05047 173.885 -2.01321 170.157C5.06982 166.537 12.5362 163.636 20.2253 161.697C27.9323 159.732 35.862 158.73 43.7804 158.692C43.8975 158.692 44.0155 158.808 44.0163 158.925C44.0171 159.042 43.9185 159.133 43.7836 159.161C35.932 159.748 28.1668 161.092 20.6048 163.191C13.0701 165.309 5.72939 168.138 -1.20007 171.82C-8.15748 175.367 -14.7036 179.769 -20.7866 184.708C-26.8425 189.665 -32.4439 195.233 -37.4742 201.292C-37.5455 201.401 -37.7076 201.411 -37.7983 201.312C-37.9069 201.241 -37.9171 201.079 -37.8186 200.988L-37.7736 200.979Z" fill="white"/>
<path d="M101.645 172.048C102.533 174.071 102.458 176.316 102.212 178.409C101.92 180.511 101.384 182.569 100.722 184.583C99.3986 188.611 97.5871 192.434 95.5134 196.124C91.2574 203.432 86.0155 210.169 79.6582 215.822C73.3908 221.457 65.4751 225.812 56.9505 226.773C48.5362 228.039 40.0214 227.801 31.6298 227.138C23.2468 226.403 14.9063 225.308 6.5767 224.491C-1.75284 223.675 -10.1249 223.22 -18.3967 224.269C-26.6971 225.066 -34.4378 228.681 -40.9061 233.911C-47.366 239.069 -52.9599 245.691 -55.5538 253.665C-55.598 253.792 -55.6964 253.883 -55.85 253.82C-55.9764 253.776 -56.0493 253.65 -56.0051 253.524C-53.5928 245.352 -48.0819 238.442 -41.6058 233.023C-35.1298 227.604 -27.0479 223.824 -18.559 222.918C-10.1439 221.769 -1.64613 222.151 6.71908 222.913C15.0843 223.675 23.4332 224.699 31.7798 225.371C40.0992 226.025 48.4799 226.408 56.6965 225.206C64.9783 224.319 72.4909 220.281 78.7234 214.818C85.0102 209.391 90.2529 202.771 94.5191 195.625C96.6385 192.043 98.5408 188.318 99.9553 184.389C100.654 182.438 101.27 180.433 101.599 178.394C101.927 176.355 102.003 174.228 101.26 172.339C101.26 172.339 101.276 172.078 101.384 172.032C101.492 171.986 101.645 172.048 101.691 172.156L101.645 172.048Z" fill="white"/>
<path d="M88.9119 143.135C89.9723 150.637 89.6018 158.364 87.8059 165.775C85.9649 173.195 82.7248 180.2 78.5523 186.552C74.3619 192.932 69.2392 198.659 63.2725 203.48C57.3965 208.4 50.1304 211.589 42.7197 213.399C35.2546 215.174 27.6093 215.624 20.0237 215.57C12.4295 215.588 4.90173 214.794 -2.61022 214.982C-10.1043 215.143 -17.6953 215.63 -25.0752 216.683C-32.3736 217.789 -39.8043 220.637 -44.6199 226.488C-44.6912 226.596 -44.8532 226.606 -44.944 226.508C-45.0526 226.436 -45.0628 226.274 -44.9643 226.183C-40.2318 220.044 -32.6592 216.863 -25.2453 215.521C-17.7041 214.341 -10.2124 213.828 -2.60199 213.549C5.00843 213.27 12.5447 213.991 20.0753 213.893C27.5973 213.867 35.0797 213.309 42.3377 211.554C57.1368 208.618 69.091 198.056 77.4478 185.748C85.8223 173.412 90.2401 158.162 88.5156 143.146C88.4877 143.011 88.604 142.893 88.6939 142.875C88.8289 142.847 88.9468 142.963 88.9654 143.053L88.9119 143.135Z" fill="white"/>
<path d="M74.7396 133.34C75.8734 139.724 76.8646 146.325 75.7471 152.822C74.8365 159.299 72.6641 165.685 69.0715 171.214C62.0949 182.486 50.8977 190.475 39.0337 195.809C33.0339 198.431 26.7144 200.416 20.217 201.427C13.7917 202.448 7.33768 203.216 0.883661 203.984C-11.9522 205.529 -24.857 207.534 -36.7583 212.688C-36.8661 212.734 -37.0197 212.671 -37.0655 212.563C-37.1112 212.456 -37.0492 212.302 -36.9414 212.256C-31.0416 209.49 -24.8671 207.372 -18.5172 205.874C-12.1673 204.376 -5.74205 203.356 0.711165 202.471C7.15506 201.54 13.5912 200.799 19.935 199.725C26.2431 198.706 32.4007 196.732 38.2834 194.11C49.9776 188.975 60.8429 181.195 67.7777 170.401C75.0196 159.731 76.6559 146.11 74.2898 133.433C74.2618 133.298 74.3331 133.189 74.4681 133.161C74.603 133.133 74.7116 133.205 74.7396 133.34Z" fill="white"/>
<path d="M-33.6459 206.649C-28.029 198.098 -18.4777 193.147 -8.92116 190.261C0.797443 187.364 10.8935 186.971 20.6566 185.309C25.5518 184.487 30.4012 183.557 34.9199 181.71C39.4565 179.835 43.6547 177.232 47.3262 174.011C54.6963 167.586 59.4514 158.156 59.7073 148.176C59.7065 148.059 59.8228 147.941 59.9399 147.941C60.057 147.94 60.1749 148.056 60.1757 148.174C60.2731 153.176 59.3351 158.274 57.2499 162.928C55.1826 167.556 52.1124 171.756 48.3704 175.204C44.6012 178.633 40.2416 181.363 35.5616 183.337C30.8544 185.294 25.8617 186.324 20.9123 187.11C11.0041 188.638 0.989403 189.085 -8.53305 191.683C-13.3079 192.973 -17.9166 194.839 -22.1971 197.271C-26.4776 199.702 -30.4198 202.862 -33.2659 206.899C-33.3372 207.008 -33.4721 207.036 -33.5807 206.964C-33.6893 206.893 -33.7173 206.758 -33.6459 206.649Z" fill="white"/>
<path d="M116.856 92.5334C120.449 96.415 123.578 100.768 126.043 105.54C128.526 110.284 130.281 115.366 131.497 120.56C132.623 125.772 133.254 131.086 133.434 136.376C133.642 141.683 133.443 146.957 133.173 152.223C133.174 152.34 133.031 152.44 132.914 152.44C132.796 152.441 132.723 152.315 132.678 152.207C132.434 146.954 132.254 141.664 131.876 136.439C131.453 131.223 130.868 126.016 129.653 120.94C127.493 110.732 122.824 101.205 116.47 92.8241C116.38 92.7255 116.397 92.5812 116.495 92.4905C116.593 92.3997 116.738 92.417 116.829 92.5156L116.856 92.5334Z" fill="white"/>
<path d="M99.3212 108.99C104.789 112.861 109.007 118.514 111.419 124.845C113.742 131.195 114.411 138.167 113.285 144.735C113.268 144.88 113.143 144.952 112.999 144.935C112.899 144.909 112.809 144.81 112.808 144.693C112.753 138.087 112.033 131.547 109.659 125.514C107.455 119.398 103.626 114.039 98.9994 109.362C98.8908 109.29 98.9257 109.119 98.997 109.01C99.0683 108.902 99.2126 108.919 99.294 108.972L99.3212 108.99Z" fill="white"/>
<path d="M85.0171 123.607C87.354 125.495 89.208 127.882 90.8557 130.405C92.3328 133.01 93.7666 135.858 93.6619 138.977C93.6627 139.095 93.5464 139.212 93.4293 139.213C93.3122 139.214 93.2486 139.133 93.2121 139.07C92.1754 136.327 90.8433 133.857 89.2771 131.387C87.8186 128.872 86.1182 126.548 84.659 123.916C84.586 123.79 84.6302 123.664 84.7558 123.591C84.8364 123.527 84.9357 123.554 85.0171 123.607Z" fill="white"/>
<path d="M94.4375 149.559C111.091 154.688 128.028 158.914 144.674 164.233C153.006 166.879 161.233 169.921 169.211 173.579C177.137 177.317 184.805 181.625 192.009 186.639C199.231 191.625 206.025 197.263 212.006 203.726C215.054 206.898 217.726 210.406 220.273 213.987C222.721 217.659 224.9 221.504 226.693 225.522C230.171 233.603 232.079 242.479 231.581 251.287C231.296 255.686 230.56 260.062 229.12 264.207C227.68 268.352 225.781 272.428 222.777 275.699C222.705 275.808 222.543 275.818 222.453 275.719C222.344 275.648 222.352 275.459 222.432 275.395C225.274 272.134 227.039 268.086 228.371 263.986C229.676 259.869 230.304 255.539 230.473 251.257C230.819 242.621 228.958 233.971 225.454 226.106C223.68 222.178 221.474 218.432 219.09 214.841C216.562 211.35 213.908 207.932 210.869 204.805C204.944 198.495 198.178 192.992 191.001 188.114C183.789 183.289 176.282 178.854 168.474 175.115C160.631 171.43 152.484 168.324 144.206 165.597C135.927 162.869 127.57 160.44 119.203 157.966C110.871 155.437 102.522 152.819 94.2515 150.02C94.1251 149.975 94.0521 149.85 94.0963 149.723C94.1405 149.597 94.2661 149.524 94.3926 149.568L94.4375 149.559Z" fill="white"/>
<path d="M101.104 165.573C139.907 173.267 165.748 179.621 196.648 209.171C220.439 231.905 219.782 260.902 211.01 270.291" stroke="white" stroke-width="0.37" stroke-miterlimit="10"/>
<path d="M173.824 213.901C178.29 216.335 182.553 219.257 186.119 223.004C189.72 226.696 192.49 231.24 194.145 236.179C195.711 241.136 196.17 246.415 195.701 251.51C195.213 256.633 193.896 261.598 192.163 266.367C192.092 266.475 191.966 266.548 191.867 266.522C191.758 266.45 191.695 266.369 191.712 266.225C192.948 261.324 193.914 256.361 194.178 251.402C194.441 246.443 194.01 241.416 192.411 236.748C190.946 232.052 188.322 227.759 185 224.056C181.696 220.326 177.782 217.167 173.583 214.326C173.475 214.254 173.447 214.119 173.518 214.011C173.589 213.902 173.724 213.874 173.833 213.946L173.824 213.901Z" fill="white"/>
<path d="M104.735 178.578C110.322 178.951 115.869 180.036 121.206 182.032C126.472 184.137 131.295 187.389 135.178 191.422C135.286 191.493 135.252 191.664 135.18 191.773C135.127 191.854 134.965 191.864 134.883 191.811C130.25 188.684 125.645 185.692 120.516 183.793C115.466 181.714 110.045 180.557 104.648 179.065C104.522 179.021 104.431 178.922 104.493 178.769C104.519 178.67 104.618 178.579 104.735 178.578Z" fill="white"/>
<path d="M83.7734 222.143C88.6361 224.566 93.4367 227.142 97.9793 230.171C102.54 233.172 106.789 236.707 110.483 240.849C114.052 245.064 116.914 249.941 118.464 255.277C120.004 260.567 120.224 266.388 118.332 271.518C119.457 266.194 118.816 260.718 117.08 255.726C115.316 250.717 112.591 246.046 109.05 242.083C105.627 238.003 101.468 234.566 97.1499 231.374C92.8314 228.182 88.2624 225.253 83.7826 222.188L83.7734 222.143Z" fill="white"/>
<path d="M72.5407 231.55C74.6554 233.836 76.4569 236.421 77.7558 239.298C79.0547 242.175 79.7697 245.289 79.8906 248.479C79.9573 251.634 79.4385 254.792 78.3868 257.754C77.3622 260.735 75.8676 263.484 74.1737 266.063C74.1202 266.144 74.0303 266.163 73.9488 266.109C73.8945 266.073 73.8488 265.965 73.8844 265.911C76.6758 260.477 78.8785 254.579 78.6118 248.532C78.5073 242.475 75.9093 236.722 72.2632 231.795C72.1817 231.741 72.2259 231.615 72.2887 231.578C72.3244 231.524 72.4415 231.523 72.5051 231.604L72.5407 231.55Z" fill="white"/>
<path d="M49.7552 237.474C51.9517 238.57 53.9885 240.027 55.7214 241.829C57.4542 243.63 58.8382 245.785 59.7461 248.132C60.5912 250.516 60.933 253.073 60.6979 255.563C60.4899 258.069 59.7406 260.453 58.7469 262.676C58.6934 262.758 58.6306 262.794 58.5313 262.768C58.477 262.732 58.4134 262.651 58.4668 262.57C59.8314 257.947 60.3561 253.005 58.614 248.554C57.034 244.092 53.5954 240.507 49.6669 237.727C49.5854 237.674 49.5668 237.584 49.6203 237.502C49.656 237.448 49.7459 237.429 49.8181 237.438L49.7552 237.474Z" fill="white"/>
<path d="M26.3822 233.758C29.5816 235.28 31.7569 238.539 32.6542 241.968C33.4615 245.415 33.0739 249.321 30.9404 252.154C32.1432 248.902 32.327 245.485 31.4763 242.281C30.7333 239.032 28.9567 236.113 26.4094 233.776L26.3822 233.758Z" fill="white"/>
<path d="M7.99576 230.796C10.1242 232.469 11.3315 235.13 11.7913 237.804C12.1161 240.506 11.6856 243.411 10.0699 245.575C10.7099 243.002 10.9807 240.459 10.5854 237.982C10.2978 235.46 9.34489 233.122 8.02285 230.814L7.99576 230.796Z" fill="white"/>
<path d="M244.429 280.758C250.037 270.919 257.191 261.981 265.452 254.199C273.749 246.48 283.216 239.881 293.707 235.394C304.134 230.943 315.866 228.828 327.239 230.87C338.602 232.75 349.032 237.826 358.836 243.5C363.737 246.338 368.577 249.328 373.345 252.311C378.112 255.293 383.032 258.103 387.845 261.076C397.505 266.968 407.059 273.022 417.412 277.387C422.562 279.61 427.899 281.489 433.296 283.098C438.694 284.706 444.171 286.017 449.759 286.507C455.32 286.979 460.975 286.657 466.388 285.165C471.81 283.718 476.973 281.362 481.827 278.531C481.953 278.458 482.079 278.502 482.152 278.628C482.225 278.754 482.181 278.88 482.055 278.953C477.229 281.92 472.067 284.393 466.6 285.966C461.144 287.585 455.337 288.078 449.65 287.679C443.936 287.262 438.36 285.925 432.927 284.371C427.484 282.771 422.112 280.946 416.872 278.742C406.339 274.415 396.668 268.361 386.981 262.568C382.16 259.667 377.223 256.885 372.383 253.894C367.552 250.948 362.775 247.92 357.919 245.074C348.232 239.399 338.019 234.348 326.953 232.431C315.949 230.359 304.523 232.364 294.202 236.652C283.836 240.95 274.495 247.476 266.151 254.97C257.843 262.527 250.535 271.286 244.782 280.99C244.711 281.099 244.576 281.127 244.449 281.083C244.341 281.011 244.313 280.876 244.357 280.75L244.429 280.758Z" fill="white"/>
<path d="M256.194 279.597C261.517 270.192 269.861 262.815 279.147 257.38C288.433 251.944 298.813 248.395 309.504 246.8C314.858 246.047 320.288 245.772 325.67 246.398C331.043 246.979 336.321 248.237 341.485 249.847C351.794 253.094 361.519 257.823 370.976 262.841C390.022 272.617 407.587 285.654 428.484 290.66C438.727 293.474 449.568 294.078 460.012 292.087C470.413 290.223 480.497 285.585 488.038 277.952C488.11 277.843 488.281 277.878 488.39 277.95C488.498 278.021 488.463 278.193 488.41 278.274C480.987 286.141 470.824 291.077 460.29 293.203C449.702 295.294 438.619 294.764 428.196 291.986C417.747 289.425 407.701 285.185 398.279 279.995L370.194 264.387C360.818 259.305 351.2 254.531 341.08 251.292C336.034 249.681 330.845 248.405 325.581 247.778C320.333 247.124 314.993 247.38 309.747 248.087C299.217 249.555 289.027 253.112 279.73 258.268C270.487 263.46 262.114 270.585 256.682 279.801C256.611 279.91 256.476 279.938 256.35 279.893C256.241 279.822 256.213 279.687 256.257 279.56L256.194 279.597Z" fill="white"/>
<path d="M275.112 279.686C279.96 273.312 285.947 267.689 293.155 263.996C300.345 260.331 308.577 258.867 316.624 259.226C324.688 259.557 332.575 261.637 340.159 264.179C347.752 266.766 355.151 269.886 362.478 273.115L384.38 282.864C391.698 286.047 399.202 288.77 406.662 291.619C414.104 294.495 421.652 297.092 429.393 298.921C437.099 300.804 445.087 301.902 453.037 301.341C453.154 301.34 453.236 301.394 453.237 301.511C453.237 301.628 453.184 301.71 453.067 301.711C445.064 302.47 436.996 301.553 429.156 299.814C421.334 298.049 413.714 295.444 406.219 292.649C398.723 289.854 391.165 287.213 383.794 284.111C376.404 281.036 369.175 277.6 361.865 274.344C354.573 271.061 347.247 267.95 339.734 265.299C332.213 262.721 324.461 260.612 316.549 260.226C308.656 259.813 300.658 261.275 293.511 264.697C286.374 268.164 280.322 273.589 275.401 279.837C275.348 279.919 275.213 279.947 275.132 279.893C275.05 279.839 275.022 279.704 275.076 279.623L275.112 279.686Z" fill="white"/>
<path d="M39.8063 293.108C34.3455 294.14 28.717 294.363 23.148 294.08C20.3546 293.952 17.5689 293.635 14.7824 293.201C12.0053 292.812 9.2699 291.945 6.61836 291.483C4.02961 290.984 1.06643 291.056 -0.550008 293.102C-2.15793 295.076 -1.64145 298.138 -0.212463 300.284C1.19949 302.574 3.89999 303.612 6.48182 304.417C9.11795 305.258 11.8603 305.819 14.5747 306.244C11.8076 306.017 9.03969 305.673 6.29658 304.995C3.66126 304.272 0.700188 303.334 -1.0197 300.802C-2.693 298.496 -3.40188 294.958 -1.44667 292.395C-0.482242 291.164 0.98097 290.416 2.45669 290.182C3.95025 289.921 5.41056 290.066 6.79023 290.274C9.62249 290.816 12.1958 291.693 14.928 292.092C17.6338 292.589 20.3924 292.889 23.1416 293.143C28.6485 293.579 34.2073 293.7 39.7613 293.117L39.8063 293.108Z" fill="white"/>
<path d="M5.73255 312.012C1.43226 311.515 -2.89595 310.882 -6.93441 309.158C-10.9101 307.396 -14.4464 304.019 -15.6115 299.636C-16.8215 295.263 -15.7641 290.516 -13.2942 286.815C-10.8158 283.042 -6.88773 280.495 -2.73603 279.028C5.78375 276.121 14.8576 277.816 23.142 280.003C27.3386 281.132 31.4739 282.531 35.4666 284.148C39.4686 285.81 43.355 287.707 47.2508 289.649C39.3267 286.144 31.2964 282.92 22.9143 280.941C14.6399 278.917 5.75611 277.347 -2.30458 280.206C-6.26786 281.564 -9.98967 283.974 -12.3441 287.44C-14.6806 290.879 -15.6591 295.328 -14.6763 299.397C-13.6664 303.483 -10.4728 306.79 -6.64991 308.606C-2.80838 310.512 1.51212 311.334 5.75972 312.03L5.73255 312.012Z" fill="white"/>
<path d="M-2.2451 316.403C-8.36838 316.727 -14.404 314.077 -18.9362 309.967C-23.4235 305.847 -26.8138 300.116 -27.217 293.864C-27.7551 287.639 -25.6092 281.353 -21.6879 276.507C-17.7308 271.608 -11.6516 268.805 -5.54008 268.084C0.643605 267.372 6.81225 268.399 12.7312 269.806C18.6688 271.303 24.4289 273.189 30.2604 274.967C41.9054 278.549 53.4969 282.212 65.0799 285.947C53.3559 282.663 41.6675 279.325 30.0054 275.888C24.157 274.255 18.3604 272.306 12.4686 270.916C6.6039 269.545 0.543854 268.589 -5.37848 269.318C-11.2923 269.975 -17.0303 272.613 -20.8362 277.224C-24.6242 281.807 -26.6639 287.812 -26.2988 293.768C-25.9965 299.76 -22.8683 305.357 -18.5431 309.487C-14.2536 313.671 -8.38784 316.52 -2.27227 316.385L-2.2451 316.403Z" fill="white"/>
<path d="M-10.3941 322.121C-18.2718 321.446 -25.7554 317.804 -31.5574 312.43C-34.4406 309.716 -36.9129 306.495 -38.64 302.909C-40.3671 299.323 -41.2235 295.299 -41.188 291.279C-41.162 283.248 -37.7834 275.44 -32.3013 269.64C-26.9013 263.668 -18.8973 260.421 -10.9641 260.005C-2.97731 259.507 4.83382 260.993 12.5186 262.435C20.222 263.967 27.8464 265.797 35.401 267.97C42.9557 270.143 50.3863 272.623 57.7108 275.383C65.0268 278.215 72.2366 281.327 79.2774 284.756C79.3588 284.809 79.4046 284.917 79.3783 285.016C79.3248 285.098 79.217 285.144 79.1178 285.117C64.8408 278.676 50.0942 273.363 35.0757 269.117C27.5575 267.007 19.9246 265.249 12.2848 263.798C4.63645 262.419 -3.12897 261.04 -10.8451 261.6C-18.5085 261.96 -26.0456 264.97 -31.2944 270.652C-36.5804 276.154 -39.925 283.673 -39.9984 291.362C-40.2966 299.097 -36.4623 306.519 -30.8681 311.795C-25.3275 317.152 -18.095 320.941 -10.3243 321.778C-10.2072 321.777 -10.1343 321.903 -10.1429 321.975C-10.1421 322.092 -10.2676 322.165 -10.3398 322.157L-10.3941 322.121Z" fill="white"/>
<path d="M-19.2512 327.137C-30.1664 326.173 -39.9703 319.138 -45.6639 309.87C-48.587 305.263 -50.4517 299.992 -51.2906 294.581C-51.9945 289.141 -51.591 283.613 -50.2763 278.297C-48.9344 272.998 -46.5913 267.892 -43.0801 263.671C-39.6053 259.387 -35.0066 256.116 -29.9408 253.968C-19.6914 249.788 -8.34984 249.866 2.30892 251.515C7.73676 252.25 12.8833 254.004 18.0996 255.415L33.6687 259.83C44.0571 262.779 54.4277 265.756 64.7634 268.903C75.0991 272.051 85.3551 275.38 95.532 279.006C105.673 282.687 115.735 286.666 125.628 290.961C125.71 291.014 125.756 291.122 125.729 291.221C125.676 291.303 125.568 291.349 125.469 291.322C105.523 283.093 85.0637 276.238 64.4109 270.032C54.0666 266.957 43.7053 264.025 33.3084 261.148L17.713 256.833C12.5239 255.439 7.36879 253.757 2.08519 253.04C-8.4208 251.335 -19.5104 251.229 -29.4008 255.217C-34.2782 257.256 -38.7249 260.356 -42.0748 264.449C-45.479 268.507 -47.7873 273.442 -49.0943 278.569C-50.4192 283.724 -50.8235 289.134 -50.1747 294.421C-49.4181 299.662 -47.6441 304.834 -44.8117 309.342C-39.4074 318.458 -29.9456 325.541 -19.2001 326.704C-19.083 326.703 -19.0101 326.829 -19.0364 326.928C-19.0356 327.045 -19.1612 327.118 -19.2333 327.109L-19.2512 327.137Z" fill="white"/>
<path d="M-27.5586 331.866C-36.5131 330.522 -44.93 326.11 -51.5396 319.893C-58.1493 313.677 -63.151 305.486 -64.8794 296.456C-66.5179 287.407 -64.9792 277.961 -60.9275 269.78C-56.8937 261.626 -50.3111 254.683 -42.2312 250.67C-50.1102 255.088 -56.2684 262.154 -60.0867 270.217C-63.86 278.27 -65.3732 287.5 -63.6828 296.233C-62.0824 304.984 -57.2623 312.978 -50.9047 319.223C-44.5292 325.44 -36.4348 330.107 -27.5765 331.893L-27.5586 331.866Z" fill="white"/>
<path d="M131.655 270.761C137.978 270.84 144.313 272.56 149.875 275.754C152.606 277.396 155.187 279.445 157.186 281.965C159.185 284.486 160.566 287.533 160.984 290.685C161.003 290.775 160.949 290.856 160.859 290.875C160.769 290.893 160.688 290.84 160.696 290.768C159.15 284.658 154.596 279.872 149.279 276.839C146.629 275.25 143.756 274.06 140.795 273.122C137.835 272.184 134.785 271.499 131.657 271.112C131.585 271.103 131.521 271.023 131.503 270.933C131.511 270.86 131.592 270.797 131.664 270.805L131.655 270.761Z" fill="white"/>
<path d="M151.881 268.556C158.425 268.004 165.159 270.064 170.518 273.98C175.842 277.95 179.791 283.775 181.195 290.22C181.214 290.31 181.16 290.391 181.07 290.41C180.98 290.428 180.899 290.375 180.907 290.303C178.803 284.214 174.973 278.739 169.813 274.993C164.707 271.166 158.37 269.094 151.928 268.898C151.856 268.889 151.792 268.809 151.774 268.719C151.782 268.646 151.863 268.583 151.908 268.574L151.881 268.556Z" fill="white"/>
<path d="M177.055 265.564C179.601 266.424 182.173 267.184 184.702 268.187C187.214 269.218 189.699 270.465 191.828 272.255C193.967 274.09 195.514 276.469 196.576 278.995C197.639 281.521 198.279 284.275 198.162 286.998C198.154 287.07 198.073 287.134 197.983 287.152C197.911 287.144 197.848 287.063 197.838 287.018C197.595 284.37 196.758 281.797 195.616 279.451C194.446 277.088 192.999 274.852 190.997 273.224C189.067 271.487 186.662 270.293 184.268 269.145L176.904 265.854C176.904 265.854 176.786 265.737 176.812 265.638C176.848 265.584 176.929 265.52 177.028 265.546L177.055 265.564Z" fill="white"/>
<path d="M194.803 265.89C199.847 267.149 204.539 269.654 208.704 272.784C210.733 274.43 212.7 276.23 214.165 278.438C215.621 280.602 216.595 283.381 215.964 285.998C215.911 286.079 215.875 286.134 215.776 286.107C215.721 286.072 215.64 286.018 215.666 285.919C215.937 283.376 214.813 281.003 213.349 279.029C211.858 277.037 209.973 275.291 207.99 273.752C205.997 272.169 203.862 270.802 201.656 269.545C199.449 268.287 197.172 267.138 194.769 266.179C194.688 266.125 194.651 266.062 194.677 265.963C194.713 265.908 194.767 265.827 194.866 265.854L194.803 265.89Z" fill="white"/>
<path d="M23.9652 299.037C30.5579 300.188 37.0717 301.637 43.6985 302.499C46.9898 302.993 50.2997 303.578 53.5817 304.027L63.5169 305.24C76.7774 306.658 90.1323 307.399 103.444 307.14C116.757 306.999 130.117 305.839 143.17 303.193C156.213 300.502 169.031 296.497 180.751 290.02C180.859 289.974 180.958 290.001 181.021 290.081C181.085 290.162 181.041 290.289 180.96 290.352C175.201 293.793 169.067 296.56 162.805 298.931C156.46 301.132 150.023 303 143.43 304.336C130.315 307.135 116.893 308.449 103.509 308.699C90.0791 308.842 76.7141 307.938 63.4078 306.412C50.0837 304.913 36.9323 302.323 23.887 299.452C23.7878 299.426 23.697 299.327 23.7411 299.201C23.7675 299.101 23.8659 299.011 23.9652 299.037Z" fill="white"/>
<path d="M198.845 288.282C184.604 297.533 169.132 304.69 153.328 310.813C137.489 316.873 121.19 321.737 104.475 324.927C87.7677 327.928 70.6884 329.245 53.7433 327.813C45.2614 327.052 36.8646 325.569 28.6965 323.264C20.5369 320.888 12.6236 317.663 5.18172 313.542C5.10028 313.489 5.05455 313.381 5.09873 313.254C5.15222 313.173 5.25998 313.127 5.34142 313.181C20.3578 321.042 37.0065 325.234 53.8073 326.65C70.6523 327.939 87.5867 326.487 104.158 323.397C120.767 320.37 137.048 315.65 152.871 309.734C160.768 306.767 168.574 303.468 176.224 299.871C183.874 296.275 191.433 292.463 198.591 287.959C198.671 287.896 198.798 287.94 198.861 288.021C198.925 288.101 198.881 288.228 198.8 288.291L198.845 288.282Z" fill="white"/>
<path d="M-11.2828 321.927C-5.19294 325.974 1.47515 328.963 8.275 331.456C15.0927 333.921 22.0786 335.953 29.1868 337.443C36.2687 339.033 43.4645 340.153 50.6911 340.516L56.1326 340.637C57.9332 340.5 59.7617 340.499 61.5436 340.272C65.1347 339.836 68.7327 339.094 71.8721 337.156C65.6848 341.248 57.8962 341.681 50.6805 341.598C43.3562 341.442 36.0883 340.314 28.908 338.815C21.7718 337.189 14.7138 335.149 7.92168 332.467C1.12954 329.785 -5.47826 326.408 -11.2557 321.945L-11.2828 321.927Z" fill="white"/>
<path d="M37.0644 293.898C43.9813 295.029 50.9245 296.061 57.9018 296.804C64.8519 297.529 71.8361 297.966 78.8248 297.744C92.8131 297.581 106.574 294.507 119.931 290.273C120.039 290.228 120.147 290.299 120.175 290.434C120.221 290.542 120.15 290.651 120.06 290.669C113.501 293.196 106.796 295.353 99.8791 296.827C92.9892 298.319 85.9325 299.117 78.8717 299.33C64.74 299.594 50.6821 297.495 37.0133 294.331C36.914 294.305 36.8233 294.206 36.8675 294.08C36.8938 293.98 36.9745 293.917 37.0916 293.916L37.0644 293.898Z" fill="white"/>
<path d="M470.523 372.875C452.884 376.584 434.722 377.539 416.768 376.103C398.805 374.623 380.976 370.275 364.699 362.323C356.565 358.369 348.875 353.502 341.854 347.793C334.879 342.075 328.261 335.931 321.653 329.832C308.508 317.643 295.065 305.374 278.906 297.655C270.863 293.8 262.182 291.508 253.296 290.83C244.427 290.125 235.451 290.827 226.67 292.357C209.063 295.426 192.081 301.628 175.462 308.341C158.937 315.505 141.606 320.699 124.28 325.47C106.891 330.16 89.4177 334.328 71.8153 338.099L72.3076 337.646C71.5854 340.048 69.6595 341.618 67.7669 342.783C65.8564 343.975 63.7721 344.78 61.687 345.469C57.4897 346.827 53.1262 347.61 48.7232 347.861C39.8457 348.472 31.1823 346.153 22.9485 343.417C18.7955 342.044 14.7223 340.491 10.6848 338.883C6.57594 337.384 2.69732 335.298 -1.50676 334.358C-9.97 332.326 -18.7235 332.63 -27.4223 331.726C-27.5665 331.709 -27.6394 331.583 -27.6402 331.466C-27.6232 331.322 -27.4975 331.249 -27.3804 331.248L-27.3533 331.266C-18.7632 332.099 -9.91124 331.704 -1.34021 333.69C2.98096 334.629 6.89529 336.661 10.9948 338.115C15.068 339.669 19.1496 341.15 23.2933 342.477C31.5264 345.096 40.0804 347.227 48.7237 346.617C53.0275 346.34 57.301 345.576 61.3634 344.245C63.4035 343.566 65.3978 342.779 67.1827 341.66C68.9497 340.568 70.5972 339.125 71.1249 337.256C71.1954 337.031 71.3924 336.849 71.6173 336.803C89.1654 332.995 106.62 328.737 123.955 324.012C141.271 319.196 158.431 313.966 174.902 306.767C191.529 299.982 208.582 293.671 226.405 290.511C235.303 288.981 244.441 288.269 253.491 289.054C262.548 289.766 271.509 292.165 279.671 296.137C296.128 304.052 309.608 316.501 322.717 328.744C329.308 334.87 335.854 341.006 342.784 346.733C349.705 352.416 357.313 357.229 365.33 361.183C381.401 369.155 399.094 373.413 416.897 375.138C434.743 376.736 452.88 375.998 470.484 372.461C470.619 372.433 470.727 372.505 470.755 372.64C470.783 372.775 470.694 372.91 470.559 372.938L470.523 372.875Z" fill="white"/>
<path d="M159.253 313.477C173.538 312.032 188.019 314.137 201.632 318.509C215.273 322.899 228.18 329.411 240.151 337.29C252.257 345.024 262.889 354.704 274.476 362.99C285.955 371.44 298.032 379.038 310.901 385.136C323.725 391.243 337.339 395.733 351.038 399.5C364.763 403.052 379.04 404.283 393.149 403.344C407.258 402.522 421.326 399.69 434.579 394.727C441.218 392.255 447.656 389.261 453.747 385.611C459.857 382.051 465.719 377.861 470.222 372.427C470.311 372.291 470.518 372.272 470.654 372.362C470.79 372.451 470.809 372.658 470.72 372.794C466.355 378.552 460.585 383.074 454.558 386.922C448.45 390.716 441.95 393.864 435.239 396.445C421.853 401.67 407.652 404.764 393.3 405.777C378.92 406.537 364.408 405.073 350.537 401.27C336.765 397.376 323.106 392.896 310.164 386.673C297.205 380.476 285.036 372.779 273.538 364.239C261.906 355.845 251.417 346.065 239.456 338.348C227.62 330.442 214.865 323.875 201.35 319.412C187.862 314.967 173.498 312.744 159.329 314.072C159.167 314.082 159.004 313.974 158.967 313.794C158.956 313.632 159.063 313.469 159.243 313.432L159.253 313.477Z" fill="white"/>
<path d="M174.006 307.83C186.863 305.717 200.069 305.856 212.956 307.961C219.386 309.122 225.775 310.76 231.748 313.564C237.64 316.431 243.355 319.57 248.864 323.08C259.919 330.044 270.02 338.403 280.102 346.554C290.165 354.732 300.631 362.475 311.827 368.989C334.298 381.717 359.743 389.444 385.552 391.113C411.317 392.791 437.826 387.533 460.118 374.136C460.243 374.063 460.37 374.107 460.443 374.233C460.516 374.359 460.472 374.485 460.346 374.558C449.269 381.419 437.089 386.465 424.364 389.442C411.62 392.329 398.493 393.254 385.427 392.547C372.406 391.83 359.429 389.509 346.919 385.825C334.4 382.095 322.197 377.174 310.892 370.589C299.623 363.95 289.157 356.09 279.074 347.822C269.019 339.571 259.018 331.239 248.08 324.274C242.642 320.773 236.946 317.607 231.17 314.739C225.351 311.997 219.052 310.34 212.702 309.116C200.004 306.784 186.841 306.402 174.036 308.316C173.902 308.344 173.766 308.255 173.765 308.138C173.737 308.002 173.853 307.885 173.943 307.866L174.006 307.83Z" fill="white"/>
<path d="M262.783 379.83C270.089 383.861 277.564 387.575 285.172 391.027C292.745 394.534 300.442 397.733 308.244 400.652C323.868 406.464 339.942 411.056 356.26 414.331C372.489 417.858 389.22 419.733 405.756 418.059C413.965 417.163 422.195 415.348 429.5 411.448C436.816 407.709 442.989 401.508 445.709 393.579C445.78 393.47 445.879 393.379 446.005 393.424C446.114 393.495 446.205 393.594 446.16 393.72C443.612 401.802 437.434 408.427 430.039 412.463C422.608 416.554 414.208 418.451 405.901 419.437C389.177 421.338 372.257 419.572 355.867 416.172C339.467 412.726 323.355 407.954 307.722 401.98C299.901 398.971 292.212 395.7 284.648 392.121C277.138 388.461 269.733 384.521 262.507 380.309C262.399 380.238 262.371 380.103 262.415 379.976C262.486 379.868 262.621 379.84 262.748 379.884L262.783 379.83Z" fill="white"/>
<path d="M132.107 322.151C137.455 320.578 143.091 320.049 148.641 320.242C154.208 320.407 159.763 321.303 165.194 322.505C176.03 325.127 186.489 329.212 196.102 334.761C196.184 334.814 196.229 334.922 196.158 335.031C196.105 335.112 195.997 335.158 195.915 335.105C190.918 332.71 185.814 330.595 180.667 328.723C175.475 326.861 170.23 325.198 164.871 324.003C159.539 322.71 154.065 321.868 148.622 321.513C143.161 321.184 137.641 321.361 132.236 322.546C132.146 322.565 132.037 322.493 131.991 322.386C131.973 322.296 132.044 322.187 132.134 322.168L132.107 322.151Z" fill="white"/>
<path d="M270.955 402.903C297.169 414.907 324.652 424.092 352.848 429.703C359.893 431.112 366.982 432.395 374.123 433.363C381.228 434.385 388.412 435.108 395.528 435.048C402.625 434.898 410.025 434.287 415.952 430.295C421.934 426.457 425.654 419.846 427.715 413.039C427.759 412.912 427.885 412.839 428.011 412.884C428.138 412.928 428.211 413.054 428.167 413.18C426.295 420.113 422.731 427.02 416.598 431.265C413.568 433.392 410.019 434.711 406.448 435.471C402.841 436.168 399.204 436.496 395.593 436.607C388.325 436.839 381.077 436.035 373.919 435.095C366.76 434.154 359.617 432.953 352.528 431.552C338.375 428.652 324.351 424.904 310.707 420.163C297.028 415.476 283.685 409.804 270.787 403.337C270.678 403.265 270.605 403.139 270.676 403.031C270.748 402.922 270.855 402.876 270.982 402.921L270.955 402.903Z" fill="white"/>
<path d="M118.69 325.65C126.472 325.523 134.273 326.847 141.772 328.984C149.255 331.265 156.428 334.314 163.308 337.987C163.39 338.04 163.435 338.148 163.391 338.275C163.338 338.356 163.23 338.402 163.148 338.348C155.914 335.57 148.778 332.584 141.377 330.473C133.994 328.219 126.418 326.848 118.72 326.019C118.603 326.02 118.53 325.894 118.556 325.795C118.583 325.696 118.663 325.632 118.753 325.614L118.69 325.65Z" fill="white"/>
<path d="M272.558 425.735C283.841 430.518 295.257 434.921 306.788 438.972C318.337 442.996 330 446.668 341.786 449.798C347.697 451.394 353.572 453.045 359.551 453.947C365.538 454.894 371.628 454.976 377.576 454.03C389.616 452.274 400.058 444.606 407.106 434.704C407.177 434.595 407.312 434.568 407.448 434.657C407.557 434.728 407.585 434.863 407.513 434.972C404.089 440.066 399.924 444.751 394.904 448.367C389.885 451.984 384.002 454.488 377.865 455.543C371.748 456.687 365.432 456.535 359.319 455.661C353.179 454.769 347.24 453.155 341.312 451.585C329.498 448.32 317.772 444.685 306.267 440.417C294.744 436.177 283.442 431.422 272.39 426.169C272.281 426.098 272.208 425.972 272.279 425.863C272.351 425.755 272.459 425.709 272.585 425.753L272.558 425.735Z" fill="white"/>
<path d="M94.0622 332.306C98.6799 331.847 103.365 331.936 108.007 332.504C112.65 333.071 117.224 334.099 121.664 335.388C126.124 336.768 130.494 338.401 134.723 340.367C138.97 342.307 143.048 344.563 146.938 347.046C147.02 347.099 147.048 347.234 146.994 347.316C146.941 347.397 146.833 347.443 146.752 347.389C142.612 345.287 138.455 343.329 134.218 341.551C129.964 339.801 125.665 338.177 121.224 336.887C116.837 335.516 112.363 334.515 107.827 333.784C103.273 333.081 98.6856 332.667 94.074 332.703C93.9569 332.703 93.8662 332.605 93.8925 332.506C93.8917 332.388 93.9723 332.325 94.0622 332.306Z" fill="white"/>
<path d="M74.8049 336.575C89.2446 338.031 103.001 343.547 115.614 350.565C128.246 357.673 139.915 366.247 151.619 374.65C174.992 391.509 199.409 406.957 224.67 420.822C237.257 427.823 250.083 434.398 263.078 440.657C276.1 446.817 289.211 452.841 302.659 457.998C316.069 463.092 329.962 467.453 344.229 468.757C351.34 469.355 358.625 469.096 365.419 466.803C372.268 464.663 378.072 459.852 381.804 453.756C381.875 453.647 382.01 453.619 382.137 453.664C382.245 453.735 382.273 453.87 382.229 453.997C378.552 460.246 372.678 465.282 365.722 467.585C358.821 470.041 351.392 470.4 344.192 469.938C329.682 468.708 315.727 464.383 302.208 459.334C288.68 454.241 275.507 448.253 262.431 442.175C249.382 435.997 236.475 429.486 223.826 422.521C198.572 408.467 174.2 392.893 150.862 375.862C139.194 367.405 127.587 358.795 115.108 351.631C102.719 344.45 89.1688 338.798 74.8446 337.107C74.7003 337.089 74.6274 336.964 74.6266 336.846C74.6436 336.702 74.7692 336.629 74.8863 336.629L74.8049 336.575Z" fill="white"/>
<path d="M73.9409 337.063L105.228 364.068C115.648 373.064 126.149 381.996 136.917 390.521C147.632 399.128 158.829 407.119 170.195 414.911C181.535 422.685 193.151 430.096 205.016 437.011C228.683 450.876 253.654 462.995 280.167 470.22C293.423 473.774 307.039 476.01 320.757 476.019C334.449 476.127 348.233 473.847 360.924 468.554C361.031 468.509 361.185 468.571 361.231 468.679C361.277 468.787 361.214 468.94 361.107 468.986C348.435 474.486 334.59 477.037 320.783 477.163C306.939 477.227 293.17 475.046 279.833 471.555C253.105 464.422 227.946 452.413 204.126 438.602C192.243 431.598 180.653 424.087 169.322 416.241C158.009 408.368 146.82 400.304 136.105 391.581C114.576 374.341 94.2633 355.724 73.6821 337.398C73.5735 337.326 73.5633 337.164 73.6617 337.073C73.7331 336.965 73.8952 336.955 73.9859 337.053L73.9409 337.063Z" fill="white"/>
<path d="M477.923 290.158C467.911 314.516 446.813 334.027 421.692 342.26C415.482 344.316 409.336 346.569 403.035 348.526C396.769 350.429 390.222 351.99 383.51 351.732C376.806 351.52 370.233 349.215 364.659 345.624C359.041 342.043 354.137 337.611 349.296 333.142C339.659 324.194 330.702 314.567 320.334 306.615C310.09 298.474 297.796 293.454 285.312 289.67C272.802 285.985 259.77 283.745 246.71 283.976C233.749 284.232 220.376 287.366 210.01 295.512C209.929 295.576 209.812 295.576 209.721 295.478C209.657 295.397 209.657 295.28 209.755 295.189C220.111 286.881 233.6 283.512 246.677 283.138C259.862 282.717 273.011 284.956 285.611 288.623C298.158 292.37 310.641 297.398 321.083 305.593C331.623 313.579 340.652 323.215 350.271 332.072C355.075 336.479 359.997 340.884 365.488 344.304C370.952 347.705 377.156 350.039 383.598 350.236C390.059 350.522 396.463 349.06 402.693 347.212C408.94 345.337 415.113 343.101 421.36 341.108C446.167 333.058 467.178 314.034 477.607 289.988C477.66 289.907 477.768 289.861 477.867 289.888C477.949 289.941 477.994 290.049 477.968 290.148L477.923 290.158Z" fill="white"/>
<path d="M301.218 282.563C309.984 287.982 318.793 293.275 327.657 298.486C332.088 301.092 336.591 303.589 341.103 306.013C345.614 308.438 350.187 310.71 354.991 312.394C364.571 315.744 374.842 317.333 384.952 317.922C389.953 318.064 394.906 316.62 399.275 314.053C403.653 311.53 407.612 308.226 411.48 304.824C411.578 304.733 411.723 304.75 411.813 304.849C411.904 304.948 411.887 305.092 411.789 305.182C408.093 308.737 404.362 312.346 399.895 315.121C395.473 317.887 390.251 319.621 384.946 319.59C374.583 319.029 364.206 317.72 354.381 314.092C344.592 310.409 335.754 304.981 326.944 299.689C318.125 294.351 309.52 288.688 300.951 282.97C300.842 282.899 300.814 282.764 300.886 282.655C300.957 282.546 301.092 282.519 301.2 282.59L301.218 282.563Z" fill="white"/>
<path d="M192.651 300.937C201.861 298.873 211.336 297.529 220.815 298.014C230.295 298.499 239.742 300.984 248.097 305.55C256.451 310.115 264.003 315.901 271.518 321.625C278.998 327.403 286.325 333.353 293.948 338.914C301.569 344.357 309.692 349.275 317.804 354.031C325.988 358.678 334.278 363.163 342.932 366.798C351.568 370.46 360.595 373.291 369.881 374.543C379.14 375.777 388.694 375.378 397.691 372.513C397.826 372.486 397.953 372.53 397.981 372.665C398.026 372.773 397.964 372.926 397.829 372.954C388.898 376.134 379.149 377.066 369.719 375.796C360.262 374.626 351.082 371.851 342.303 368.288C333.514 364.681 325.044 360.351 316.913 355.505C308.773 350.614 300.794 345.596 293.082 340.054C285.45 334.448 278.158 328.444 270.696 322.639C263.244 316.879 255.719 311.11 247.509 306.562C239.291 302.087 230.112 299.428 220.731 298.852C211.341 298.232 201.91 299.45 192.717 301.37C192.583 301.397 192.474 301.326 192.446 301.191C192.418 301.056 192.489 300.947 192.624 300.92L192.651 300.937Z" fill="white"/>
<path d="M228.867 290.792C239.055 289.488 249.406 292.374 258.454 297.007C267.619 301.639 275.581 308.162 283.407 314.596C291.162 321.138 298.819 327.771 307.402 332.992C315.932 338.178 325.507 342.186 335.625 342.586C335.742 342.585 335.842 342.729 335.86 342.819C335.861 342.936 335.745 343.054 335.628 343.055C325.36 343.178 315.4 339.461 306.601 334.331C297.73 329.192 289.982 322.461 282.183 316.045C274.455 309.521 266.611 303.114 257.734 298.399C248.928 293.693 238.99 290.534 228.88 291.306C228.763 291.306 228.627 291.217 228.626 291.1C228.626 290.983 228.697 290.874 228.832 290.846L228.867 290.792Z" fill="white"/>
<path d="M-25.0236 331.245C-10.9253 334.109 1.90856 341.739 12.4957 351.428C17.7179 356.381 22.4308 361.932 25.987 368.238C29.5338 374.499 31.8975 381.613 31.7937 388.815C31.7946 388.932 31.6783 389.05 31.5612 389.051C31.4441 389.051 31.3262 388.935 31.3254 388.818C30.8895 381.727 28.2584 375.02 24.6411 368.985C21.0059 362.977 16.4109 357.542 11.2259 352.769C6.0944 347.915 0.372888 343.722 -5.69582 340.116C-11.7824 336.538 -18.2789 333.584 -25.1196 331.687C-25.246 331.643 -25.3367 331.544 -25.2747 331.391C-25.2305 331.264 -25.1322 331.173 -25.0057 331.218L-25.0236 331.245Z" fill="white"/>
<path d="M5.75455 336.882C14.2313 340.906 21.9617 346.421 28.6904 352.988C35.437 359.528 41.1547 367.101 46.1095 375.066C50.9658 383.121 55.0413 391.596 58.3802 400.364C61.7369 409.105 64.3749 418.111 66.4281 427.238C66.4561 427.373 66.3848 427.481 66.2499 427.509C66.1149 427.537 66.0063 427.466 65.9784 427.331C63.4397 418.351 60.4606 409.509 56.9698 400.913C53.4518 392.3 49.422 383.933 44.5487 376.021C39.7653 368.091 34.1205 360.644 27.6438 354.049C21.1671 347.453 13.7593 341.684 5.57712 337.271C5.46854 337.199 5.4134 337.046 5.48471 336.938C5.55603 336.829 5.66381 336.783 5.79022 336.828L5.75455 336.882Z" fill="white"/>
<path d="M19.7883 341.026C29.1921 346.243 38.0889 352.409 46.1368 359.572C54.2026 366.707 61.4288 374.885 67.4354 383.853C73.3791 392.858 78.1576 402.69 81.2642 413.054C84.3709 423.418 85.7871 434.225 85.6175 444.961C85.6183 445.078 85.5021 445.196 85.385 445.196C85.2679 445.197 85.1499 445.081 85.1491 444.963C84.7876 434.267 83.0302 423.625 79.808 413.495C76.5587 403.348 71.8625 393.687 65.9111 384.871C60.0402 375.992 52.932 367.932 45.1267 360.695C37.2765 353.468 28.675 347.03 19.5658 341.423C19.4572 341.352 19.4293 341.217 19.5006 341.108C19.5719 341 19.7069 340.972 19.8154 341.043L19.7883 341.026Z" fill="white"/>
<path d="M43.788 347.1C53.9946 352.456 63.0898 359.92 70.6086 368.717C78.1275 377.515 84.1685 387.556 88.7541 398.155C93.232 408.8 96.4886 420.002 98.2423 431.42C99.1192 437.129 99.5641 442.904 99.6578 448.681C99.4451 454.451 99.0797 460.275 97.271 465.811C97.2269 465.937 97.1013 466.01 96.9749 465.966C96.8485 465.921 96.8027 465.814 96.8197 465.669C99.6081 454.558 98.5731 442.874 96.7216 431.664C94.771 420.427 91.5695 409.378 87.0296 398.886C82.6247 388.367 76.6659 378.497 69.4262 369.688C62.1687 360.907 53.4869 353.288 43.5655 347.497C43.4569 347.426 43.4289 347.291 43.4731 347.164C43.5444 347.056 43.6794 347.028 43.8058 347.072L43.788 347.1Z" fill="white"/>
<path d="M66.237 343.403C70.883 348.404 75.3772 353.578 79.4503 359.096C83.4963 364.597 87.184 370.406 90.5129 376.407C97.1255 388.417 102.113 401.185 108.303 413.306C114.368 425.5 122.173 436.701 130.802 447.24C139.449 457.751 148.84 467.664 159.267 476.353C180.539 493.036 205.166 506.211 231.582 512.517C238.213 513.965 244.922 515.115 251.681 515.715C258.459 516.288 265.27 516.455 272.06 516.298C275.455 516.161 278.859 516.069 282.271 515.787C285.665 515.533 289.078 515.369 292.351 514.646C295.652 513.942 298.795 512.59 301.366 510.394C303.881 508.162 305.717 505.249 306.911 502.07C306.982 501.961 307.108 501.888 307.207 501.915C307.316 501.986 307.389 502.112 307.362 502.211C306.205 505.453 304.343 508.465 301.783 510.824C299.186 513.119 295.9 514.571 292.536 515.312C289.155 516.08 285.751 516.289 282.349 516.616C278.946 516.942 275.533 517.107 272.13 517.316C258.47 517.928 244.708 516.801 231.294 513.843C217.924 510.759 205.01 505.914 192.781 499.732L183.713 494.891L174.886 489.626L166.309 483.981C163.467 482.033 160.697 479.977 158.06 477.775C147.551 468.915 138.16 458.886 129.512 448.257C120.891 437.646 113.049 426.265 107.028 413.945C100.865 401.724 95.9672 388.938 89.4809 376.972C86.2692 370.97 82.7256 365.178 78.7603 359.614C74.7771 354.077 70.4086 348.83 65.8703 343.783C65.7617 343.712 65.7966 343.54 65.895 343.45C65.9664 343.341 66.1377 343.376 66.2285 343.475L66.237 343.403Z" fill="white"/>
<path d="M92.5961 410.282C97.1029 419.934 102.508 429.167 108.36 438.073C114.213 446.979 120.398 455.675 127.102 463.936C133.788 472.224 140.905 480.212 148.906 487.15C157.006 493.997 165.9 499.928 175.142 505.155C193.58 515.618 213.747 523.448 234.818 526.47C245.331 527.985 255.988 528.156 266.621 527.418C271.924 527.098 277.262 526.607 282.286 524.937C287.346 523.33 291.709 519.943 294.47 515.384C294.541 515.276 294.676 515.248 294.803 515.292C294.911 515.364 294.939 515.499 294.895 515.625C292.153 520.274 287.637 523.833 282.524 525.522C277.402 527.282 272.028 527.827 266.707 528.174C261.377 528.476 256.065 528.868 250.669 528.855C245.301 528.859 239.957 528.413 234.656 527.723C213.388 524.883 192.906 517.235 174.252 506.747C164.983 501.385 156.06 495.318 147.905 488.318C139.822 481.21 132.732 473.123 126.054 464.763C119.394 456.375 113.137 447.67 107.445 438.637C101.727 429.586 96.4834 420.226 92.12 410.474C92.0742 410.366 92.1362 410.212 92.2439 410.167C92.3517 410.121 92.5053 410.183 92.5511 410.291L92.5961 410.282Z" fill="white"/>
<path d="M94.7098 210.167C102.074 204.283 112.035 201.43 121.549 202.987C126.302 203.744 130.873 205.663 134.81 208.371C138.765 211.052 142.328 214.33 145.21 218.17C148.091 222.011 150.212 226.478 151.127 231.241C152.088 235.994 151.698 240.908 150.468 245.503C148.055 254.801 142.398 262.703 136.276 269.715C136.204 269.824 136.042 269.834 135.906 269.744C135.798 269.673 135.788 269.511 135.859 269.402C141.674 262.148 146.834 254.114 148.989 245.152C150.084 240.702 150.241 236.023 149.346 231.585C148.451 227.146 146.431 222.94 143.668 219.333C140.923 215.699 137.425 212.619 133.65 210.019C129.894 207.391 125.693 205.559 121.192 204.774C112.227 203.151 102.649 205.361 94.9557 210.562C94.8301 210.635 94.6858 210.618 94.6129 210.492C94.54 210.366 94.5571 210.222 94.6827 210.149L94.7098 210.167Z" fill="white"/>
<path d="M133.801 208.598C137.287 208.443 140.609 209.541 143.788 210.739C146.959 212.009 149.997 213.659 152.803 215.661C158.326 219.685 162.985 225.317 165.094 231.993C167.32 238.668 166.676 245.981 164.243 252.35C161.854 258.709 157.716 264.773 151.64 268.044C151.514 268.117 151.361 268.055 151.315 267.947C151.242 267.821 151.304 267.668 151.412 267.622C157.044 264.02 160.688 258.058 162.807 251.872C164.845 245.632 165.492 238.787 163.279 232.626C161.2 226.437 157.056 221.026 151.786 217.091C149.205 215.042 146.319 213.338 143.337 211.958C140.337 210.606 137.149 209.363 133.868 209.148C133.868 209.148 133.633 209.032 133.633 208.915C133.632 208.798 133.775 208.698 133.865 208.679L133.801 208.598Z" fill="white"/>
<path d="M114.426 202.88C117.382 199.15 121.608 196.682 125.974 194.89C130.403 193.178 135.089 192.258 139.854 192.167C149.374 191.94 158.965 195.57 166.035 201.972C169.615 205.106 172.569 209.072 174.446 213.496C176.323 217.919 177.095 222.781 176.768 227.542C176.049 236.983 171.798 246.355 164.325 252.167C164.227 252.258 164.056 252.223 163.965 252.124C163.874 252.025 163.909 251.854 164.007 251.763C167.572 248.822 170.158 244.886 171.984 240.684C173.838 236.5 174.987 231.969 175.155 227.453C175.34 222.909 174.561 218.353 172.767 214.217C170.955 210.109 168.146 206.394 164.721 203.44C161.314 200.459 157.423 197.976 153.169 196.343C148.933 194.682 144.388 193.907 139.83 193.862C135.271 193.817 130.692 194.574 126.36 196.077C122.074 197.572 117.81 199.742 114.771 203.185C114.699 203.293 114.537 203.303 114.429 203.232C114.32 203.16 114.31 202.998 114.381 202.89L114.426 202.88Z" fill="white"/>
<path d="M163.652 383.972C173.463 377.677 185.63 376.082 197.068 377.196C208.596 378.29 219.882 382.18 229.644 388.45C239.415 394.647 248.294 402.318 255.455 411.423C258.999 415.972 262.113 420.937 264.411 426.259C266.618 431.599 267.982 437.395 267.589 443.202C267.59 443.319 267.465 443.392 267.392 443.383C267.275 443.384 267.203 443.258 267.211 443.186C267.388 437.471 265.863 431.802 263.531 426.652C261.234 421.447 258.103 416.626 254.55 412.15C247.364 403.261 238.522 395.769 228.815 389.77C219.288 383.5 208.299 379.572 196.932 378.35C191.271 377.735 185.516 377.796 179.892 378.721C174.278 379.574 168.759 381.346 163.834 384.286C163.754 384.35 163.627 384.305 163.564 384.224C163.5 384.144 163.544 384.017 163.625 383.954L163.652 383.972Z" fill="white"/>
<path d="M146.379 372.446C151.902 367.411 158.396 363.443 165.395 360.779C172.42 358.133 179.869 356.738 187.361 356.459C202.346 355.902 217.414 359.599 230.623 366.776C243.71 374.378 253.682 386.423 260.403 399.749C267.079 413.084 270.68 428.439 268.169 443.27C268.143 443.369 268.044 443.46 267.945 443.434C267.846 443.407 267.755 443.309 267.781 443.209C268.839 435.858 268.364 428.353 266.819 421.116C265.319 413.87 262.74 406.846 259.362 400.269C252.616 387.159 242.654 375.393 229.867 368.105C217.018 360.971 202.166 357.183 187.387 357.604C172.681 358.033 157.879 362.987 146.624 372.723C146.57 372.805 146.426 372.788 146.362 372.707C146.281 372.653 146.298 372.509 146.379 372.446Z" fill="white"/>
<path d="M132.323 361.17C137.739 353.694 144.822 347.47 152.861 342.925C160.919 338.353 169.898 335.515 179.096 334.416C197.502 332.261 216.54 336.899 232.191 346.811C247.825 356.75 260.241 371.764 266.719 389.129C269.968 397.798 271.733 407.008 272.094 416.226C272.364 425.462 271.112 434.708 268.417 443.547C268.363 443.629 268.292 443.737 268.165 443.693C268.084 443.639 267.975 443.568 268.047 443.459C273.069 425.81 272.082 406.655 265.614 389.568C259.102 372.492 246.778 357.81 231.345 348.159C216.054 338.29 197.358 333.605 179.204 335.614C161.139 337.604 143.727 346.827 132.64 361.457C132.587 361.538 132.452 361.566 132.37 361.513C132.289 361.459 132.261 361.324 132.314 361.243L132.323 361.17Z" fill="white"/>
<path d="M163.943 383.116C172.19 382.518 180.545 383.235 188.592 385.188C196.64 387.141 204.409 390.349 211.571 394.597C218.681 398.926 225.158 404.277 230.641 410.49C236.169 416.694 240.721 423.732 244.069 431.301C244.115 431.409 244.071 431.535 243.981 431.554C243.873 431.599 243.774 431.573 243.728 431.465C240.03 424.133 235.255 417.375 229.719 411.36C224.165 405.373 217.797 400.093 210.77 395.935C203.796 391.695 196.182 388.55 188.268 386.452C180.381 384.371 172.151 383.347 163.955 383.513C163.838 383.513 163.747 383.415 163.774 383.316C163.773 383.198 163.853 383.135 163.943 383.116Z" fill="white"/>
<path d="M162.893 383.593C168.567 383.596 174.229 384.446 179.717 386.036C185.204 387.625 190.426 389.974 195.346 392.901C200.204 395.864 204.758 399.406 208.705 403.52C212.669 407.606 216.087 412.227 218.743 417.24C218.789 417.348 218.762 417.447 218.655 417.493C218.547 417.538 218.448 417.512 218.384 417.431C215.379 412.655 211.782 408.305 207.765 404.417C203.748 400.53 199.329 397.077 194.518 394.222C189.76 391.285 184.619 388.99 179.311 387.246C173.985 385.529 168.473 384.39 162.85 383.954C162.733 383.955 162.66 383.829 162.668 383.757C162.668 383.64 162.775 383.594 162.865 383.575L162.893 383.593Z" fill="white"/>
<path d="M73.7705 337.854C81.6623 348.569 89.4735 359.346 97.5087 369.96C105.499 380.584 113.633 391.107 122.286 401.195C130.993 411.201 139.986 421.008 149.909 429.754C159.796 438.555 170.372 446.604 181.429 453.919C203.463 468.615 227.566 480.396 253.043 487.6C265.786 491.166 278.917 493.549 292.158 493.633C298.761 493.702 305.413 493.104 311.834 491.498C318.236 489.919 324.459 487.134 329.445 482.68C324.604 487.268 318.4 490.261 312 492.074C305.554 493.896 298.849 494.693 292.176 494.849C278.801 495.027 265.473 492.826 252.56 489.459C226.698 482.546 202.405 470.64 180.074 455.982C168.989 448.531 158.368 440.375 148.425 431.421C138.465 422.495 129.39 412.635 120.844 402.384C112.315 392.106 104.316 381.438 96.5497 370.651C88.837 359.783 81.3576 348.796 73.7883 337.827L73.7705 337.854Z" fill="white"/>
<path d="M292.643 281.235C296.4 278.771 301.061 276.706 305.673 275.427C310.33 274.137 315.181 273.559 320.036 273.566C329.755 273.509 339.32 275.994 348.227 279.718C352.69 281.567 356.984 283.849 361.125 286.185C365.312 288.513 369.525 290.741 373.782 292.961C377.995 295.189 382.271 297.381 386.581 299.401C390.9 301.35 395.257 303.595 399.822 304.578L399.876 304.613C399.876 304.613 400.093 304.756 400.067 304.856C400.041 304.955 399.942 305.046 399.825 305.046C397.346 304.736 395.106 303.884 392.813 303.114C390.538 302.316 388.316 301.437 386.102 300.486C381.676 298.583 377.356 296.518 373.072 294.398C368.778 292.233 364.52 290.014 360.343 287.731C356.094 285.44 351.971 283.193 347.581 281.353C338.881 277.61 329.551 275.241 320.1 275.008C310.587 274.812 301.233 276.859 292.664 281.677C292.583 281.74 292.457 281.696 292.438 281.606C292.374 281.525 292.401 281.426 292.508 281.38L292.778 281.207L292.643 281.235Z" fill="white"/>
<path d="M-79.1325 363.367C-76.7588 360.108 -73.3401 358.159 -70.0572 356.121C-68.3521 355.183 -66.6376 354.289 -64.8681 353.549C-63.1173 352.718 -61.3113 352.041 -59.451 351.399C-52.1271 348.832 -44.4074 347.498 -36.6533 347.236C-28.8993 346.974 -21.0821 348.036 -13.6718 350.192C-6.14597 352.112 0.797126 355.749 7.44399 359.54C7.55257 359.612 7.58057 359.747 7.5364 359.873C7.46508 359.982 7.33015 360.01 7.23088 359.983C0.325889 356.644 -6.62334 353.431 -14.0576 351.726C-17.6864 350.621 -21.4996 350.211 -25.2422 349.575L-30.9112 349.149C-32.7949 348.998 -34.7033 349.18 -36.5862 349.146C-44.1519 349.299 -51.7095 350.623 -58.9451 352.937C-60.7519 353.498 -62.5493 354.103 -64.2916 354.861C-66.0798 355.512 -67.7763 356.378 -69.4822 357.199C-72.8032 358.94 -76.3127 360.791 -78.6982 363.653L-78.7338 363.707C-78.7338 363.707 -78.9673 363.826 -79.058 363.727C-79.1666 363.656 -79.1767 363.493 -79.0961 363.43L-79.1325 363.367Z" fill="white"/>
<path d="M-64.9943 388.303C-62.6942 384.801 -59.8147 381.72 -56.7444 378.88C-55.1232 377.537 -53.5834 376.14 -51.8078 374.976C-50.1229 373.713 -48.3108 372.612 -46.4801 371.6C-39.158 367.438 -30.8787 364.956 -22.46 364.392C-14.032 363.874 -5.564 365.248 2.39946 367.923C10.4427 370.418 17.6707 374.864 24.6288 379.366C24.7374 379.437 24.7653 379.572 24.694 379.681C24.6226 379.789 24.4878 379.817 24.3792 379.746L18.9445 376.713C17.1358 375.678 15.3542 374.661 13.4122 373.888L7.77376 371.344C5.84104 370.616 3.86407 370.015 1.92284 369.359C-5.93974 366.945 -14.1464 365.587 -22.3215 366.194C-30.5068 366.639 -38.5163 369.066 -45.7415 372.903C-52.9667 376.74 -59.5518 381.97 -64.6142 388.553C-64.6856 388.661 -64.8476 388.671 -64.9562 388.6C-65.0648 388.529 -65.0749 388.366 -65.0214 388.285L-64.9943 388.303Z" fill="white"/>
<path d="M-14.5396 420.809C-10.2265 416.611 -4.90654 413.425 0.744771 411.273C6.41391 409.095 12.4415 407.969 18.4833 407.591C24.5259 407.33 30.6369 407.853 36.5194 409.197C42.4197 410.514 48.1093 412.626 53.4965 415.316C53.6051 415.388 53.678 415.513 53.6067 415.622C53.5354 415.731 53.4276 415.776 53.3012 415.732C47.7551 413.52 42.0323 411.814 36.2236 410.713C30.4149 409.612 24.493 409.097 18.5862 409.447C12.7056 409.698 6.83998 410.814 1.27702 412.712C-4.27662 414.656 -9.59974 417.373 -14.213 421.141C-14.3115 421.232 -14.4558 421.214 -14.5465 421.116C-14.6373 421.017 -14.6202 420.873 -14.5218 420.782L-14.5396 420.809Z" fill="white"/>
<path d="M-42.5653 405.709C-41.2198 402.24 -38.137 399.914 -35.1866 397.968C-32.1099 396.066 -28.8322 394.569 -25.4808 393.314C-18.7508 390.823 -11.6622 389.384 -4.56966 388.531C2.54153 387.768 9.74751 387.69 16.8606 388.522C23.9738 389.354 31.0126 391.188 37.4656 394.268C37.5742 394.34 37.6471 394.465 37.5758 394.574C37.5045 394.683 37.3967 394.728 37.2703 394.684C30.6678 392.127 23.7127 390.699 16.709 390.055C9.68744 389.439 2.62574 389.534 -4.37686 390.369C-11.3803 391.086 -18.2974 392.56 -24.9934 394.762C-28.3278 395.873 -31.5885 397.226 -34.6126 398.929C-37.5916 400.623 -40.7032 402.696 -42.1589 405.86C-42.1589 405.86 -42.3558 406.041 -42.4822 405.997C-42.5908 405.925 -42.6366 405.817 -42.5924 405.691L-42.5653 405.709Z" fill="white"/>
</svg>
