<svg width="26" height="26" viewBox="0 0 26 26" fill="none" xmlns="http://www.w3.org/2000/svg">
<path d="M25.8327 13.0038C25.8263 16.1589 24.6755 19.2031 22.5963 21.5649C20.5172 23.9267 17.6526 25.4436 14.5406 25.8308C14.4712 25.8377 14.401 25.83 14.3347 25.8083C14.2683 25.7866 14.2071 25.7513 14.155 25.7046C14.1028 25.658 14.0608 25.601 14.0316 25.5372C14.0024 25.4735 13.9866 25.4043 13.9853 25.3341V15.984H16.9471C17.0821 15.9842 17.2158 15.9566 17.3397 15.9029C17.4637 15.8491 17.5754 15.7703 17.668 15.6714C17.7605 15.5725 17.8319 15.4555 17.8777 15.3277C17.9235 15.2 17.9428 15.0641 17.9344 14.9285C17.9126 14.6716 17.7947 14.4327 17.6046 14.2598C17.4145 14.087 17.1663 13.9931 16.9101 13.9972H13.9853V11.0171C13.9853 10.4902 14.1933 9.98482 14.5636 9.61223C14.9339 9.23964 15.4361 9.03032 15.9598 9.03032H17.9344C18.0694 9.03059 18.203 9.00299 18.327 8.94923C18.451 8.89547 18.5627 8.8167 18.6553 8.71778C18.7478 8.61885 18.8192 8.50189 18.865 8.3741C18.9108 8.24632 18.9301 8.11044 18.9217 7.97486C18.8998 7.718 18.782 7.47903 18.5919 7.30618C18.4018 7.13334 18.1536 7.03949 17.8974 7.04357H15.9598C14.9124 7.04357 13.908 7.46221 13.1674 8.20739C12.4267 8.95256 12.0107 9.96324 12.0107 11.0171V13.9972H9.04882C8.91381 13.9969 8.78018 14.0245 8.65619 14.0783C8.5322 14.1321 8.42048 14.2108 8.32795 14.3098C8.23542 14.4087 8.16403 14.5256 8.11821 14.6534C8.07238 14.7812 8.0531 14.9171 8.06153 15.0527C8.08337 15.3095 8.20124 15.5485 8.39135 15.7213C8.58146 15.8942 8.82965 15.988 9.08584 15.984H12.0107V25.3341C12.011 25.4037 11.9968 25.4727 11.969 25.5364C11.9411 25.6001 11.9003 25.6573 11.8491 25.7041C11.7979 25.751 11.7375 25.7864 11.6718 25.8083C11.6061 25.8301 11.5365 25.8378 11.4677 25.8308C4.95158 25.0361 -0.0835756 19.3366 0.175587 12.5196C0.321067 9.15298 1.76864 5.97697 4.20931 3.66945C6.64998 1.36193 9.89041 0.105698 13.2389 0.1689C16.5874 0.232102 19.7787 1.60973 22.1317 4.00773C24.4846 6.40573 25.8128 9.63413 25.8327 13.0038Z" fill="#3D3331"/>
</svg>
