<svg width="25" height="22" viewBox="0 0 25 22" fill="none" xmlns="http://www.w3.org/2000/svg">
<path d="M23.8732 4.49854L20.5701 7.79073C19.9139 15.436 13.4607 21.3751 5.7498 21.3751C4.16387 21.3751 2.85137 21.1235 1.85605 20.6314C1.05762 20.2267 0.729491 19.8001 0.641991 19.6689C0.569595 19.5589 0.522945 19.434 0.505516 19.3035C0.488088 19.173 0.500329 19.0403 0.54133 18.9152C0.58233 18.7901 0.651033 18.6758 0.742318 18.581C0.833603 18.4861 0.945117 18.4131 1.06855 18.3673C1.09043 18.3564 3.67168 17.372 5.34512 15.4798C4.3073 14.7408 3.39513 13.8397 2.64355 12.811C1.14512 10.7767 -0.440822 7.24385 0.51074 1.97198C0.540654 1.81525 0.612338 1.66951 0.718222 1.55015C0.824106 1.43079 0.96026 1.34224 1.1123 1.29385C1.26483 1.24391 1.42816 1.23688 1.58441 1.27353C1.74067 1.31018 1.88383 1.38911 1.99824 1.50166C2.03105 1.54542 5.67324 5.13292 10.1248 6.29229V5.6251C10.1291 4.93135 10.27 4.24524 10.5395 3.60594C10.8089 2.96664 11.2017 2.38668 11.6953 1.89917C12.1889 1.41166 12.7737 1.02615 13.4163 0.764648C14.0589 0.503148 14.7467 0.37078 15.4404 0.375103C16.351 0.388089 17.2426 0.636708 18.0285 1.09674C18.8144 1.55677 19.4677 2.21252 19.9248 3.0001H23.2498C23.4226 2.99956 23.5916 3.05017 23.7356 3.14554C23.8797 3.24092 23.9922 3.37679 24.0592 3.53604C24.1222 3.69766 24.1382 3.87383 24.1053 4.04416C24.0724 4.21449 23.9919 4.37203 23.8732 4.49854Z" fill="#3D3331"/>
</svg>
