<svg width="1083" height="519" viewBox="0 0 1083 519" fill="none" xmlns="http://www.w3.org/2000/svg">
<path d="M316.123 475.107C324.313 469.953 332.615 464.975 340.962 460.076C355.869 451.337 370.821 442.66 385.946 434.299C416.476 417.416 447.472 401.785 478.927 390.765C494.862 385.184 511.163 380.515 527.816 377.635C535.627 376.283 541.844 375.526 550.78 375.295C558.78 375.082 566.79 375.378 574.748 376.242C575.789 376.358 576.829 376.474 577.867 376.601C578.234 376.654 579.532 376.834 579.642 376.841C581.502 377.121 583.36 377.411 585.206 377.743C588.888 378.404 592.562 379.142 596.204 379.994C603.767 381.768 611.248 383.891 618.619 386.359C622.449 387.643 626.261 388.99 630.041 390.418C631.787 391.083 633.527 391.751 635.267 392.436C636.139 392.782 637.001 393.125 637.866 393.474C638.039 393.543 638.186 393.599 638.306 393.654C638.447 393.714 638.644 393.795 638.891 393.9C646.088 396.895 653.199 400.062 660.257 403.367C682.578 413.813 704.876 424.528 726.618 436.131C738.652 442.553 750.532 449.276 762.075 456.548C767.93 460.238 773.72 464.044 779.367 468.048C780.927 469.156 782.487 470.264 784.028 471.4C784.685 471.879 785.339 472.369 785.989 472.851C786.018 472.87 786.047 472.889 786.069 472.912C786.166 472.989 786.292 473.084 786.45 473.205C788.991 475.154 791.502 477.128 793.96 479.178C798.87 483.253 803.65 487.501 808.129 492.056C810.333 494.296 812.486 496.584 814.53 498.96C815.446 500.024 816.348 501.096 817.227 502.19C817.39 502.397 817.748 502.863 817.974 503.148C818.139 503.371 818.303 503.595 818.468 503.819C820.272 506.299 821.987 508.856 823.533 511.503C801.662 505.806 780.744 496.655 761.288 484.228C740.008 470.633 720.718 453.943 698.712 441.483C676.259 428.769 651.444 421.099 626.535 414.492C614.018 411.172 601.517 407.603 588.657 405.773C576.43 404.028 563.963 403.784 551.615 404.526C527.834 405.956 504.518 412.1 482.095 420.082C436.462 436.324 394.196 460.664 348.848 477.644C332.929 483.605 315.171 486.487 297.951 487.005C304.047 483.096 309.984 478.943 316.111 475.087L316.123 475.107Z" fill="#FBF8F8"/>
<path d="M272.507 454.306C306.398 435.429 338.778 414.026 372.108 394.208C388.752 384.307 405.633 374.773 423.009 366.219C440.926 357.405 457.106 350.471 475.991 344.284C493.885 338.42 512.016 334.191 530.651 331.51C532.798 331.199 534.947 330.906 537.097 330.629C537.444 330.587 538.982 330.399 539.029 330.389C540.031 330.271 541.027 330.156 542.033 330.044C546.027 329.605 550.022 329.201 554.03 328.878C562.322 328.205 570.627 327.755 578.944 327.616C595.416 327.334 611.918 328.071 628.274 330.086C628.561 330.124 631.358 330.491 631.014 330.433C631.842 330.548 632.658 330.661 633.483 330.786C635.43 331.078 637.377 331.369 639.326 331.695C643.213 332.344 647.093 333.042 650.955 333.83C659.018 335.474 667.027 337.407 674.936 339.689C682.888 341.982 690.731 344.594 698.485 347.48C700.3 348.157 702.11 348.855 703.908 349.578C704.274 349.738 705.39 350.2 705.507 350.247C706.359 350.605 707.208 350.973 708.055 351.351C711.451 352.85 714.82 354.409 718.143 356.074C732.152 363.081 745.5 371.381 758.067 380.733C758.524 381.08 758.772 381.264 758.818 381.299C759.121 381.532 759.434 381.767 759.736 382C760.488 382.583 761.248 383.162 761.994 383.749C763.496 384.925 764.991 386.106 766.468 387.315C769.439 389.732 772.377 392.186 775.258 394.708C781.294 399.982 787.166 405.449 792.838 411.12C804.216 422.504 814.9 434.589 824.834 447.258C825.198 447.721 825.566 448.19 825.934 448.658C825.983 448.728 826.042 448.799 826.109 448.885C826.69 449.646 827.282 450.411 827.861 451.183C829.02 452.716 830.173 454.254 831.313 455.799C833.579 458.88 835.825 461.989 838.015 465.123C842.53 471.594 846.904 478.174 851.082 484.875C857.87 495.759 864.218 506.906 870.093 518.308C862.703 518.045 855.366 517.414 848.114 516.407C844.379 504.238 836.747 493.24 828.463 483.812C810.604 463.5 787.444 447.769 764.412 433.929C743.099 421.123 720.908 409.858 698.513 399.084C671.554 386.122 644.688 372.584 615.917 364.039C600.398 359.426 584.395 356.26 568.224 355.164C551.293 354.021 534.407 355.426 517.765 358.708C483.399 365.498 450.476 378.773 419.039 393.976C387.768 409.102 357.596 426.451 327.706 444.106C319.371 449.024 311.071 454.02 302.918 459.24C294.964 464.328 287.284 469.815 279.086 474.513C272.969 478.018 267.083 481.141 261.242 483.974C251.726 481.868 242.496 478.631 233.929 474.092C247.006 467.914 259.881 461.356 272.528 454.311L272.507 454.306Z" fill="#FBF8F8"/>
<path d="M262.725 414.359C300.387 392.818 337.688 370.804 376.564 351.474C416.01 331.858 456.011 314.551 497.69 300.397C517.615 293.636 537.866 286.935 558.486 282.604C562.843 281.69 567.218 280.854 571.616 280.164C576.401 279.41 578.082 279.165 582.1 278.739C590.468 277.845 598.867 277.296 607.286 277.196C615.639 277.089 623.999 277.333 632.326 277.993C641.471 278.721 646.993 279.382 655.534 280.857C672.036 283.708 688.303 287.899 704.127 293.406C708.268 294.847 712.39 296.361 716.475 297.966C720.213 299.444 721.878 300.12 726.25 302.038C734.053 305.47 741.748 309.158 749.28 313.145C764.774 321.347 779.925 330.5 793.966 341.028C808.31 351.788 823.708 365.983 836.937 379.669C851.004 394.226 864.248 409.549 876.972 425.288C889.691 441.004 900.563 455.759 913.131 471.933C911.297 469.568 913.572 472.528 913.897 472.968C914.42 473.675 914.95 474.378 915.466 475.088C916.573 476.608 917.671 478.142 918.739 479.685C921.018 482.988 923.24 486.332 925.324 489.757C927.495 493.334 929.603 496.984 931.382 500.771C931.633 501.298 931.874 501.822 932.112 502.357C932.258 502.733 932.552 503.457 932.63 503.669C933.107 505.03 933.519 506.403 933.83 507.816C934.149 509.242 934.792 510.508 935.674 511.591C921.752 514.789 907.607 516.894 893.475 517.887C893.068 517.918 892.664 517.939 892.254 517.964C892.06 516.801 891.689 515.653 891.145 514.542C886.165 504.49 880.831 494.607 875.128 484.946C842.507 429.746 798.271 378.138 742.242 345.753C684.862 312.59 615.45 302.602 550.124 308.703C532.587 310.342 514.75 312.536 497.624 316.743C477.677 321.641 458.294 328.345 439.368 336.299C403.544 351.355 370.048 371.145 337.046 391.517C303.976 411.938 271.146 432.944 236.292 450.245C229.254 453.733 222.144 457.113 214.986 460.361C210.504 455.755 206.842 450.454 204.379 444.381C224.372 435.546 243.719 425.225 262.734 414.344L262.725 414.359Z" fill="#FBF8F8"/>
<path d="M422.802 29.154C371.472 45.8712 321.881 67.3794 272.691 89.5057C226.838 110.131 180.943 130.593 135.583 152.287C118.733 160.343 101.863 168.411 84.8163 176.05C107.031 160.198 130.858 146.494 154.412 132.869C187.159 113.927 220.644 96.231 254.861 80.0947C327.669 45.7572 404.709 17.8156 484.463 6.03879C502.335 3.40057 520.382 1.6618 538.434 0.990234C499.254 7.36552 460.499 16.8839 422.795 29.1579L422.802 29.154Z" fill="#FBF8F8"/>
<path d="M37.5496 217.216C37.5496 217.216 37.5828 217.197 37.5999 217.196C81.2405 201.397 122.896 180.842 164.74 160.904C211.063 138.84 258.059 118.078 304.975 97.3173C353.176 75.9919 402.055 55.841 452.818 41.3894C499.055 28.2325 546.336 18.1885 594.344 14.6272C606.621 13.7152 618.931 13.1376 631.245 13.0096C634.71 12.9733 638.28 12.7349 641.742 12.9837C642.342 13.0266 645.491 13.3938 644.756 13.2697C648.115 13.7547 651.456 14.33 654.791 14.9263C658.667 15.6171 662.54 16.3185 666.418 16.9818C681.147 21.6799 695.577 27.4705 709.584 34.4605C750.663 54.9588 784.444 86.0675 818.895 115.639C803.451 108.752 787.723 102.49 771.754 96.9156C681.222 65.3204 584.293 56.8667 489.381 69.3165C390.232 82.3193 294.618 117.463 207.563 166.141C154.125 196.02 103.817 231.091 50.6164 261.381C34.6985 270.439 18.4273 279.16 1.8011 287.114C6.22511 260.554 19.7993 237.215 37.5429 217.22L37.5496 217.216Z" fill="#FBF8F8"/>
<path d="M234.034 175.085C320.114 129.377 414.448 96.7689 511.79 87.2253C606.101 77.9803 701.474 90.1901 789.62 125.392C812.205 134.412 834.229 144.941 855.529 156.684C878.685 169.452 900.428 184.107 922.463 198.656C974.836 233.231 1030.97 264.646 1074.72 310.368C1080.61 330.201 1083.41 350.624 1082.74 369.742C1072.91 355.461 1062.39 341.638 1051.44 328.224C1018.52 287.918 981.022 250.383 938.056 220.79C916.927 206.232 894.064 194.94 871.094 183.612C846.11 171.297 820.853 159.52 795.06 148.991C742.777 127.645 688.329 111.698 631.916 106.539C576.069 101.425 518.715 108.798 464.677 123.079C409.964 137.538 357.305 159.296 306.85 184.763C259.67 208.578 213.921 235.283 169.835 264.426C129.239 291.261 88.6686 318.737 44.5735 339.603C33.0497 345.053 21.0822 350.149 8.80824 354.483C3.2769 340.688 0.473533 325.611 0.167786 310.736C81.9529 273.941 155.166 216.965 234.04 175.082L234.034 175.085Z" fill="#FBF8F8"/>
<path d="M983.146 213.541C973.154 207.055 963.194 200.515 953.243 193.961C971.73 199.453 990.465 204.776 1006.98 214.856C1026.05 226.483 1041.99 243.821 1054.27 263.995C1031.65 245.716 1007.52 229.373 983.146 213.541Z" fill="#FBF8F8"/>
<path d="M119.972 321.217C161.305 295.566 201.016 267.551 243.042 242.995C338.475 187.233 442.826 137.737 554.336 127.614C582.334 125.075 610.687 124.651 638.657 127.748C666.181 130.792 693.412 136.518 719.994 144.229C773.181 159.648 823.625 182.667 873.011 207.455C895.513 218.752 917.284 230.498 937.565 245.519C958.041 260.693 977.103 277.878 994.999 296.002C1026.16 327.559 1054.65 362.257 1078.1 399.983C1074.24 413.618 1068.09 426.363 1060.02 437.906C1059.64 437.568 1059.26 437.22 1058.9 436.86C1057.66 435.607 1056.45 434.313 1055.32 432.945C1053.74 431.008 1050.64 426.552 1048.54 423.29C1042.64 414.155 1037.23 404.727 1030.54 396.137C1023.71 387.35 1015.74 379.259 1008.02 371.27C990.412 353.067 971.8 335.835 952.308 319.668C913.437 287.436 871.511 258.712 825.541 237.587C783.613 218.314 741.155 199.073 696.458 187.096C651.224 174.97 604.539 171.212 558.108 177.871C530.537 181.827 503.079 188.521 476.299 196.081C450.645 203.327 425.355 211.859 400.595 221.756C350.587 241.745 302.778 266.507 256.444 293.886C211.635 320.367 168.007 348.892 121.321 372.059C98.2943 383.486 74.3128 393.872 49.5863 401.512C45.392 399.182 41.3435 396.538 37.4666 393.547C29.8996 387.705 23.5411 380.661 18.3461 372.812C54.1177 359.981 87.8607 341.154 119.976 321.224L119.972 321.217Z" fill="#FBF8F8"/>
<path d="M150.843 379.87C197.244 355.089 241.091 325.978 286.791 299.982C332.543 273.956 379.862 250.46 429.443 232.612C454.885 223.453 480.803 215.594 507.081 209.2C532.756 202.959 558.807 197.138 585.241 195.521C630.135 192.774 674.187 200.416 716.707 214.614C737.916 221.693 758.653 230.071 779.128 239.052C800.763 248.541 822.604 257.972 843.356 269.288C887.814 293.524 928.69 324.385 965.813 358.723C974.976 367.192 983.946 375.878 992.625 384.856C1000.37 392.861 1008.48 400.923 1015.34 409.712C1014.9 409.168 1016.93 411.944 1017.13 412.234C1017.8 413.216 1018.48 414.195 1019.14 415.189C1020.51 417.28 1021.87 419.389 1023.2 421.516C1025.95 425.9 1028.64 430.329 1031.49 434.655C1035.97 441.454 1040.75 448.48 1047.06 453.742C1039.93 461.228 1031.9 468.013 1023.09 473.983C1020.07 476.029 1017 478.005 1013.89 479.915C1013.75 478.527 1013.35 477.133 1012.66 475.832C993.798 439.914 965.321 408.814 935.538 381.626C903.706 352.56 871.088 323.957 836.636 298.031C802.278 272.176 765.53 249.814 724.457 236.436C686.496 224.066 646.348 218.205 606.421 219.517C568.016 220.782 529.937 228.008 493.285 239.374C418.184 262.674 348.903 301.019 280.473 339.032C245.821 358.277 211.231 377.629 175.514 394.861C160.883 401.919 145.932 408.896 130.644 414.998C113.736 416.716 96.359 416.335 79.8771 412.737C104.302 403.502 127.971 392.084 150.837 379.874L150.843 379.87Z" fill="#FBF8F8"/>
<path d="M204.518 413.127C206.007 408.763 207.952 404.561 210.254 400.533C263.279 373.388 314.49 342.609 367.389 315.244C401.968 297.359 436.643 280.914 472.369 268.003C507.466 255.323 545.439 245.247 581.403 241.684C620.036 237.855 658.216 240.047 695.436 249.403C715.165 254.364 734.269 260.694 752.313 269.389C771.574 278.673 789.893 289.819 807.427 302.028C842.277 326.299 874.229 354.606 906.052 382.784C938.702 411.687 970.858 442.831 992.278 481.236C992.295 484.438 993.865 487.646 996.304 489.741C982.687 496.639 968.421 502.319 953.791 506.757C954.005 505.412 953.972 504.006 953.658 502.604C951.066 490.926 943.729 479.889 937.029 470.184C934.807 466.964 932.525 463.777 930.131 460.673C929.252 459.535 928.384 458.399 927.493 457.268C929.043 459.249 926.722 456.209 926.621 456.081C925.219 454.219 923.809 452.36 922.4 450.502C916.103 442.201 909.775 433.936 903.35 425.736C890.891 409.826 878.099 394.153 864.528 379.169C838.32 350.218 809.288 324.287 775.577 304.349C716.846 269.612 647.546 250.163 579.133 258.55C559.981 260.901 541.545 265.245 523.073 270.769C501.742 277.147 480.666 284.351 459.892 292.355C418.126 308.443 377.482 327.316 337.945 348.276C300.677 368.032 264.949 390.518 227.711 410.31C219.194 414.838 210.683 419.07 202.102 422.98C202.593 419.617 203.431 416.302 204.517 413.11L204.518 413.127Z" fill="#FBF8F8"/>
</svg>
