<svg viewBox="0 0 90 92" fill="none" xmlns="http://www.w3.org/2000/svg">
  <path d="M31.1859 3.06445C33.6089 9.38065 35.6014 15.8597 37.4243 22.3884C39.2472 28.9171 40.8362 35.4045 42.2557 41.9417C43.6752 48.4788 45.0032 55.0794 46.0836 61.7159C47.1641 68.3525 48.075 75.0387 48.491 81.7968C45.99 75.4669 44.0755 69.0016 42.239 62.5501C40.4161 56.0214 38.8271 49.5339 37.4076 42.9968C35.9881 36.4596 34.7381 29.8728 33.6712 23.1591C32.5128 16.5088 31.6019 9.82256 31.1859 3.06445Z" fill="#FFC42C"/>
  <path d="M3.63473 57.6535C9.61626 54.7292 15.6857 52.2183 21.7922 49.9527C27.9123 47.6099 34.1475 45.5261 40.4335 43.6104C46.7194 41.6947 52.9918 39.8563 59.3792 38.2768C65.7667 36.6973 72.2048 35.286 78.7309 34.288C72.8273 37.2261 66.68 39.7233 60.5598 42.0661C54.4397 44.4089 48.2045 46.4927 41.9185 48.4083C35.6326 50.324 29.3602 52.1625 22.9728 53.742C16.6769 55.258 10.2251 56.7465 3.63473 57.6535Z" fill="#FFC42C"/>
  <path d="M54.6895 15.6454C52.9263 21.5418 50.865 27.306 48.7257 33.0565C46.5085 38.7932 44.2269 44.439 41.725 49.9664C39.2875 55.5847 36.6297 61.0846 33.894 66.5708C31.0803 72.0432 28.2022 77.4247 24.948 82.6602C26.5552 76.7363 28.6166 70.9721 30.7559 65.2216C32.9731 59.4849 35.2547 53.8391 37.7566 48.3117C40.272 42.7072 42.8519 37.1935 45.5876 31.7074C48.4793 26.2487 51.2929 20.7763 54.6895 15.6454Z" fill="#FFC42C"/>
  <path d="M12.4379 31.4336C18.5346 33.7819 24.3938 36.5658 30.1615 39.4132C35.9155 42.3377 41.5644 45.4028 47.108 48.6086C52.6517 51.8143 58.1682 55.1744 63.5658 58.7523C68.9635 62.3302 74.2696 65.9716 79.2466 70.112C73.1498 67.7637 67.277 65.0569 61.523 62.1324C55.769 59.2079 50.1201 56.1427 44.5764 52.937C39.0327 49.7312 33.5163 46.3711 28.1186 42.7932C22.7989 39.2291 17.5064 35.5105 12.4379 31.4336Z" fill="#FFC42C"/>
</svg>
