<svg width="69" height="69" viewBox="0 0 69 69" fill="none" xmlns="http://www.w3.org/2000/svg">
<path d="M34.4649 0C27.6484 0 20.9849 2.02133 15.3172 5.80837C9.6495 9.59542 5.23206 14.9781 2.6235 21.2757C0.0149331 27.5733 -0.667586 34.5031 0.662248 41.1886C1.99208 47.8741 5.27454 54.0152 10.0945 58.8352C14.9145 63.6552 21.0556 66.9376 27.7411 68.2675C34.4266 69.5973 41.3564 68.9148 47.654 66.3062C53.9516 63.6976 59.3343 59.2802 63.1213 53.6125C66.9084 47.9448 68.9297 41.2813 68.9297 34.4648C68.9122 25.3296 65.2755 16.5735 58.8158 10.1139C52.3562 3.65425 43.6001 0.0175173 34.4649 0ZM46.5276 36.6852L30.6207 47.2897C30.182 47.5612 29.6784 47.71 29.1626 47.7206C28.7254 47.7202 28.2942 47.6181 27.9033 47.4223C27.4794 47.1935 27.1259 46.8536 26.8807 46.4391C26.6355 46.0245 26.5078 45.551 26.5114 45.0694V23.8603C26.5078 23.3787 26.6355 22.9051 26.8807 22.4906C27.1259 22.0761 27.4794 21.7362 27.9033 21.5074C28.3288 21.292 28.8031 21.1909 29.2795 21.2142C29.7559 21.2374 30.2181 21.3841 30.6207 21.6399L46.5276 32.2445C46.8968 32.4854 47.2001 32.8146 47.4101 33.2023C47.6201 33.59 47.73 34.024 47.73 34.4648C47.73 34.9057 47.6201 35.3397 47.4101 35.7274C47.2001 36.115 46.8968 36.4443 46.5276 36.6852Z" fill="white"/>
</svg>
