<svg width="18" height="18" viewBox="0 0 19 19" fill="none" xmlns="http://www.w3.org/2000/svg">
<path d="M9 0.0625C7.23233 0.0625 5.50436 0.586675 4.0346 1.56874C2.56483 2.55081 1.41929 3.94665 0.742831 5.57977C0.0663725 7.21288 -0.11062 9.00992 0.234236 10.7436C0.579091 12.4773 1.43031 14.0698 2.68024 15.3198C3.93017 16.5697 5.52268 17.4209 7.25638 17.7658C8.99009 18.1106 10.7871 17.9336 12.4202 17.2572C14.0534 16.5807 15.4492 15.4352 16.4313 13.9654C17.4133 12.4956 17.9375 10.7677 17.9375 9C17.933 6.63102 16.9899 4.36037 15.3148 2.68525C13.6396 1.01013 11.369 0.0670426 9 0.0625ZM9 14.5C8.79604 14.5 8.59666 14.4395 8.42707 14.3262C8.25748 14.2129 8.12531 14.0518 8.04725 13.8634C7.9692 13.675 7.94878 13.4676 7.98857 13.2676C8.02836 13.0675 8.12658 12.8838 8.2708 12.7395C8.41502 12.5953 8.59877 12.4971 8.79882 12.4573C8.99886 12.4175 9.20621 12.4379 9.39465 12.516C9.58308 12.5941 9.74414 12.7262 9.85746 12.8958C9.97077 13.0654 10.0313 13.2648 10.0313 13.4688C10.0313 13.7423 9.9226 14.0046 9.72921 14.198C9.53581 14.3913 9.27351 14.5 9 14.5ZM9.6875 10.2977V10.375C9.6875 10.5573 9.61507 10.7322 9.48614 10.8611C9.35721 10.9901 9.18234 11.0625 9 11.0625C8.81767 11.0625 8.6428 10.9901 8.51387 10.8611C8.38494 10.7322 8.3125 10.5573 8.3125 10.375V9.6875C8.3125 9.50516 8.38494 9.33029 8.51387 9.20136C8.6428 9.07243 8.81767 9 9 9C9.33994 9 9.67224 8.8992 9.95489 8.71034C10.2375 8.52148 10.4578 8.25305 10.5879 7.93899C10.718 7.62493 10.752 7.27934 10.6857 6.94594C10.6194 6.61253 10.4557 6.30628 10.2153 6.06591C9.97497 5.82554 9.66872 5.66184 9.33532 5.59553C9.00191 5.52921 8.65633 5.56324 8.34227 5.69333C8.02821 5.82342 7.75977 6.04372 7.57092 6.32636C7.38206 6.60901 7.28125 6.94131 7.28125 7.28125C7.28125 7.46359 7.20882 7.63845 7.07989 7.76739C6.95096 7.89632 6.77609 7.96875 6.59375 7.96875C6.41142 7.96875 6.23655 7.89632 6.10762 7.76739C5.97869 7.63845 5.90625 7.46359 5.90625 7.28125C5.90626 6.69886 6.07065 6.12829 6.38052 5.63518C6.69039 5.14207 7.13316 4.74643 7.6579 4.49378C8.18264 4.24113 8.76803 4.14173 9.34676 4.20701C9.92548 4.27228 10.474 4.49958 10.9293 4.86277C11.3846 5.22596 11.7281 5.71028 11.9203 6.26003C12.1126 6.80977 12.1458 7.40262 12.016 7.97038C11.8863 8.53814 11.599 9.05776 11.187 9.46946C10.7751 9.88117 10.2553 10.1682 9.6875 10.2977Z" fill="#3D3331"/>
</svg>
