<svg width="1198" height="666" viewBox="0 0 1198 666" fill="none" xmlns="http://www.w3.org/2000/svg">
<path d="M881.234 180.991C870.969 184.866 860.62 188.521 850.239 192.077C831.7 198.417 813.126 204.678 794.43 210.548C756.693 222.406 718.72 232.765 681.28 237.899C662.314 240.498 643.147 242 623.993 241.437C615.009 241.172 607.93 240.609 597.949 238.845C589.013 237.273 580.18 235.134 571.533 232.375C570.404 232.01 569.274 231.646 568.15 231.271C567.754 231.129 566.352 230.636 566.231 230.603C564.227 229.872 562.229 229.129 560.253 228.343C556.311 226.776 552.397 225.126 548.543 223.356C540.54 219.675 532.708 215.626 525.076 211.216C521.112 208.924 517.18 206.566 513.303 204.125C511.513 202.992 509.732 201.857 507.953 200.702C507.062 200.12 506.182 199.544 505.299 198.96C505.124 198.845 504.972 198.749 504.851 198.661C504.708 198.562 504.508 198.428 504.257 198.255C496.938 193.302 489.753 188.175 482.658 182.907C460.22 166.255 437.866 149.31 416.333 131.503C404.414 121.647 392.734 111.492 381.553 100.803C375.882 95.3801 370.309 89.8421 364.939 84.1169C363.457 82.5333 361.974 80.9496 360.519 79.3384C359.897 78.6578 359.281 77.9661 358.667 77.2827C358.64 77.2553 358.612 77.2277 358.593 77.1975C358.502 77.0905 358.384 76.9559 358.235 76.7858C355.853 74.0464 353.509 71.2852 351.242 68.4523C346.707 62.8141 342.357 57.0135 338.41 50.9405C336.467 47.9534 334.593 44.925 332.858 41.8223C332.082 40.4329 331.322 39.0381 330.592 37.624C330.457 37.3576 330.165 36.759 329.978 36.391C329.846 36.1054 329.714 35.8198 329.582 35.5342C328.138 32.3707 326.81 29.1411 325.691 25.8509C348.703 37.1253 369.876 52.0204 388.684 70.2261C409.255 90.1414 426.915 113.047 448.548 131.864C470.621 151.066 496.458 165.198 522.64 178.169C535.797 184.688 548.88 191.479 562.755 196.42C575.946 201.122 589.742 204.211 603.63 206.179C630.376 209.965 657.67 208.409 684.388 204.609C738.761 196.88 791.224 179.39 845.447 170.775C864.482 167.751 884.863 168.563 904.114 171.88C896.457 174.844 888.921 178.117 881.243 181.016L881.234 180.991Z" fill="#FBF8F8"/>
<path d="M924.992 213.963C883.069 227.275 842.254 243.735 800.742 258.22C780.012 265.459 759.1 272.236 737.86 277.813C715.961 283.555 696.417 287.602 674.036 290.208C652.828 292.677 631.728 293.278 610.417 292.044C607.96 291.903 605.506 291.744 603.055 291.566C602.66 291.533 600.909 291.395 600.854 291.395C599.714 291.3 598.582 291.202 597.439 291.099C592.902 290.684 588.371 290.23 583.845 289.683C574.481 288.556 565.151 287.18 555.879 285.454C537.514 282.043 519.345 277.494 501.628 271.558C501.317 271.451 498.294 270.41 498.662 270.553C497.769 270.238 496.886 269.928 495.999 269.602C493.901 268.838 491.804 268.074 489.712 267.272C485.54 265.672 481.387 264.02 477.274 262.271C468.687 258.621 460.226 254.664 451.953 250.34C443.637 245.995 435.513 241.319 427.551 236.361C425.687 235.198 423.833 234.013 421.999 232.804C421.628 232.543 420.493 231.778 420.374 231.698C419.508 231.109 418.648 230.508 417.793 229.896C414.358 227.463 410.968 224.969 407.651 222.369C393.67 211.416 380.716 199.177 368.867 185.945C368.438 185.456 368.204 185.196 368.16 185.146C367.877 184.819 367.583 184.487 367.299 184.161C366.595 183.343 365.882 182.528 365.186 181.707C363.783 180.06 362.388 178.41 361.021 176.733C358.267 173.376 355.557 169.986 352.926 166.532C347.412 159.307 342.123 151.906 337.103 144.323C327.035 129.102 317.896 113.259 309.722 96.9376C309.422 96.3417 309.119 95.7375 308.817 95.1334C308.778 95.0455 308.728 94.9523 308.673 94.8425C308.2 93.8649 307.715 92.8818 307.247 91.8933C306.305 89.9271 305.371 87.9582 304.454 85.9838C302.634 82.0487 300.84 78.0859 299.116 74.1095C295.562 65.8985 292.19 57.5995 289.062 49.2094C283.98 35.582 279.448 21.7617 275.497 7.7649C283.649 9.72837 291.658 12.0876 299.488 14.8455C300.887 29.2106 306.881 43.1556 313.953 55.5032C329.205 82.1092 351.381 104.822 373.843 125.406C394.628 144.453 416.737 161.985 439.185 179.018C466.208 199.514 492.998 220.629 523.032 236.627C539.233 245.26 556.298 252.395 574.017 257.268C592.571 262.366 611.649 264.622 630.882 264.738C670.6 264.962 710.181 257.655 748.547 247.869C786.71 238.133 824.155 225.677 861.356 212.818C871.729 209.237 882.08 205.563 892.318 201.606C902.307 197.751 912.08 193.39 922.25 190.024C929.839 187.513 937.084 185.372 944.215 183.545C954.311 188.037 963.835 193.719 972.327 200.699C956.402 204.608 940.614 208.983 924.97 213.952L924.992 213.963Z" fill="#FBF8F8"/>
<path d="M926.83 260.558C880.115 275.978 833.695 292.005 786.131 304.694C737.869 317.572 689.514 327.759 640.005 334.063C616.339 337.071 592.323 339.939 568.434 340.09C563.387 340.12 558.337 340.06 553.295 339.832C547.808 339.588 545.884 339.481 541.323 339.046C531.824 338.148 522.368 336.859 512.992 335.067C503.687 333.297 494.452 331.137 485.35 328.521C475.354 325.645 469.367 323.662 460.211 320.092C442.521 313.194 425.394 304.861 409.058 295.165C404.782 292.628 400.546 290.014 396.369 287.307C392.55 284.82 390.853 283.692 386.429 280.573C378.535 274.997 370.819 269.159 363.352 263.027C347.99 250.411 333.226 236.816 320.005 221.945C306.5 206.748 292.601 187.495 280.997 169.298C268.658 149.945 257.406 129.925 246.827 109.562C236.248 89.2259 227.503 70.3741 217.196 49.5624C218.699 52.605 216.84 48.8018 216.579 48.2389C216.157 47.3354 215.728 46.4348 215.315 45.5286C214.428 43.5899 213.554 41.6373 212.717 39.682C210.932 35.4969 209.218 31.2787 207.677 27.0026C206.073 22.5369 204.557 18.0051 203.436 13.3961C203.276 12.7534 203.127 12.1161 202.984 11.4678C202.906 11.0173 202.743 10.1467 202.704 9.89397C202.483 8.27319 202.335 6.65511 202.309 5.01487C202.277 3.35816 201.849 1.80613 201.114 0.402985C217.304 -0.00276012 233.496 0.855487 249.423 2.94753C249.882 3.0047 250.336 3.07285 250.797 3.13826C250.749 4.47361 250.902 5.83352 251.255 7.19039C254.517 19.4845 258.209 31.671 262.361 43.6949C286.128 112.4 323.611 179.74 378.542 228.388C434.799 278.205 509.663 304.994 583.624 312.982C603.48 315.125 623.794 316.72 643.773 315.917C667.044 314.984 690.095 311.916 712.921 307.357C756.127 298.728 797.818 284.311 839.09 269.136C880.45 253.923 921.675 238.004 964.312 226.661C972.92 224.376 981.583 222.229 990.271 220.238C994.21 226.369 997.08 233.086 998.443 240.39C974.233 245.687 950.403 252.781 926.817 260.572L926.83 260.558Z" fill="#FBF8F8"/>
<path d="M661.896 652.363C722.707 645.393 782.668 632.706 842.323 619.241C897.932 606.691 953.55 594.33 1008.85 580.48C1029.4 575.338 1049.96 570.188 1070.63 565.554C1042.36 578.145 1012.79 587.985 983.543 597.799C942.876 611.443 901.671 623.534 860.006 633.728C771.349 655.421 679.436 669.051 588.161 664.108C567.707 662.999 547.263 660.851 527.054 657.517C572.027 659.29 617.238 657.475 661.904 652.361L661.896 652.363Z" fill="#FBF8F8"/>
<path d="M1132.45 530.5C1132.45 530.5 1132.41 530.514 1132.39 530.511C1080.33 538.2 1029.4 551.621 978.404 564.315C921.948 578.358 865.039 590.803 808.218 603.264C749.843 616.062 690.98 627.402 631.312 631.984C576.965 636.15 522.161 636.622 468.016 629.726C454.17 627.964 440.361 625.823 426.651 623.182C422.792 622.439 418.772 621.897 414.982 620.838C414.325 620.654 410.909 619.535 411.698 619.839C408.075 618.54 404.493 617.146 400.923 615.73C396.772 614.086 392.627 612.431 388.468 610.817C373.166 602.268 358.442 592.572 344.459 581.639C303.451 549.578 272.95 507.378 241.357 466.734C256.959 477.877 273.019 488.39 289.502 498.194C382.947 553.763 488.731 585.067 597 592.689C710.102 600.655 824.28 583.222 932.009 548.817C998.137 527.699 1061.96 500.105 1127.92 478.476C1147.65 472.01 1167.7 465.998 1187.97 460.92C1177.05 489.429 1156.69 512.292 1132.46 530.497L1132.45 530.5Z" fill="#FBF8F8"/>
<path d="M904.62 532.894C798.646 564.22 686.462 579.126 576.151 567.726C469.274 556.678 366.068 521.553 276.089 462.515C253.034 447.388 230.944 430.711 209.933 412.849C187.09 393.428 166.246 372.23 145.052 351.084C94.6774 300.829 39.4124 253.236 1.13958 192.546C-0.925548 169.178 0.578296 145.853 5.64278 124.762C13.3453 142.854 21.8992 160.588 31.0406 177.969C58.5007 230.193 91.6815 280.374 132.731 322.966C152.916 343.918 175.765 361.633 198.727 379.411C223.701 398.741 249.101 417.536 275.379 435.065C328.644 470.602 385.535 500.628 447.048 519.112C507.943 537.418 573.333 542.191 636.602 538.539C700.661 534.843 764.087 522.572 825.903 505.682C883.707 489.887 940.575 470.557 996.145 448.143C1047.32 427.503 1098.6 406.146 1152.31 392.931C1166.35 389.48 1180.8 386.524 1195.42 384.483C1198.44 401.06 1198.15 418.447 1195.13 435.042C1095.94 457.437 1001.71 504.191 904.612 532.897L904.62 532.894Z" fill="#FBF8F8"/>
<path d="M80.993 320.829C90.6282 330.294 100.217 339.811 109.792 349.342C90.4925 339.061 70.8804 328.912 54.807 313.978C36.2528 296.751 22.4537 273.882 13.3748 248.692C34.3781 274.116 57.4866 297.727 80.993 320.829Z" fill="#FBF8F8"/>
<path d="M1064.38 396.315C1012.66 415.472 962.208 437.621 909.962 455.405C791.324 495.788 664.194 527.193 538.01 513.233C506.327 509.725 474.729 503.787 444.353 494.024C414.46 484.419 385.498 471.902 357.707 457.325C302.097 428.171 251.254 391.192 201.986 352.486C179.538 334.848 158.005 316.876 138.866 295.602C119.546 274.113 102.251 250.711 86.4642 226.528C58.9717 184.421 35.1684 139.43 17.638 92.212C25.0099 77.9359 34.7271 65.1654 46.3009 54.165C46.6476 54.6262 46.9888 55.0983 47.3053 55.5788C48.4062 57.2535 49.4549 58.964 50.3966 60.7378C51.7127 63.2476 54.1534 68.8992 55.7544 72.9995C60.2376 84.4817 64.1248 96.1816 69.6104 107.237C75.2171 118.545 82.2356 129.335 89.0147 139.957C104.461 164.161 121.245 187.515 139.247 209.884C175.15 254.483 215.239 295.875 261.54 329.738C303.768 360.63 346.593 391.606 393.547 415.017C441.065 438.715 492.086 453.444 545.179 456.541C576.706 458.379 608.727 457.148 640.192 454.801C670.332 452.55 700.361 448.787 730.108 443.388C790.189 432.484 848.906 415.778 906.576 395.832C962.347 376.539 1017.27 354.708 1074.38 339.521C1102.55 332.03 1131.54 325.911 1160.74 323.012C1164.87 326.549 1168.77 330.402 1172.4 334.602C1179.49 342.803 1184.96 352.067 1188.96 361.962C1146.32 368.132 1104.57 381.422 1064.38 396.307L1064.38 396.315Z" fill="#FBF8F8"/>
<path d="M1043.34 324.169C986.186 341.213 930.888 363.646 874.236 382.198C817.518 400.773 759.632 416.183 700.51 424.805C670.171 429.23 639.598 432.103 608.956 433.267C579.018 434.398 548.757 434.976 519.022 430.798C468.52 423.7 421.302 405.252 377.27 379.865C355.305 367.205 334.159 353.209 313.44 338.602C291.546 323.169 269.411 307.753 248.912 290.489C204.995 253.511 166.555 209.981 133.07 163.438C124.804 151.957 116.801 140.279 109.188 128.341C102.392 117.697 95.209 106.907 89.572 95.591C89.9355 96.2939 88.3103 92.7515 88.1505 92.3835C87.6243 91.1395 87.09 89.8981 86.5885 88.6458C85.5333 86.0121 84.5 83.3621 83.5079 80.6981C81.4411 75.2055 79.4538 69.677 77.2634 64.2257C73.8193 55.6573 70.0944 46.7707 64.2807 39.4991C73.8921 32.7926 84.3455 27.0686 95.4813 22.4265C99.3013 20.8368 103.16 19.3349 107.046 17.9155C106.886 19.49 107.022 21.1303 107.494 22.7315C120.331 66.9024 144.94 107.895 171.885 144.835C200.683 184.325 230.458 223.479 262.876 260.072C295.206 296.566 330.98 329.718 373.591 353.867C412.972 376.193 456.255 391.78 500.913 399.348C543.87 406.624 587.812 407.204 631.105 402.86C719.815 393.948 805.46 367.006 890.083 340.24C932.934 326.69 975.741 313.008 1019.32 301.936C1037.17 297.401 1055.36 293.029 1073.73 289.706C1092.9 291.618 1112.12 295.97 1129.62 303.693C1100.4 308.432 1071.52 315.768 1043.35 324.166L1043.34 324.169Z" fill="#FBF8F8"/>
<path d="M991.224 275.085C988.583 279.596 985.472 283.826 982.004 287.781C916.953 305.955 853.096 328.576 788.135 347.022C745.673 359.077 703.428 369.51 660.815 375.779C618.953 381.934 574.485 384.545 533.721 380.374C489.932 375.896 448.006 364.83 408.767 346.021C387.968 336.049 368.173 324.697 350.09 310.958C330.788 296.288 312.955 279.763 296.233 262.234C262.998 227.389 233.896 188.715 204.908 150.214C175.165 110.72 146.478 68.8471 131.359 21.3351C132.064 17.7735 131.046 13.854 128.809 10.9744C145.497 6.38912 162.633 3.30348 179.891 1.67938C179.349 3.12519 179.067 4.69436 179.099 6.32359C179.34 19.885 184.997 33.8057 190.247 46.1031C191.988 50.1839 193.803 54.2399 195.761 58.2299C196.48 59.6935 197.188 61.1514 197.923 62.6095C196.648 60.0585 198.54 63.9607 198.623 64.1255C199.76 66.5118 200.906 68.8954 202.052 71.2789C207.171 81.9252 212.335 92.5384 217.619 103.102C227.866 123.595 238.536 143.901 250.227 163.617C272.802 201.708 299.196 237.083 332.145 266.856C389.547 318.727 462.148 356.002 540.055 362.148C561.867 363.865 583.333 363.206 605.104 361.245C630.247 358.98 655.292 355.74 680.183 351.543C730.225 343.11 779.65 331.327 828.317 316.977C874.19 303.451 918.969 286.544 964.818 272.972C975.304 269.866 985.717 267.088 996.136 264.683C994.829 268.308 993.149 271.802 991.221 275.104L991.224 275.085Z" fill="#FBF8F8"/>
</svg>
