<svg width="29" height="28" viewBox="0 0 29 28" fill="none" xmlns="http://www.w3.org/2000/svg">
<path d="M4.96875 12.5453V6.125C4.96875 5.89294 5.06094 5.67038 5.22503 5.50628C5.38913 5.34219 5.61169 5.25 5.84375 5.25H23.3438C23.5758 5.25 23.7984 5.34219 23.9625 5.50628C24.1266 5.67038 24.2188 5.89294 24.2188 6.125V12.5453C24.2188 21.7328 16.4203 24.7734 14.8672 25.2875C14.6907 25.3528 14.4968 25.3528 14.3203 25.2875C12.7672 24.7734 4.96875 21.7328 4.96875 12.5453Z" fill="#DBEDF8"/>
<path d="M4.96875 12.5453V6.125C4.96875 5.89294 5.06094 5.67038 5.22503 5.50628C5.38913 5.34219 5.61169 5.25 5.84375 5.25H23.3438C23.5758 5.25 23.7984 5.34219 23.9625 5.50628C24.1266 5.67038 24.2188 5.89294 24.2188 6.125V12.5453C24.2188 21.7328 16.4203 24.7734 14.8672 25.2875C14.6907 25.3528 14.4968 25.3528 14.3203 25.2875C12.7672 24.7734 4.96875 21.7328 4.96875 12.5453Z" stroke="#4AA7DE" stroke-width="2" stroke-linecap="round" stroke-linejoin="round"/>
<path d="M11.0938 14H18.0938" stroke="#4AA7DE" stroke-width="2" stroke-linecap="round" stroke-linejoin="round"/>
<path d="M14.5938 10.5V17.5" stroke="#4AA7DE" stroke-width="2" stroke-linecap="round" stroke-linejoin="round"/>
</svg>
