<svg viewBox="0 0 137 106" fill="none" xmlns="http://www.w3.org/2000/svg">
<path d="M118.15 34.4192C116.846 37.8202 115.773 41.3088 114.791 44.8242C113.81 48.3395 112.954 51.8327 112.19 55.3527C111.426 58.8726 110.711 62.4267 110.129 66.0001C109.547 69.5736 109.057 73.1738 108.833 76.8127C110.179 73.4043 111.21 69.9231 112.199 66.4493C113.18 62.9339 114.036 59.4407 114.8 55.9208C115.565 52.4008 116.238 48.8541 116.812 45.2391C117.436 41.6583 117.926 38.0581 118.15 34.4192Z" fill="#FFC42C"/>
<path d="M132.984 63.8127C129.763 62.2381 126.495 60.8861 123.207 59.6662C119.912 58.4047 116.554 57.2827 113.17 56.2512C109.785 55.2197 106.408 54.2298 102.968 53.3793C99.5291 52.5289 96.0625 51.7689 92.5486 51.2316C95.7273 52.8136 99.0374 54.1582 102.333 55.4197C105.628 56.6812 108.986 57.8032 112.37 58.8347C115.755 59.8662 119.132 60.8561 122.572 61.7065C125.962 62.5229 129.436 63.3244 132.984 63.8127Z" fill="#FFC42C"/>
<path d="M105.495 41.192C106.444 44.367 107.554 47.4707 108.706 50.567C109.9 53.656 111.128 56.696 112.476 59.6722C113.788 62.6974 115.219 65.6588 116.692 68.6128C118.207 71.5595 119.757 74.4571 121.509 77.2762C120.644 74.0865 119.534 70.9827 118.382 67.8864C117.188 64.7974 115.96 61.7575 114.612 58.7812C113.258 55.7634 111.869 52.7946 110.396 49.8406C108.839 46.9014 107.324 43.9548 105.495 41.192Z" fill="#FFC42C"/>
<path d="M128.244 49.6941C124.961 50.9585 121.807 52.4575 118.701 53.9907C115.603 55.5654 112.561 57.2158 109.576 58.942C106.591 60.6681 103.621 62.4774 100.714 64.4039C97.8079 66.3304 94.9509 68.2911 92.271 70.5205C95.5538 69.256 98.716 67.7986 101.814 66.2239C104.913 64.6492 107.954 62.9987 110.939 61.2726C113.924 59.5465 116.895 57.7372 119.801 55.8107C122.665 53.8916 125.515 51.8893 128.244 49.6941Z" fill="#FFC42C"/>
<path d="M87.4219 7.9007C86.9751 9.0654 86.6077 10.2601 86.2716 11.464C85.9354 12.6679 85.6424 13.8642 85.3807 15.0696C85.1189 16.2751 84.874 17.4922 84.6748 18.716C84.4756 19.9398 84.3076 21.1727 84.2309 22.4189C84.6921 21.2516 85.0451 20.0595 85.3837 18.8698C85.7199 17.6659 86.0129 16.4696 86.2747 15.2642C86.5364 14.0587 86.7669 12.8441 86.9636 11.6061C87.1773 10.3798 87.3452 9.14689 87.4219 7.9007Z" fill="#FFC42C"/>
<path d="M92.5021 17.9667C91.3991 17.4275 90.2799 16.9645 89.1539 16.5467C88.0253 16.1147 86.8755 15.7304 85.7164 15.3772C84.5573 15.0239 83.4007 14.6849 82.2228 14.3937C81.045 14.1024 79.8578 13.8422 78.6544 13.6582C79.743 14.1999 80.8766 14.6604 82.0051 15.0924C83.1337 15.5244 84.2835 15.9087 85.4426 16.2619C86.6017 16.6152 87.7583 16.9542 88.9362 17.2454C90.0971 17.525 91.2868 17.7995 92.5021 17.9667Z" fill="#FFC42C"/>
<path d="M83.0874 10.2203C83.4125 11.3076 83.7926 12.3705 84.1871 13.4309C84.5959 14.4888 85.0167 15.5299 85.478 16.5491C85.9275 17.5851 86.4176 18.5993 86.922 19.6109C87.4409 20.62 87.9716 21.6124 88.5717 22.5778C88.2753 21.4855 87.8952 20.4225 87.5007 19.3622C87.0918 18.3043 86.6711 17.2632 86.2098 16.244C85.7459 15.2105 85.2702 14.1938 84.7657 13.1821C84.2325 12.1756 83.7137 11.1665 83.0874 10.2203Z" fill="#FFC42C"/>
<path d="M90.879 13.1309C89.7547 13.5639 88.6743 14.0773 87.6107 14.6023C86.5497 15.1416 85.5081 15.7068 84.4858 16.298C83.4636 16.8891 82.4463 17.5087 81.451 18.1685C80.4557 18.8282 79.4772 19.4997 78.5595 20.2632C79.6837 19.8302 80.7667 19.331 81.8277 18.7918C82.8887 18.2525 83.9304 17.6873 84.9526 17.0961C85.9749 16.505 86.9921 15.8854 87.9874 15.2256C88.9684 14.5684 89.9443 13.8827 90.879 13.1309Z" fill="#FFC42C"/>
<path d="M62.2501 10.488C59.6529 17.2582 57.5173 24.2028 55.5634 31.2007C53.6095 38.1986 51.9062 45.1522 50.3847 52.1592C48.8632 59.1661 47.4398 66.2411 46.2817 73.3545C45.1236 80.468 44.1472 87.6347 43.7013 94.8785C46.3821 88.0937 48.4341 81.1638 50.4026 74.2486C52.3565 67.2507 54.0597 60.297 55.5813 53.2901C57.1028 46.2831 58.4426 39.2229 59.5861 32.0267C60.8278 24.8985 61.8042 17.7318 62.2501 10.488Z" fill="#FFC42C"/>
<path d="M91.7804 68.9989C85.369 65.8645 78.8635 63.1731 72.3181 60.7447C65.7581 58.2335 59.0748 55.9999 52.3371 53.9466C45.5994 51.8933 38.8763 49.9226 32.0298 48.2297C25.1833 46.5367 18.2825 45.0239 11.2874 43.9543C17.6153 47.1035 24.2044 49.7801 30.7644 52.2913C37.3243 54.8025 44.0076 57.036 50.7453 59.0893C57.483 61.1427 64.2062 63.1133 71.0526 64.8063C77.801 66.4312 84.7164 68.0267 91.7804 68.9989Z" fill="#FFC42C"/>
<path d="M37.0597 23.9717C38.9495 30.2918 41.159 36.4703 43.452 42.634C45.8286 48.783 48.2742 54.8346 50.9558 60.7592C53.5685 66.7812 56.4173 72.6764 59.3496 78.5568C62.3655 84.4225 65.4504 90.1907 68.9385 95.8025C67.2158 89.4529 65.0063 83.2745 62.7133 77.1107C60.3367 70.9617 57.8911 64.9102 55.2094 58.9856C52.5132 52.9782 49.748 47.0683 46.8156 41.1879C43.7162 35.337 40.7003 29.4713 37.0597 23.9717Z" fill="#FFC42C"/>
<path d="M82.3458 40.894C75.8108 43.4111 69.5306 46.3951 63.3484 49.4471C57.1809 52.5817 51.1261 55.8672 45.184 59.3033C39.2419 62.7394 33.329 66.341 27.5435 70.1761C21.7579 74.0111 16.0705 77.9141 10.7358 82.3521C17.2707 79.835 23.5656 76.9337 29.7331 73.799C35.9007 70.6643 41.9555 67.3789 47.8976 63.9428C53.8396 60.5067 59.7525 56.9051 65.5381 53.07C71.2401 49.2497 76.913 45.264 82.3458 40.894Z" fill="#FFC42C"/>
</svg>
