<svg viewBox="0 0 248 191" fill="none" xmlns="http://www.w3.org/2000/svg">
  <path d="M33.2426 62.2754C35.6031 68.4288 37.5442 74.7408 39.3201 81.1012C41.096 87.4616 42.6441 93.7818 44.027 100.15C45.4099 106.519 46.7036 112.949 47.7562 119.415C48.8088 125.88 49.6963 132.394 50.1015 138.978C47.665 132.811 45.7999 126.513 44.0107 120.228C42.2348 113.867 40.6868 107.547 39.3038 101.178C37.9209 94.8097 36.7032 88.3926 35.6638 81.852C34.5353 75.3731 33.6478 68.8593 33.2426 62.2754Z" fill="#FFC42C"/>
  <path d="M6.40353 115.457C12.2309 112.608 18.1438 110.162 24.0929 107.955C30.0553 105.672 36.1297 103.642 42.2537 101.776C48.3776 99.9097 54.4882 98.1186 60.711 96.5798C66.9338 95.0411 73.206 93.6661 79.5638 92.6939C73.8124 95.5562 67.8235 97.989 61.8612 100.271C55.8988 102.554 49.8243 104.584 43.7004 106.45C37.5765 108.316 31.4658 110.108 25.2431 111.646C19.1095 113.123 12.824 114.573 6.40353 115.457Z" fill="#FFC42C"/>
  <path d="M56.1397 74.5293C54.4221 80.2737 52.4139 85.8893 50.3297 91.4915C48.1696 97.0804 45.9469 102.581 43.5095 107.966C41.1348 113.439 38.5456 118.797 35.8803 124.142C33.1392 129.473 30.3353 134.716 27.165 139.817C28.7308 134.045 30.739 128.43 32.8231 122.828C34.9832 117.239 37.206 111.738 39.6434 106.354C42.094 100.893 44.6073 95.5219 47.2725 90.1772C50.0896 84.8592 52.8308 79.5279 56.1397 74.5293Z" fill="#FFC42C"/>
  <path d="M14.9789 89.9121C20.9185 92.1999 26.6266 94.912 32.2456 97.686C37.8513 100.535 43.3545 103.521 48.7553 106.644C54.1561 109.767 59.5303 113.041 64.7888 116.527C70.0474 120.012 75.2167 123.56 80.0654 127.593C74.1258 125.306 68.4043 122.669 62.7986 119.82C57.1929 116.97 51.6897 113.984 46.2889 110.861C40.8882 107.738 35.5139 104.465 30.2554 100.979C25.0728 97.5066 19.9168 93.8839 14.9789 89.9121Z" fill="#FFC42C"/>
  <path d="M88.8402 14.2969C89.6486 16.4042 90.3134 18.5658 90.9215 20.744C91.5297 22.9222 92.0599 25.0866 92.5335 27.2677C93.0071 29.4487 93.4501 31.6509 93.8106 33.865C94.1711 36.0792 94.475 38.31 94.6138 40.5647C93.7794 38.4528 93.1406 36.2958 92.5279 34.1433C91.9197 31.9651 91.3896 29.8007 90.916 27.6197C90.4424 25.4386 90.0253 23.2411 89.6694 21.0011C89.2829 18.7824 88.979 16.5516 88.8402 14.2969Z" fill="#FFC42C"/>
  <path d="M79.6481 32.5091C81.6437 31.5335 83.6687 30.6958 85.706 29.9399C87.7479 29.1582 89.8282 28.463 91.9254 27.8239C94.0226 27.1847 96.1153 26.5713 98.2464 26.0444C100.377 25.5174 102.525 25.0466 104.703 24.7136C102.733 25.6938 100.682 26.527 98.6403 27.3086C96.5984 28.0903 94.5181 28.7855 92.4209 29.4246C90.3237 30.0638 88.231 30.6771 86.0999 31.2041C83.9994 31.7099 81.8469 32.2065 79.6481 32.5091Z" fill="#FFC42C"/>
  <path d="M96.6813 18.4934C96.093 20.4606 95.4053 22.3838 94.6915 24.3023C93.9518 26.2163 93.1906 28.1 92.3559 29.9441C91.5426 31.8185 90.6559 33.6535 89.7432 35.4839C88.8044 37.3096 87.8442 39.1051 86.7585 40.8519C87.2947 38.8754 87.9825 36.9523 88.6962 35.0337C89.4359 33.1198 90.1972 31.2361 91.0319 29.392C91.8711 27.5221 92.7318 25.6826 93.6446 23.8522C94.6093 22.031 95.5481 20.2052 96.6813 18.4934Z" fill="#FFC42C"/>
  <path d="M82.5844 23.7598C84.6184 24.5432 86.5733 25.4721 88.4976 26.422C90.4173 27.3977 92.302 28.4204 94.1515 29.4899C96.0011 30.5595 97.8416 31.6805 99.6424 32.8742C101.443 34.068 103.214 35.2828 104.874 36.6642C102.84 35.8807 100.881 34.9777 98.9608 34.0019C97.0411 33.0262 95.1564 32.0036 93.3069 30.934C91.4573 29.8645 89.6168 28.7434 87.816 27.5497C86.0411 26.3606 84.2754 25.12 82.5844 23.7598Z" fill="#FFC42C"/>
  <path d="M134.383 18.9766C139.082 31.2258 142.946 43.7907 146.481 56.452C150.017 69.1133 153.098 81.6947 155.851 94.3724C158.604 107.05 161.179 119.851 163.275 132.721C165.37 145.592 167.137 158.558 167.943 171.665C163.093 159.389 159.38 146.851 155.819 134.339C152.284 121.678 149.202 109.096 146.449 96.4185C143.696 83.7408 141.272 70.9667 139.203 57.9466C136.957 45.0496 135.19 32.0828 134.383 18.9766Z" fill="#FFC42C"/>
  <path d="M80.9534 124.841C92.5536 119.169 104.324 114.3 116.167 109.906C128.036 105.363 140.128 101.322 152.318 97.6064C164.509 93.8913 176.673 90.3258 189.061 87.2627C201.448 84.1996 213.934 81.4626 226.59 79.5272C215.141 85.2251 203.219 90.0679 191.35 94.6114C179.481 99.1549 167.389 103.196 155.198 106.911C143.008 110.626 130.844 114.192 118.456 117.255C106.247 120.195 93.7344 123.082 80.9534 124.841Z" fill="#FFC42C"/>
  <path d="M179.963 43.3724C176.543 54.8075 172.546 65.9862 168.397 77.1383C164.097 88.2637 159.672 99.2128 154.82 109.932C150.093 120.828 144.939 131.494 139.633 142.134C134.177 152.746 128.595 163.183 122.284 173.336C125.401 161.848 129.399 150.669 133.547 139.517C137.847 128.392 142.272 117.443 147.124 106.723C152.002 95.8541 157.006 85.1613 162.311 74.5219C167.919 63.9357 173.376 53.3229 179.963 43.3724Z" fill="#FFC42C"/>
  <path d="M98.0256 73.9902C109.849 78.5444 121.212 83.9433 132.398 89.4652C143.557 95.1369 154.512 101.081 165.263 107.298C176.014 113.515 186.712 120.032 197.18 126.97C207.648 133.909 217.938 140.971 227.59 149C215.766 144.446 204.377 139.197 193.218 133.525C182.059 127.854 171.104 121.909 160.353 115.692C149.602 109.475 138.904 102.959 128.436 96.0203C118.119 89.1082 107.855 81.8968 98.0256 73.9902Z" fill="#FFC42C"/>
</svg>
