<svg viewBox="0 0 54 65" fill="none" xmlns="http://www.w3.org/2000/svg">
<path d="M16.7891 16.6504C18.0938 20.0514 19.1666 23.54 20.1481 27.0554C21.1297 30.5707 21.9853 34.0639 22.7496 37.5839C23.5139 41.1038 24.229 44.6579 24.8107 48.2313C25.3925 51.8048 25.883 55.405 26.107 59.0439C24.7603 55.6355 23.7295 52.1543 22.7406 48.6805C21.7591 45.1651 20.9035 41.6719 20.1391 38.152C19.3748 34.632 18.7017 31.0853 18.1273 27.4703C17.5035 23.8895 17.0131 20.2893 16.7891 16.6504Z" fill="#FFC42C"/>
<path d="M1.95539 46.0439C5.17615 44.4693 8.44422 43.1173 11.7323 41.8974C15.0277 40.6359 18.385 39.5139 21.7697 38.4824C25.1544 37.4509 28.5317 36.461 31.9711 35.6105C35.4104 34.7601 38.877 34.0001 42.391 33.4628C39.2122 35.0448 35.9021 36.3894 32.6067 37.6509C29.3114 38.9124 25.954 40.0344 22.5693 41.0659C19.1846 42.0974 15.8073 43.0873 12.368 43.9378C8.97796 44.7541 5.50399 45.5556 1.95539 46.0439Z" fill="#FFC42C"/>
<path d="M29.4446 23.4232C28.4953 26.5982 27.3854 29.7019 26.2334 32.7982C25.0396 35.8872 23.811 38.9272 22.4639 41.9034C21.1514 44.9286 19.7204 47.89 18.2473 50.844C16.7323 53.7907 15.1826 56.6883 13.4303 59.5074C14.2957 56.3177 15.4057 53.2139 16.5576 50.1176C17.7515 47.0286 18.98 43.9887 20.3271 41.0124C21.6816 37.9947 23.0707 35.0258 24.5437 32.0718C26.1007 29.1326 27.6158 26.186 29.4446 23.4232Z" fill="#FFC42C"/>
<path d="M6.69532 31.9253C9.97813 33.1897 13.133 34.6887 16.2386 36.2219C19.3369 37.7966 22.3785 39.447 25.3635 41.1732C28.3485 42.8993 31.3188 44.7086 34.2252 46.6351C37.1316 48.5616 39.9887 50.5223 42.6685 52.7517C39.3857 51.4872 36.2235 50.0298 33.1252 48.4551C30.027 46.8804 26.9853 45.23 24.0003 43.5038C21.0154 41.7777 18.045 39.9684 15.1386 38.0419C12.2742 36.1228 9.42448 34.1205 6.69532 31.9253Z" fill="#FFC42C"/>
<path d="M42.7481 6.56519C43.1949 7.72989 43.5623 8.92461 43.8984 10.1285C44.2345 11.3324 44.5276 12.5287 44.7893 13.7341C45.0511 14.9396 45.2959 16.1567 45.4952 17.3805C45.6944 18.6042 45.8624 19.8372 45.9391 21.0834C45.4779 19.9161 45.1249 18.7239 44.7862 17.5343C44.4501 16.3304 44.1571 15.1341 43.8953 13.9287C43.6336 12.7232 43.4031 11.5086 43.2064 10.2706C42.9927 9.04431 42.8248 7.81137 42.7481 6.56519Z" fill="#FFC42C"/>
<path d="M37.6679 16.6312C38.7709 16.092 39.8901 15.629 41.0161 15.2112C42.1447 14.7792 43.2944 14.3949 44.4536 14.0417C45.6127 13.6884 46.7693 13.3494 47.9472 13.0582C49.125 12.7669 50.3122 12.5067 51.5156 12.3226C50.427 12.8644 49.2934 13.3249 48.1649 13.7569C47.0363 14.1889 45.8865 14.5732 44.7274 14.9264C43.5683 15.2797 42.4117 15.6187 41.2338 15.9099C40.0729 16.1895 38.8832 16.464 37.6679 16.6312Z" fill="#FFC42C"/>
<path d="M47.0826 8.88483C46.7575 9.97212 46.3774 11.035 45.9829 12.0954C45.5741 13.1533 45.1533 14.1943 44.692 15.2136C44.2425 16.2496 43.7524 17.2638 43.248 18.2754C42.7291 19.2845 42.1984 20.2769 41.5983 21.2423C41.8947 20.1499 42.2748 19.087 42.6693 18.0266C43.0782 16.9688 43.4989 15.9277 43.9602 14.9085C44.4241 13.875 44.8998 12.8583 45.4043 11.8466C45.9375 10.8401 46.4563 9.83096 47.0826 8.88483Z" fill="#FFC42C"/>
<path d="M39.291 11.7954C40.4153 12.2284 41.4957 12.7418 42.5592 13.2668C43.6203 13.8061 44.6619 14.3713 45.6842 14.9625C46.7064 15.5536 47.7237 16.1732 48.719 16.833C49.7143 17.4927 50.6928 18.1642 51.6105 18.9277C50.4863 18.4946 49.4033 17.9955 48.3423 17.4562C47.2812 16.917 46.2396 16.3518 45.2174 15.7606C44.1951 15.1695 43.1779 14.5499 42.1825 13.8901C41.2016 13.2329 40.2257 12.5472 39.291 11.7954Z" fill="#FFC42C"/>
</svg>
