<svg width="109" height="108" viewBox="0 0 109 108" fill="none" xmlns="http://www.w3.org/2000/svg">
<g clip-path="url(#clip0_1542_16196)">
<path d="M108.12 57.5269C107.836 56.7334 107.431 55.9893 106.92 55.3212C106.358 54.6205 105.671 54.0313 104.895 53.5839C103.464 52.8219 101.863 52.4422 100.245 52.4811C98.8902 52.5124 97.5425 52.6896 96.2251 53.0099C92.2414 52.4947 88.2087 52.4947 84.2251 53.0099C79.499 53.6226 74.9381 55.1624 70.8001 57.542C66.6671 59.9238 63.1675 63.2773 60.6001 67.3162C58.7874 70.2074 57.3982 73.3467 56.4751 76.6372C55.6351 74.7791 54.7651 73.0417 53.8351 71.3951L54.1501 71.1836C56.2101 69.7866 58.1027 68.1543 59.7901 66.3191C63.1081 62.7215 65.7011 58.5093 67.4251 53.9163C69.1885 49.3718 70.03 44.5176 69.9001 39.6402C69.7823 34.7437 68.6157 29.9306 66.4801 25.5302C64.3221 21.1155 61.3018 17.1848 57.6001 13.9733L57.4951 13.8978C57.2729 13.724 57.0188 13.5963 56.7474 13.5219C56.476 13.4476 56.1927 13.4281 55.9138 13.4646C55.6349 13.5011 55.3659 13.5929 55.1224 13.7347C54.8789 13.8765 54.6657 14.0654 54.4951 14.2906C51.9753 17.4759 49.7463 20.8837 47.835 24.4727C45.8726 28.1478 44.654 32.1787 44.25 36.3317C43.9344 40.5707 44.7856 44.8153 46.71 48.5986C48.5888 52.2412 50.956 55.6063 53.7451 58.5995C53.9191 58.7814 54.1357 58.9164 54.3751 58.9922C54.7314 59.1352 55.1287 59.1352 55.4851 58.9922C55.8204 58.8165 56.0776 58.5198 56.2051 58.1613C56.4383 57.4114 56.6336 56.6501 56.7901 55.8802C56.9401 55.2004 57.0601 54.5206 57.1801 53.8407V53.6746C57.4351 51.9977 57.6151 50.6532 57.7351 49.2935C58.0201 46.3477 58.1851 43.4018 58.2301 40.5466C58.2301 37.9784 58.2301 35.2138 58.2301 31.7996L58.0201 27.4488L57.7501 23.0376C57.7351 22.88 57.6622 22.7337 57.5456 22.6275C57.429 22.5213 57.2772 22.4628 57.1201 22.4635C56.9569 22.4635 56.8005 22.5287 56.6852 22.6449C56.5698 22.7611 56.5051 22.9186 56.5051 23.0829V27.4186V31.7543C56.5051 34.5189 56.3551 37.4799 56.1451 40.3804C55.9351 43.2809 55.68 46.0606 55.2751 48.931C55.1101 50.1697 54.8701 51.5143 54.5551 53.1156L54.4801 53.4026L54.2551 54.4601C52.4876 52.2167 50.978 49.7791 49.7551 47.1937C48.2049 43.9012 47.5822 40.2432 47.955 36.6188C48.4455 32.9631 49.6486 29.4412 51.4951 26.2553C52.9629 23.6073 54.6382 21.0814 56.5051 18.7018C58.9683 21.2204 60.9962 24.136 62.5051 27.3279C64.2943 31.1942 65.2308 35.4049 65.2501 39.6704C65.3311 48.3067 62.1083 56.643 56.2501 62.9503C54.8093 64.4893 53.1989 65.8578 51.4501 67.0292L51.3301 67.1198C48.6859 63.143 45.3467 59.6827 41.4751 56.9075C37.3707 53.9955 32.6239 52.134 27.6451 51.4841C25.1576 51.1588 22.6416 51.1182 20.1451 51.3632C18.8908 51.4947 17.6441 51.6913 16.41 51.9524C15.1296 52.2187 13.871 52.5823 12.6451 53.0401L12.2851 53.2365C12.0549 53.3798 11.8554 53.5678 11.6981 53.7896C11.5408 54.0113 11.4289 54.2623 11.3689 54.528C11.3089 54.7938 11.3019 55.0689 11.3485 55.3373C11.395 55.6058 11.4942 55.8622 11.6401 56.0917C14.0765 60.1169 16.8732 63.9094 19.9951 67.4219C21.6646 69.2399 23.5198 70.8755 25.5301 72.3015C27.6417 73.7865 29.9908 74.8954 32.475 75.5797C34.9188 76.2324 37.4566 76.4522 39.9751 76.2293H40.1551C42.6719 75.9699 45.1434 75.3756 47.5051 74.4618C48.6644 74.016 49.8009 73.5118 50.91 72.9511L51.4951 72.649C53.0232 75.2073 54.3666 77.873 55.5151 80.6255V80.7765H55.6051L55.6951 80.988C55.7756 81.1803 55.9031 81.349 56.0657 81.4784C56.2283 81.6078 56.4207 81.6938 56.6251 81.7283C56.7886 81.7575 56.9563 81.7539 57.1185 81.7176C57.2807 81.6813 57.4342 81.613 57.5701 81.5168C57.7066 81.4258 57.8235 81.308 57.9137 81.1704C58.0039 81.0328 58.0656 80.8783 58.0951 80.7161V80.5197H58.1701V80.3838C58.8816 76.1336 60.4102 72.0642 62.6701 68.4039C65.0204 64.6627 68.2375 61.5522 72.0451 59.3397C75.9123 57.1115 80.1889 55.698 84.6151 55.1853C86.6498 54.9307 88.7001 54.8247 90.7501 54.868C89.1151 55.578 87.3901 56.3787 85.5601 57.406C81.2287 59.8153 77.0822 62.5472 73.1551 65.5789C71.0551 67.1953 69.1951 68.7363 67.4551 70.3074C65.5599 71.981 63.7854 73.7883 62.1451 75.7157C62.0135 75.8817 61.916 76.0724 61.8583 76.2767C61.8005 76.4809 61.7838 76.6948 61.8089 76.9057C61.834 77.1165 61.9006 77.3203 62.0046 77.505C62.1087 77.6898 62.2482 77.8518 62.4151 77.9817C64.1232 79.3588 66.0368 80.455 68.0851 81.2298C70.2365 82.0259 72.5487 82.28 74.8201 81.97C77.0369 81.6356 79.1584 80.8324 81.0451 79.6133C82.8337 78.459 84.4758 77.0893 85.9351 75.5344C88.748 72.5095 91.2275 69.1868 93.3301 65.6242C95.0251 62.8294 96.5701 59.9138 98.0401 57.0736C98.7594 56.9575 99.4865 56.8969 100.215 56.8924C101.038 56.8699 101.853 57.0569 102.585 57.4362C102.853 57.601 103.092 57.8104 103.29 58.0556C103.486 58.3532 103.647 58.6726 103.77 59.0073C104.215 60.9706 104.179 63.0135 103.665 64.9595V65.1408C103.242 67.958 102.408 70.6969 101.19 73.2684C99.9728 75.9181 98.5114 78.447 96.8251 80.8219C93.4382 85.6679 89.2468 89.8893 84.4351 93.3002C79.6319 96.7276 74.2415 99.2321 68.535 100.688C62.834 102.198 56.9097 102.664 51.0451 102.062C45.1992 101.471 39.4969 99.8772 34.1851 97.3489C26.3042 93.5366 19.5891 87.6556 14.7462 80.3247C9.90339 72.9938 7.11178 64.4838 6.66508 55.6901C6.21837 46.8964 8.13309 38.144 12.2078 30.3536C16.2825 22.5631 22.3666 16.0227 29.82 11.4203C37.5054 6.65333 46.2998 4.00455 55.3219 3.73941C64.344 3.47427 73.2768 5.60207 81.2251 9.90956C92.0148 15.5992 100.334 25.1073 104.58 36.6036C104.634 36.7574 104.747 36.8833 104.893 36.9541C105.039 37.0248 105.207 37.0346 105.36 36.9813C105.504 36.9327 105.625 36.8308 105.697 36.6962C105.769 36.5616 105.788 36.4043 105.75 36.2562C103.897 30.256 100.924 24.6671 96.9901 19.7895C93.0047 14.8359 88.1489 10.6625 82.6651 7.47733C77.1269 4.2385 71.0717 1.9944 64.7701 0.845357C60.1366 0.0285104 55.4192 -0.194831 50.7301 0.180649C48.9901 0.316612 47.25 0.52811 45.5401 0.83025C39.1569 1.97174 33.0263 4.2481 27.4351 7.55287C16.1497 14.162 7.62375 24.6647 3.43505 37.1173C1.38527 43.2628 0.475138 49.7355 0.750051 56.2125C1.33341 69.3391 6.66937 81.796 15.7501 91.2306C24.9626 100.754 37.2519 106.648 50.4001 107.848C56.9509 108.459 63.5574 107.87 69.9001 106.111C76.228 104.417 82.1924 101.565 87.4951 97.6964C92.7514 93.8755 97.3177 89.1745 100.995 83.7979C102.858 81.103 104.45 78.2286 105.75 75.2172C107.081 72.1948 107.971 68.9941 108.39 65.7149C108.612 64.4679 108.732 63.2048 108.75 61.9381C108.802 60.4417 108.589 58.9479 108.12 57.5269ZM91.2001 64.3552C89.1701 67.735 86.7536 70.8634 84.0001 73.6762C80.7451 76.8638 77.5201 78.6616 74.4001 79.0241H74.0401C72.3842 79.1446 70.7228 78.8864 69.1801 78.2688C67.9979 77.8097 66.8789 77.2005 65.8501 76.4559C66.9301 75.3531 68.1901 74.1748 69.7351 72.8605C71.2801 71.5462 73.2901 69.9599 75.3451 68.4643C79.1962 65.6513 83.247 63.1267 87.4651 60.9108C89.5403 59.846 91.6794 58.9126 93.8701 58.116L94.9651 57.7535C93.7501 60.0497 92.535 62.2553 91.2001 64.3552ZM48.7501 68.5701C47.7751 69.0384 46.7551 69.4765 45.75 69.8391C43.8256 70.609 41.8078 71.117 39.75 71.3498H39.5551C37.6078 71.5438 35.6418 71.3852 33.75 70.8814C29.7729 69.678 26.2022 67.3938 23.43 64.2797C21.0211 61.7254 18.8049 58.9935 16.8001 56.1068L17.2651 55.9859C18.3334 55.7217 19.4149 55.5149 20.5051 55.3666C22.6987 55.0751 24.9184 55.0396 27.1201 55.2608C31.5375 55.6959 35.7841 57.2044 39.495 59.6569C43.0819 62.0499 46.216 65.0682 48.7501 68.5701Z" fill="#E1C7CA"/>
</g>
<defs>
<clipPath id="clip0_1542_16196">
<rect width="108" height="108" fill="white" transform="translate(0.75)"/>
</clipPath>
</defs>
</svg>
