<svg width="48" height="48" viewBox="0 0 48 48" fill="none" xmlns="http://www.w3.org/2000/svg">
<path d="M47.0955 25.3166C46.9721 24.9716 46.7961 24.6481 46.5738 24.3577C46.3294 24.053 46.0309 23.7968 45.6934 23.6023C45.0712 23.271 44.3752 23.1059 43.6716 23.1228C43.0825 23.1364 42.4966 23.2135 41.9238 23.3527C40.1918 23.1287 38.4384 23.1287 36.7064 23.3527C34.6516 23.6191 32.6686 24.2886 30.8694 25.3232C29.0725 26.3588 27.551 27.8168 26.4347 29.5729C25.6466 30.8299 25.0425 32.1948 24.6412 33.6255C24.276 32.8176 23.8977 32.0622 23.4934 31.3463L23.6303 31.2543C24.526 30.647 25.3488 29.9373 26.0825 29.1394C27.5251 27.5752 28.6525 25.7438 29.4021 23.7468C30.1687 21.7709 30.5346 19.6604 30.4781 17.5398C30.4269 15.4109 29.9197 13.3182 28.9912 11.405C28.0529 9.48561 26.7398 7.77659 25.1303 6.38031L25.0847 6.34747C24.9881 6.27192 24.8776 6.21637 24.7596 6.18405C24.6416 6.15172 24.5184 6.14325 24.3972 6.15913C24.2759 6.17501 24.1589 6.21492 24.0531 6.27655C23.9472 6.33819 23.8545 6.42033 23.7803 6.51824C22.6848 7.90314 21.7156 9.38483 20.8847 10.9453C20.0314 12.5431 19.5016 14.2957 19.326 16.1013C19.1887 17.9444 19.5588 19.7898 20.3955 21.4348C21.2124 23.0185 22.2416 24.4816 23.4542 25.783C23.5299 25.8621 23.6241 25.9208 23.7281 25.9537C23.8831 26.0159 24.0558 26.0159 24.2107 25.9537C24.3566 25.8774 24.4684 25.7483 24.5238 25.5925C24.6252 25.2664 24.7101 24.9354 24.7781 24.6007C24.8434 24.3051 24.8955 24.0095 24.9477 23.714V23.6417C25.0586 22.9126 25.1368 22.3281 25.189 21.7369C25.3129 20.4561 25.3847 19.1753 25.4042 17.9339C25.4042 16.8173 25.4042 15.6153 25.4042 14.1309L25.3129 12.2392L25.1955 10.3213C25.189 10.2528 25.1573 10.1892 25.1066 10.143C25.056 10.0968 24.99 10.0714 24.9216 10.0717C24.8507 10.0717 24.7827 10.1 24.7325 10.1506C24.6824 10.2011 24.6542 10.2696 24.6542 10.341V12.2261V14.1112C24.6542 15.3132 24.589 16.6005 24.4977 17.8616C24.4064 19.1227 24.2955 20.3313 24.1194 21.5793C24.0477 22.1179 23.9434 22.7024 23.8064 23.3987L23.7738 23.5235L23.676 23.9833C22.9075 23.0079 22.2512 21.948 21.7194 20.8239C21.0454 19.3924 20.7747 17.802 20.9368 16.2261C21.1501 14.6367 21.6732 13.1054 22.476 11.7203C23.1141 10.569 23.8425 9.47078 24.6542 8.43618C25.7252 9.53122 26.6069 10.7988 27.2629 12.1867C28.0408 13.8676 28.448 15.6984 28.4564 17.5529C28.4916 21.3078 27.0904 24.9323 24.5434 27.6746C23.9169 28.3438 23.2167 28.9388 22.4564 29.4481L22.4042 29.4875C21.2546 27.7584 19.8028 26.254 18.1194 25.0473C16.3349 23.7812 14.2711 22.9719 12.1064 22.6893C11.0249 22.5479 9.93097 22.5303 8.84553 22.6368C8.3002 22.6939 7.75818 22.7794 7.22161 22.8929C6.66489 23.0087 6.11767 23.1668 5.58466 23.3658L5.42813 23.4512C5.32808 23.5136 5.24134 23.5953 5.17295 23.6917C5.10457 23.7881 5.05591 23.8973 5.02981 24.0128C5.00371 24.1283 5.00069 24.2479 5.02093 24.3646C5.04117 24.4814 5.08427 24.5929 5.1477 24.6926C6.20704 26.4427 7.42297 28.0916 8.78031 29.6188C9.50618 30.4093 10.3128 31.1204 11.1868 31.7404C12.1049 32.386 13.1263 32.8681 14.2064 33.1657C15.2689 33.4495 16.3723 33.545 17.4673 33.4481H17.5455C18.6398 33.3353 19.7144 33.0769 20.7412 32.6796C21.2453 32.4858 21.7394 32.2666 22.2216 32.0228L22.476 31.8915C23.1404 33.0038 23.7245 34.1628 24.2238 35.3595V35.4252H24.2629L24.302 35.5171C24.3371 35.6007 24.3925 35.6741 24.4632 35.7304C24.5339 35.7866 24.6175 35.824 24.7064 35.839C24.7775 35.8517 24.8504 35.8501 24.921 35.8343C24.9915 35.8185 25.0582 35.7889 25.1173 35.747C25.1766 35.7075 25.2275 35.6563 25.2667 35.5964C25.3059 35.5366 25.3327 35.4694 25.3455 35.3989V35.3135H25.3781V35.2544C25.6875 33.4065 26.3521 31.6372 27.3347 30.0458C28.3565 28.4192 29.7553 27.0668 31.4107 26.1048C33.0922 25.136 34.9515 24.5215 36.876 24.2985C37.7606 24.1879 38.6521 24.1418 39.5434 24.1606C38.8325 24.4693 38.0825 24.8174 37.2868 25.2641C35.4036 26.3116 33.6008 27.4994 31.8934 28.8175C30.9803 29.5203 30.1716 30.1903 29.4151 30.8734C28.5911 31.601 27.8196 32.3868 27.1064 33.2248C27.0492 33.297 27.0068 33.3799 26.9817 33.4687C26.9566 33.5575 26.9493 33.6505 26.9602 33.7422C26.9712 33.8339 27.0001 33.9225 27.0453 34.0028C27.0906 34.0831 27.1512 34.1536 27.2238 34.21C27.9664 34.8088 28.7985 35.2854 29.689 35.6222C30.6244 35.9684 31.6297 36.0789 32.6173 35.9441C33.5811 35.7987 34.5035 35.4495 35.3238 34.9194C36.1015 34.4176 36.8154 33.822 37.4499 33.146C38.6729 31.8308 39.7509 30.3861 40.6651 28.8372C41.4021 27.6221 42.0738 26.3544 42.7129 25.1196C43.0257 25.0691 43.3418 25.0427 43.6586 25.0408C44.0163 25.031 44.3708 25.1123 44.689 25.2772C44.8056 25.3489 44.9092 25.4399 44.9955 25.5465C45.0806 25.6759 45.1507 25.8148 45.2042 25.9603C45.3978 26.8139 45.3822 27.7021 45.1586 28.5482V28.627C44.9748 29.8519 44.6122 31.0427 44.0825 32.1608C43.5532 33.3128 42.9179 34.4124 42.1847 35.4449C40.7121 37.5519 38.8898 39.3872 36.7977 40.8703C34.7094 42.3604 32.3657 43.4493 29.8847 44.0822C27.4059 44.7389 24.8302 44.9413 22.2803 44.6799C19.7386 44.4229 17.2594 43.7298 14.9499 42.6306C11.5234 40.973 8.6038 38.4161 6.49821 35.2287C4.39263 32.0414 3.17889 28.3414 2.98467 24.518C2.79045 20.6947 3.62293 16.8893 5.39455 13.5021C7.16616 10.115 9.81142 7.27133 13.052 5.27027C16.3935 3.19769 20.2172 2.04605 24.1398 1.93077C28.0625 1.81549 31.9463 2.74062 35.4021 4.61345C40.0932 7.0872 43.7101 11.2212 45.5564 16.2196C45.58 16.2864 45.6289 16.3412 45.6924 16.3719C45.7559 16.4027 45.8289 16.4069 45.8955 16.3838C45.9582 16.3626 46.0105 16.3183 46.042 16.2598C46.0735 16.2013 46.0817 16.1329 46.0651 16.0685C45.2593 13.4597 43.9667 11.0298 42.2564 8.90909C40.5236 6.75535 38.4124 4.94081 36.0281 3.55596C33.6203 2.14777 30.9876 1.17207 28.2477 0.672489C26.2332 0.317338 24.1821 0.220233 22.1434 0.383485C21.3868 0.4426 20.6303 0.534555 19.8868 0.665921C17.1115 1.16222 14.4461 2.15194 12.0151 3.5888C7.10843 6.46233 3.40148 11.0287 1.58031 16.4429C0.689101 19.1148 0.29339 21.9291 0.412917 24.7452C0.666553 30.4524 2.98653 35.8684 6.93466 39.9704C10.9401 44.1112 16.2833 46.6737 21.9999 47.1955C24.8481 47.4611 27.7205 47.2052 30.4781 46.4402C33.2294 45.7037 35.8226 44.4636 38.1281 42.7816C40.4135 41.1204 42.3988 39.0765 43.9977 36.7388C44.8075 35.5671 45.5001 34.3174 46.0651 33.0081C46.6439 31.694 47.0305 30.3024 47.2129 28.8766C47.3094 28.3345 47.3618 27.7853 47.3694 27.2346C47.392 26.5839 47.2993 25.9345 47.0955 25.3166ZM39.739 28.2855C38.8564 29.755 37.8058 31.1151 36.6086 32.3381C35.1934 33.724 33.7912 34.5056 32.4347 34.6633H32.2781C31.5582 34.7156 30.8358 34.6034 30.1651 34.3348C29.6511 34.1353 29.1646 33.8704 28.7173 33.5467C29.1868 33.0672 29.7347 32.5548 30.4064 31.9834C31.0781 31.412 31.952 30.7223 32.8455 30.072C34.5199 28.849 36.2812 27.7513 38.1151 26.7879C39.0174 26.3249 39.9474 25.9191 40.8999 25.5728L41.376 25.4151C40.8477 26.4135 40.3194 27.3725 39.739 28.2855ZM21.2825 30.118C20.8586 30.3216 20.4151 30.5121 19.9781 30.6698C19.1414 31.0045 18.2641 31.2254 17.3694 31.3266H17.2847C16.438 31.4109 15.5832 31.342 14.7607 31.123C13.0316 30.5997 11.479 29.6066 10.2738 28.2526C9.22641 27.1421 8.26286 25.9543 7.39118 24.6992L7.59335 24.6467C8.05783 24.5317 8.52807 24.4419 9.00205 24.3774C9.95579 24.2506 10.9209 24.2352 11.8781 24.3314C13.7988 24.5205 15.6451 25.1764 17.2586 26.2427C18.8181 27.2832 20.1807 28.5955 21.2825 30.118Z" fill="#D9B9BD"/>
</svg>
