<svg width="116" height="115" viewBox="0 0 116 115" fill="none" xmlns="http://www.w3.org/2000/svg">
<circle cx="58" cy="57.5" r="57.5" fill="#F5F2F2"/>
<g clip-path="url(#clip0_1409_8354)">
<path d="M111.121 60.5278C110.837 59.7344 110.432 58.9902 109.921 58.3222C109.359 57.6215 108.672 57.0323 107.896 56.5849C106.465 55.8229 104.864 55.4432 103.246 55.4821C101.891 55.5134 100.543 55.6906 99.226 56.0108C95.2424 55.4957 91.2097 55.4957 87.226 56.0108C82.5 56.6236 77.939 58.1633 73.801 60.5429C69.6681 62.9248 66.1685 66.2782 63.601 70.3172C61.7884 73.2084 60.3991 76.3477 59.476 79.6382C58.636 77.78 57.766 76.0427 56.836 74.3961L57.151 74.1846C59.2111 72.7876 61.1036 71.1553 62.791 69.3201C66.1091 65.7225 68.7021 61.5102 70.426 56.9173C72.1894 52.3728 73.031 47.5186 72.901 42.6411C72.7833 37.7446 71.6167 32.9316 69.481 28.5312C67.3231 24.1165 64.3028 20.1858 60.601 16.9743L60.496 16.8988C60.2739 16.725 60.0198 16.5973 59.7484 16.5229C59.477 16.4486 59.1937 16.4291 58.9148 16.4656C58.6358 16.5021 58.3669 16.5939 58.1234 16.7357C57.8799 16.8774 57.6667 17.0664 57.496 17.2916C54.9763 20.4768 52.7473 23.8847 50.836 27.4737C48.8736 31.1488 47.655 35.1797 47.251 39.3327C46.9354 43.5717 47.7866 47.8162 49.711 51.5996C51.5898 55.2422 53.957 58.6073 56.746 61.6004C56.9201 61.7824 57.1367 61.9174 57.376 61.9932C57.7324 62.1362 58.1296 62.1362 58.486 61.9932C58.8214 61.8175 59.0786 61.5208 59.206 61.1623C59.4393 60.4124 59.6345 59.651 59.791 58.8812C59.941 58.2014 60.061 57.5215 60.181 56.8417V56.6755C60.436 54.9987 60.616 53.6541 60.736 52.2945C61.021 49.3486 61.186 46.4028 61.231 43.5476C61.231 40.9794 61.231 38.2148 61.231 34.8006L61.021 30.4498L60.751 26.0385C60.7361 25.8809 60.6631 25.7347 60.5466 25.6285C60.43 25.5222 60.2782 25.4637 60.121 25.4645C59.9579 25.4645 59.8015 25.5297 59.6862 25.6459C59.5708 25.762 59.506 25.9196 59.506 26.0838V30.4196V34.7553C59.506 37.5199 59.356 40.4808 59.146 43.3814C58.936 46.2819 58.681 49.0616 58.276 51.9319C58.111 53.1707 57.871 54.5152 57.556 56.1166L57.481 56.4036L57.256 57.4611C55.4886 55.2177 53.979 52.78 52.756 50.1946C51.2058 46.9022 50.5832 43.2442 50.956 39.6197C51.4465 35.9641 52.6496 32.4421 54.496 29.2563C55.9638 26.6083 57.6392 24.0824 59.506 21.7028C61.9693 24.2214 63.9972 27.1369 65.506 30.3289C67.2953 34.1951 68.2317 38.4058 68.251 42.6713C68.3321 51.3076 65.1092 59.6439 59.251 65.9512C57.8102 67.4903 56.1998 68.8588 54.451 70.0301L54.331 70.1208C51.6869 66.144 48.3477 62.6837 44.476 59.9084C40.3717 56.9965 35.6249 55.135 30.646 54.485C28.1586 54.1597 25.6425 54.1192 23.146 54.3642C21.8918 54.4957 20.6451 54.6923 19.411 54.9533C18.1306 55.2196 16.872 55.5833 15.646 56.041L15.286 56.2374C15.0559 56.3808 14.8564 56.5688 14.6991 56.7905C14.5418 57.0123 14.4299 57.2633 14.3699 57.529C14.3099 57.7947 14.3029 58.0698 14.3495 58.3383C14.396 58.6067 14.4951 58.8632 14.641 59.0927C17.0775 63.1179 19.8741 66.9104 22.996 70.4229C24.6655 72.2409 26.5208 73.8765 28.531 75.3025C30.6427 76.7875 32.9918 77.8963 35.476 78.5807C37.9197 79.2334 40.4575 79.4532 42.976 79.2303H43.156C45.6728 78.9709 48.1444 78.3765 50.506 77.4628C51.6654 77.0169 52.8019 76.5127 53.911 75.9521L54.496 75.6499C56.0242 78.2083 57.3676 80.874 58.516 83.6264V83.7775H58.606L58.696 83.989C58.7766 84.1813 58.9041 84.35 59.0667 84.4794C59.2292 84.6088 59.4216 84.6948 59.626 84.7293C59.7896 84.7585 59.9573 84.7549 60.1195 84.7186C60.2817 84.6823 60.4351 84.614 60.571 84.5178C60.7076 84.4268 60.8245 84.309 60.9147 84.1714C61.0049 84.0338 61.0666 83.8793 61.096 83.7171V83.5207H61.171V83.3847C61.8826 79.1346 63.4112 75.0652 65.671 71.4049C68.0214 67.6637 71.2385 64.5532 75.046 62.3407C78.9133 60.1124 83.1898 58.699 87.616 58.1862C89.6508 57.9317 91.7011 57.8257 93.751 57.869C92.116 58.579 90.391 59.3797 88.561 60.407C84.2297 62.8163 80.0831 65.5482 76.156 68.5799C74.056 70.1963 72.196 71.7372 70.456 73.3084C68.5609 74.982 66.7864 76.7893 65.146 78.7167C65.0144 78.8826 64.9169 79.0733 64.8592 79.2776C64.8015 79.4819 64.7847 79.6957 64.8099 79.9066C64.835 80.1175 64.9015 80.3213 65.0056 80.506C65.1097 80.6908 65.2492 80.8528 65.416 80.9827C67.1241 82.3597 69.0378 83.456 71.086 84.2307C73.2375 85.0269 75.5497 85.281 77.821 84.971C80.0379 84.6366 82.1594 83.8334 84.046 82.6143C85.8347 81.46 87.4768 80.0903 88.936 78.5354C91.749 75.5105 94.2284 72.1877 96.331 68.6252C98.026 65.8304 99.571 62.9147 101.041 60.0746C101.76 59.9585 102.488 59.8979 103.216 59.8933C104.039 59.8708 104.854 60.0579 105.586 60.4372C105.854 60.602 106.093 60.8114 106.291 61.0566C106.487 61.3542 106.648 61.6736 106.771 62.0083C107.216 63.9715 107.18 66.0144 106.666 67.9605V68.1418C106.243 70.959 105.409 73.6978 104.191 76.2693C102.974 78.9191 101.512 81.448 99.826 83.8228C96.4392 88.6689 92.2477 92.8902 87.436 96.3012C82.6328 99.7286 77.2424 102.233 71.536 103.689C65.835 105.199 59.9107 105.665 54.046 105.063C48.2002 104.472 42.4979 102.878 37.186 100.35C29.3051 96.5376 22.5901 90.6566 17.7472 83.3257C12.9044 75.9947 10.1128 67.4848 9.66605 58.6911C9.21935 49.8974 11.1341 41.145 15.2088 33.3545C19.2835 25.5641 25.3676 19.0237 32.821 14.4212C40.5064 9.6543 49.3008 7.00553 58.3229 6.74039C67.345 6.47524 76.2778 8.60305 84.226 12.9105C95.0158 18.6002 103.335 28.1083 107.581 39.6046C107.635 39.7584 107.748 39.8843 107.894 39.955C108.04 40.0257 108.208 40.0355 108.361 39.9823C108.505 39.9337 108.626 39.8317 108.698 39.6971C108.77 39.5625 108.789 39.4053 108.751 39.2572C106.898 33.257 103.925 27.6681 99.991 22.7905C96.0056 17.8369 91.1499 13.6635 85.666 10.4783C80.1279 7.23948 74.0727 4.99538 67.771 3.84633C63.1376 3.02949 58.4201 2.80615 53.731 3.18163C51.991 3.31759 50.251 3.52909 48.541 3.83123C42.1579 4.97272 36.0273 7.24907 30.436 10.5538C19.1507 17.163 10.6247 27.6657 6.43603 40.1183C4.38625 46.2637 3.47611 52.7365 3.75103 59.2135C4.33439 72.34 9.67034 84.797 18.751 94.2316C27.9636 103.755 40.2529 109.649 53.401 110.849C59.9519 111.46 66.5584 110.871 72.901 109.112C79.229 107.418 85.1934 104.566 90.496 100.697C95.7524 96.8765 100.319 92.1755 103.996 86.7989C105.859 84.1039 107.451 81.2296 108.751 78.2181C110.082 75.1958 110.971 71.9951 111.391 68.7158C111.613 67.4689 111.733 66.2058 111.751 64.9391C111.803 63.4426 111.59 61.9489 111.121 60.5278ZM94.201 67.3562C92.1711 70.736 89.7546 73.8644 87.001 76.6772C83.746 79.8648 80.521 81.6625 77.401 82.0251H77.041C75.3852 82.1456 73.7238 81.8873 72.181 81.2698C70.9989 80.8107 69.8799 80.2015 68.851 79.4569C69.931 78.3541 71.191 77.1758 72.736 75.8614C74.281 74.5471 76.291 72.9609 78.346 71.4653C82.1971 68.6523 86.248 66.1277 90.466 63.9118C92.5412 62.847 94.6804 61.9135 96.871 61.117L97.966 60.7544C96.751 63.0507 95.536 65.2563 94.201 67.3562ZM51.751 71.5711C50.776 72.0394 49.756 72.4775 48.751 72.84C46.8266 73.6099 44.8088 74.118 42.751 74.3507H42.556C40.6088 74.5448 38.6428 74.3862 36.751 73.8824C32.7739 72.679 29.2031 70.3948 26.431 67.2807C24.0221 64.7264 21.8059 61.9945 19.801 59.1078L20.266 58.9869C21.3343 58.7226 22.4159 58.5159 23.506 58.3675C25.6996 58.0761 27.9193 58.0406 30.121 58.2618C34.5385 58.6968 38.7851 60.2054 42.496 62.6579C46.0829 65.0509 49.217 68.0692 51.751 71.5711Z" fill="#69ADB9"/>
</g>
<defs>
<clipPath id="clip0_1409_8354">
<rect width="108" height="108" fill="white" transform="translate(3.75 3)"/>
</clipPath>
</defs>
</svg>
