<svg width="116" height="115" viewBox="0 0 116 115" fill="none" xmlns="http://www.w3.org/2000/svg">
<circle cx="58" cy="57.5" r="57.5" fill="#F5F2F2"/>
<g clip-path="url(#clip0_1511_13547)">
<path d="M111.119 60.5269C110.835 59.7334 110.43 58.9893 109.919 58.3212C109.357 57.6205 108.67 57.0313 107.894 56.5839C106.463 55.8219 104.862 55.4422 103.244 55.4811C101.889 55.5124 100.542 55.6896 99.2241 56.0099C95.2404 55.4947 91.2077 55.4947 87.2241 56.0099C82.498 56.6226 77.9371 58.1624 73.7991 60.542C69.6661 62.9238 66.1666 66.2773 63.5991 70.3162C61.7865 73.2074 60.3972 76.3467 59.4741 79.6372C58.6341 77.7791 57.7641 76.0417 56.8341 74.3951L57.1491 74.1836C59.2091 72.7866 61.1017 71.1543 62.7891 69.3191C66.1071 65.7215 68.7001 61.5093 70.4241 56.9163C72.1875 52.3718 73.029 47.5176 72.8991 42.6402C72.7813 37.7437 71.6147 32.9306 69.4791 28.5302C67.3211 24.1155 64.3009 20.1848 60.5991 16.9733L60.4941 16.8978C60.272 16.724 60.0179 16.5963 59.7465 16.5219C59.4751 16.4476 59.1917 16.4281 58.9128 16.4646C58.6339 16.5011 58.3649 16.5929 58.1214 16.7347C57.8779 16.8765 57.6647 17.0654 57.4941 17.2906C54.9744 20.4759 52.7453 23.8837 50.8341 27.4727C48.8716 31.1478 47.6531 35.1787 47.2491 39.3317C46.9334 43.5707 47.7846 47.8153 49.7091 51.5986C51.5878 55.2412 53.955 58.6063 56.7441 61.5995C56.9182 61.7814 57.1348 61.9164 57.3741 61.9922C57.7305 62.1352 58.1277 62.1352 58.4841 61.9922C58.8195 61.8165 59.0766 61.5198 59.2041 61.1613C59.4373 60.4114 59.6326 59.6501 59.7891 58.8802C59.9391 58.2004 60.0591 57.5206 60.1791 56.8407V56.6746C60.4341 54.9977 60.6141 53.6532 60.7341 52.2935C61.0191 49.3477 61.1841 46.4018 61.2291 43.5466C61.2291 40.9784 61.2291 38.2138 61.2291 34.7996L61.0191 30.4488L60.7491 26.0376C60.7341 25.88 60.6612 25.7337 60.5446 25.6275C60.4281 25.5213 60.2763 25.4628 60.1191 25.4635C59.956 25.4635 59.7995 25.5287 59.6842 25.6449C59.5689 25.7611 59.5041 25.9186 59.5041 26.0829V30.4186V34.7543C59.5041 37.5189 59.3541 40.4799 59.1441 43.3804C58.9341 46.2809 58.6791 49.0606 58.2741 51.931C58.1091 53.1697 57.8691 54.5143 57.5541 56.1156L57.4791 56.4026L57.2541 57.4601C55.4866 55.2167 53.977 52.7791 52.7541 50.1937C51.2039 46.9012 50.5812 43.2432 50.9541 39.6188C51.4446 35.9631 52.6476 32.4412 54.4941 29.2553C55.9619 26.6073 57.6372 24.0814 59.5041 21.7018C61.9673 24.2204 63.9953 27.136 65.5041 30.3279C67.2933 34.1942 68.2298 38.4049 68.2491 42.6704C68.3301 51.3067 65.1073 59.643 59.2491 65.9503C57.8083 67.4893 56.1979 68.8578 54.4491 70.0292L54.3291 70.1198C51.6849 66.143 48.3458 62.6827 44.4741 59.9075C40.3697 56.9955 35.6229 55.134 30.6441 54.4841C28.1566 54.1588 25.6406 54.1182 23.1441 54.3632C21.8898 54.4947 20.6432 54.6913 19.4091 54.9524C18.1286 55.2187 16.87 55.5823 15.6441 56.0401L15.2841 56.2365C15.054 56.3798 14.8544 56.5678 14.6972 56.7896C14.5399 57.0113 14.428 57.2623 14.3679 57.528C14.3079 57.7938 14.301 58.0689 14.3475 58.3373C14.3941 58.6058 14.4932 58.8622 14.6391 59.0917C17.0756 63.1169 19.8722 66.9094 22.9941 70.4219C24.6636 72.2399 26.5189 73.8755 28.5291 75.3015C30.6407 76.7865 32.9898 77.8954 35.4741 78.5797C37.9178 79.2324 40.4556 79.4522 42.9741 79.2293H43.1541C45.6709 78.9699 48.1424 78.3756 50.5041 77.4618C51.6635 77.016 52.7999 76.5118 53.9091 75.9511L54.4941 75.649C56.0222 78.2073 57.3657 80.873 58.5141 83.6255V83.7765H58.6041L58.6941 83.988C58.7746 84.1803 58.9021 84.349 59.0647 84.4784C59.2273 84.6078 59.4197 84.6938 59.6241 84.7283C59.7877 84.7575 59.9554 84.7539 60.1176 84.7176C60.2797 84.6813 60.4332 84.613 60.5691 84.5168C60.7056 84.4258 60.8225 84.308 60.9128 84.1704C61.003 84.0328 61.0646 83.8783 61.0941 83.7161V83.5197H61.1691V83.3838C61.8807 79.1336 63.4092 75.0642 65.6691 71.4039C68.0194 67.6627 71.2366 64.5522 75.0441 62.3397C78.9113 60.1115 83.1879 58.698 87.6141 58.1853C89.6488 57.9307 91.6992 57.8247 93.7491 57.868C92.1141 58.578 90.3891 59.3787 88.5591 60.406C84.2277 62.8153 80.0812 65.5472 76.1541 68.5789C74.0541 70.1953 72.1941 71.7363 70.4541 73.3074C68.5589 74.981 66.7844 76.7883 65.1441 78.7157C65.0125 78.8817 64.915 79.0724 64.8573 79.2767C64.7996 79.4809 64.7828 79.6948 64.8079 79.9057C64.833 80.1165 64.8996 80.3203 65.0036 80.505C65.1077 80.6898 65.2472 80.8518 65.4141 80.9817C67.1222 82.3588 69.0358 83.455 71.0841 84.2298C73.2356 85.0259 75.5477 85.28 77.8191 84.97C80.0359 84.6356 82.1574 83.8324 84.0441 82.6133C85.8327 81.459 87.4749 80.0893 88.9341 78.5344C91.747 75.5095 94.2265 72.1868 96.3291 68.6242C98.0241 65.8294 99.5691 62.9138 101.039 60.0736C101.758 59.9575 102.486 59.8969 103.214 59.8924C104.037 59.8699 104.852 60.0569 105.584 60.4362C105.852 60.601 106.091 60.8104 106.289 61.0556C106.485 61.3532 106.646 61.6726 106.769 62.0073C107.214 63.9706 107.178 66.0135 106.664 67.9595V68.1408C106.241 70.958 105.407 73.6969 104.189 76.2684C102.972 78.9181 101.51 81.447 99.8241 83.8219C96.4373 88.6679 92.2458 92.8893 87.4341 96.3002C82.6309 99.7276 77.2405 102.232 71.5341 103.688C65.833 105.198 59.9088 105.664 54.0441 105.062C48.1982 104.471 42.4959 102.877 37.1841 100.349C29.3032 96.5366 22.5881 90.6556 17.7453 83.3247C12.9024 75.9938 10.1108 67.4838 9.6641 58.6901C9.2174 49.8964 11.1321 41.144 15.2068 33.3536C19.2815 25.5631 25.3656 19.0227 32.8191 14.4203C40.5044 9.65333 49.2988 7.00455 58.3209 6.73941C67.343 6.47427 76.2758 8.60207 84.2241 12.9096C95.0138 18.5992 103.333 28.1073 107.579 39.6036C107.633 39.7574 107.746 39.8833 107.892 39.9541C108.038 40.0248 108.206 40.0346 108.359 39.9813C108.503 39.9327 108.624 39.8308 108.696 39.6962C108.768 39.5616 108.787 39.4043 108.749 39.2562C106.896 33.256 103.923 27.6671 99.9891 22.7895C96.0037 17.8359 91.148 13.6625 85.6641 10.4773C80.126 7.2385 74.0707 4.9944 67.7691 3.84536C63.1356 3.02851 58.4182 2.80517 53.7291 3.18065C51.9891 3.31661 50.2491 3.52811 48.5391 3.83025C42.1559 4.97174 36.0253 7.2481 30.4341 10.5529C19.1488 17.162 10.6228 27.6647 6.43407 40.1173C4.3843 46.2628 3.47416 52.7355 3.74907 59.2125C4.33244 72.3391 9.66839 84.796 18.7491 94.2306C27.9617 103.754 40.2509 109.648 53.3991 110.848C59.9499 111.459 66.5564 110.87 72.8991 109.111C79.2271 107.417 85.1914 104.565 90.4941 100.696C95.7504 96.8755 100.317 92.1745 103.994 86.7979C105.857 84.103 107.449 81.2286 108.749 78.2172C110.08 75.1948 110.97 71.9941 111.389 68.7149C111.611 67.4679 111.731 66.2048 111.749 64.9381C111.801 63.4417 111.588 61.9479 111.119 60.5269ZM94.1991 67.3552C92.1692 70.735 89.7527 73.8634 86.9991 76.6762C83.7441 79.8638 80.5191 81.6616 77.3991 82.0241H77.0391C75.3833 82.1446 73.7218 81.8864 72.1791 81.2688C70.997 80.8097 69.8779 80.2005 68.8491 79.4559C69.9291 78.3531 71.1891 77.1748 72.7341 75.8605C74.2791 74.5462 76.2891 72.9599 78.3441 71.4643C82.1952 68.6513 86.2461 66.1267 90.4641 63.9108C92.5393 62.846 94.6784 61.9126 96.8691 61.116L97.9641 60.7535C96.7491 63.0497 95.5341 65.2553 94.1991 67.3552ZM51.7491 71.5701C50.7741 72.0384 49.7541 72.4765 48.7491 72.8391C46.8246 73.609 44.8069 74.117 42.7491 74.3498H42.5541C40.6068 74.5438 38.6408 74.3852 36.7491 73.8814C32.772 72.678 29.2012 70.3938 26.4291 67.2797C24.0201 64.7254 21.8039 61.9935 19.7991 59.1068L20.2641 58.9859C21.3324 58.7217 22.4139 58.5149 23.5041 58.3666C25.6977 58.0751 27.9174 58.0396 30.1191 58.2608C34.5366 58.6959 38.7832 60.2044 42.4941 62.6569C46.0809 65.0499 49.2151 68.0682 51.7491 71.5701Z" fill="#5975B1"/>
</g>
<defs>
<clipPath id="clip0_1511_13547">
<rect width="108" height="108" fill="white" transform="translate(3.75 3)"/>
</clipPath>
</defs>
</svg>
